<?xml version="1.0" encoding="UTF-8"?>
<svg id="Layer_1" data-name="Layer 1" xmlns="http://www.w3.org/2000/svg" viewBox="0 0 793.29 454.25">
  <defs>
    <style>
      .cls-1 {
        fill: #060602;
      }

      .cls-2 {
        fill: #060502;
      }

      .cls-3 {
        fill: #ed8727;
      }

      .cls-4 {
        fill: #ed8627;
      }

      .cls-5 {
        fill: #ed8628;
      }

      .cls-6 {
        fill: #ed8526;
      }

      .cls-7 {
        fill: #ffa144;
      }

      .cls-8 {
        fill: #ffa143;
      }

      .cls-9 {
        fill: #fee744;
      }

      .cls-10 {
        fill: #fee745;
      }

      .cls-11 {
        fill: #feed56;
      }

      .cls-12 {
        fill: #feee57;
      }

      .cls-13 {
        fill: #fae957;
      }

      .cls-14 {
        fill: #ee8728;
      }

      .cls-15 {
        fill: #fde545;
      }

      .cls-16 {
        fill: #fea144;
      }

      .cls-17 {
        fill: #fde644;
      }

      .cls-18 {
        fill: #ba5e18;
      }

      .cls-19 {
        fill: #b85d18;
      }

      .cls-20 {
        fill: #b85c17;
      }

      .cls-21 {
        fill: #d9751f;
      }

      .cls-22 {
        fill: #d9731f;
      }

      .cls-23 {
        fill: #d8721e;
      }

      .cls-24 {
        fill: #090903;
      }

      .cls-25 {
        fill: #070602;
      }
    </style>
  </defs>
  <path class="cls-6" d="m535.34,345.22c2.68-11.34,5.37-22.68,8.04-34.02,5.03-21.37,10.09-42.74,15.06-64.13,6.7-28.86,13.32-57.74,19.98-86.61.33-1.43.74-2.85,1.11-4.27,1.89-.49,4.02-.58,5.63-1.55,15.37-9.22,30.74-18.46,45.92-27.99,3.74-2.35,7.13-2.9,11.27-1.67,8.57,2.55,17.22,4.82,25.84,7.21,2.05,9.08,4.17,18.14,6.14,27.23,3.68,16.96,7.34,33.93,10.9,50.92,3.77,17.98,7.41,35.99,11.11,53.99,2.12,10.27,4.25,20.54,6.4,30.81,3.2,15.26,6.41,30.51,9.68,45.76.51,2.39,1.36,4.71,2.05,7.06.29,2.07.59,4.14.88,6.2.48,6.44-2.48,11.22-8.17,13.5-22.11,8.87-45.18,14.3-68.93,15.31-14.67.62-29.47-.63-44.15-1.85-18.09-1.5-35.36-6.85-52.27-13.26-6.3-2.39-9.51-9.2-7.91-15.85.54-2.25.95-4.52,1.42-6.78Z"/>
  <path class="cls-6" d="m205.21,107.17c.05.67.11,1.35.16,2.02-2.02.68-4,1.76-6.07,1.95-6.49.61-12.53,1.36-15.93,8.32-1.55,3.16-4.51,5.71-7.11,8.25-4.98,4.88-10.44,9.3-15.12,14.44-2.02,2.22-3.41,5.68-3.66,8.7-.75,9.08-.95,18.22-1.08,27.34-.28,18.98.78,37.76,7.72,55.79,15.18,39.37,42.87,65.13,83.3,77.18,1.64,6.94,3.22,13.9,4.94,20.82,1.25,5.03,2.7,10.02,4.07,15.02.77,8.69-.24,16.62-9.09,21.19-2.33.5-4.75.77-6.99,1.54-24.67,8.41-50.01,12.98-76.08,12.34-11.87-.29-23.94-.8-35.52-3.17-15.51-3.17-30.67-8.09-45.89-12.57-5.46-1.61-7.71-6.06-7.48-11.62.14-3.46.62-6.9.95-10.35,2.67-10.24,5.48-20.44,7.96-30.73,3.34-13.87,6.41-27.81,9.61-41.72,5.85-25.42,11.67-50.84,17.57-76.24,3.37-14.51,6.88-28.98,10.32-43.47,5.36-.92,10.88-1.3,16.05-2.87,19.69-5.97,33.49-19.61,44.88-35.98,2.53-3.64,5.06-5.54,9.66-5.28,4.25.23,8.56-.57,12.84-.92Z"/>
  <path class="cls-22" d="m535.34,345.22c-.47,2.26-.88,4.54-1.42,6.78-1.59,6.65,1.61,13.46,7.91,15.85,16.91,6.41,34.18,11.75,52.27,13.26,14.68,1.22,29.48,2.47,44.15,1.85,23.75-1.01,46.82-6.44,68.93-15.31,5.69-2.28,8.65-7.06,8.17-13.5,9.24,12.52,18.62,24.93,27.62,37.61,2.54,3.59,4.7,4.54,8.91,2.85,13.53-5.43,27.23-10.44,40.87-15.62.18,3.28.92,6.66.31,9.78-.33,1.7-2.73,3.51-4.61,4.29-13.98,5.81-28.06,11.38-42.11,17.03,0-4.1,0-8.21,0-12.78-2.1.58-3.55.85-4.89,1.38-33.29,13.26-66.57,26.54-99.84,39.85-5.84,2.33-11.61,2.36-17.43.03-49.76-19.89-99.53-39.75-149.26-59.72-4.68-1.88-9.07-4.46-13.6-6.72,24-8.66,47.99-17.31,71.99-25.97.34-.2.68-.41,1.01-.61.34-.11.69-.23,1.03-.34Z"/>
  <path class="cls-8" d="m247.42,311.16c-40.44-12.06-68.13-37.81-83.3-77.18-6.95-18.03-8.01-36.81-7.72-55.79.14-9.12.33-18.26,1.08-27.34.25-3.02,1.64-6.48,3.66-8.7,4.68-5.14,10.14-9.56,15.12-14.44,2.6-2.55,5.56-5.09,7.11-8.25,3.41-6.96,9.44-7.71,15.93-8.32,2.07-.19,4.05-1.28,6.07-1.95,2.32,10.9,4.64,21.8,6.97,32.7,2.75,12.88,5.59,25.74,8.26,38.63,2.67,12.91,5.09,25.88,7.8,38.78,2.68,12.74,5.75,25.4,8.38,38.16,3.68,17.87,7.1,35.8,10.63,53.7Z"/>
  <path class="cls-23" d="m76.32,344.37c-.33,3.45-.81,6.9-.95,10.35-.22,5.55,2.02,10.01,7.48,11.62,15.22,4.48,30.38,9.4,45.89,12.57,11.58,2.37,23.65,2.87,35.52,3.17,26.07.64,51.41-3.93,76.08-12.34,2.24-.77,4.66-1.04,6.99-1.54-10.43,8.94-20.87,17.88-31.29,26.83-15.57,13.38-31.14,26.78-46.7,40.17-.35,0-.71,0-1.06,0-1.77-.41-3.61-.62-5.28-1.28-44.91-17.71-89.78-35.5-134.7-53.18-8.62-3.39-17.39-6.39-26.09-9.57,9.56-3.57,19.08-7.24,28.68-10.7,15.12-5.44,30.28-10.74,45.43-16.11Z"/>
  <path class="cls-12" d="m658.37,81.29c1.27,1.14,3.32,2.09,3.65,3.45.64,2.69.32,5.6.4,8.43-6.51,3.58-12.97,7.23-19.54,10.71-6.07,3.22-12.25,6.23-18.39,9.34-3.1-4.92-3.97.44-5.45,1.1-1.2-1.52-2.34-2.96-3.76-4.76-2.45,2.8-4.15,6.61-6.46,7.03-5.61,1.01-7.57,4.94-9.61,8.08-7.22-2.74-5.54,5.27-8.55,6.9-1.95-5.4-2.74-5.66-7.22-2.3-4.97.98-9.94,1.96-14.91,2.94.22-.6.42-1.2.67-1.79.49-1.12,1.16-2.2,1.39-3.36.05-.24-1.85-1.35-2.25-1.1-.93.59-1.54,1.73-2.19,2.7-.45.66-.76,1.42-.65,1.2-2.51,0-4.5.04-6.48-.01-1.24-.03-2.9.27-3.66-.39-3.84-3.37-5.49-.15-7.54,2.16q-2.81-3.14-6.36.48c-3.02-4.42-5.61-4.09-8.04.86-2.16-1.21-4.33-2.41-6.5-3.62-.78,2.45-1.56,4.91-2.42,7.59-1.34-1.61-2.73-3.26-4.11-4.92-.56-.03-1.13-.07-1.69-.1-.77,3.43-1.54,6.86-2.32,10.28-8.89,1.32-17.76,2.77-26.67,3.88-3.42.43-6.93.09-10.4.1-1-2.84,3.41-6.56-1.43-9.49-.82,2.82-1.44,4.98-1.79,6.19-2.56-.61-5.13-2.11-6.91-1.46-3.86,1.42-5.75.26-6.75-3.85-.49,0-.97,0-1.46,0-1.61,2.83-3.22,5.65-4.82,8.46-2.73-1.08-4.5-7.01-8.78-1.95-2.85-5.23-3.66-5.24-7.47-.2-2.97-3.72-4.66-3.57-6.24.7-.67,1.81-1.01,3.75-1.5,5.63-15-.31-30-.62-45-.93-2.2-1.33-4.45-2.58-6.58-4-2.25-1.5-6.34-.03-6.91-4.26-1.77.33-5,.47-5.07,1.02-.5,3.95-2.62,2.02-4.06,1.24-4.65-2.5-8.25-2.13-11.03,1.6-1.87-7.7-7.35-4.94-12.5-4.21,1.13-1.72,2.41-2.59,3.63-3.54.64-.5,1.16-1.14,1.73-1.72-.76-.4-1.52-1.15-2.28-1.15-4.6,0-5.3,3.48-5.94,6.95-7.82-1.67-15.65-3.34-23.47-5.01-1.05-2.28-1.2-5.11-4.98-5.15-1.78-.02-3.68-1.45-5.27-2.6-2.1-1.52-3.75-3.72-5.98-4.93-.77-.42-3.04.98-3.97,2.09-1.04,1.24-1.34,3.1-1.96,4.69-.47.03-.94.06-1.41.08,1.5-6.41-4.11-7.23-7.16-10-.15-.13-2.37,2.01-3.8,3.25-1.32-1.39-1.17-8.08-5.29-1.9-1.41-2.97-2.82-4.02-4.7-.54-3.29-1-6.6-1.93-9.85-3.03-5.71-1.93-11.39-3.96-17.09-5.94-.3-.01-.6-.08-.87-.2-1.01-.61-2.02-1.22-3.03-1.83h.01c-.37-.31-.74-.64-1.11-.96-3.11-3.53-6.29-6.93-10.59-6.27-1.73-3.89-3.15-7.06-4.56-10.23-.35.58-.71,1.16-1.06,1.75-1.75.24-3.55.28-5.22.77-1.22.35-2.27,1.29-3.39,1.97-2.88-1.44-5.75-2.89-9.13-4.58.35,2.29.62,4.01.94,6.11-2.34.84-4.6,1.64-6.87,2.45l-.03-.03c-.48-1.16-.97-2.33-1.26-3.03-2.03,2.03-3.66,3.66-5.29,5.29.61-4.07,1.7-7.36,3.26-10.4.87-1.69,2.27-3.54,3.91-4.31,3.48-1.64,3.7-4.28,3.36-7.41,27.34,12.71,55.3,23.77,84.19,32.49,25.35,7.65,51.13,13.27,77.28,17.35,29.88,4.67,59.95,4.48,89.93,2.81,35.39-1.97,70.41-7.45,104.98-15.48,10.49-2.44,20.98-4.89,31.47-7.33,0,0,.46-.02.46-.02-1.04,3.82-2.08,7.64-3.53,12.95,6.01-3.85,10.66-6.83,15.31-9.81,2.29-1.36,4.58-2.71,6.87-4.07,7.02-4.27,14.04-8.55,21.06-12.82,9.35-5.37,18.7-10.74,28.04-16.11Z"/>
  <path class="cls-8" d="m169.35,435.21c15.57-13.39,31.13-26.79,46.7-40.17,10.42-8.96,20.86-17.89,31.29-26.83,8.85-4.57,9.86-12.5,9.09-21.19,11.36,4.28,22.74,8.51,34.08,12.85,13.17,5.04,26.32,10.16,39.46,15.28,1.21.47,2.33,1.18,3.49,1.78-.82.5-1.58,1.14-2.46,1.48-32.97,12.82-65.95,25.61-98.93,38.4-16.41,6.37-32.79,12.84-49.27,19.02-4.38,1.64-9.14,3.16-13.46-.61Z"/>
  <path class="cls-19" d="m461.31,372.14c4.53,2.26,8.92,4.84,13.6,6.72,49.73,19.97,99.5,39.82,149.26,59.72,5.83,2.33,11.6,2.31,17.43-.03,33.27-13.31,66.55-26.59,99.84-39.85,1.34-.53,2.79-.8,4.89-1.38,0,4.58,0,8.68,0,12.78-13.71,5.67-27.39,11.4-41.13,16.99-20.32,8.27-40.8,16.18-60.97,24.81-7.66,3.28-14.44,3.02-21.94-.12-24.88-10.42-49.94-20.43-74.9-30.66-24.36-9.97-48.69-20.01-73.03-30.02-2.88-1.19-5.75-2.41-8.64-3.6-6.09-2.51-8.46-8.07-5.94-14.16.22-.52,1-.81,1.51-1.2Z"/>
  <path class="cls-4" d="m658.37,81.29c-9.35,5.37-18.7,10.74-28.04,16.11-2.6-.48-5.2-.96-7.8-1.44-9.05-2.65-18.09-5.3-27.14-7.96,4.01-17.2,8.04-34.4,12.04-51.61,1.78-7.65,3.34-15.36,5.35-22.94.6-2.25,2.43-4.18,3.69-6.26,1.64,1.04,3.29,2.08,4.93,3.12,4.75,4.81,10.26,9.09,14.08,14.55,5.84,8.35,10.52,17.52,15.69,26.34,2.4,10.03,4.8,20.05,7.2,30.08Z"/>
  <path class="cls-10" d="m314.7,136.19c7.82,1.67,15.65,3.34,23.47,5.01q.52,5.65,7.4,3.31c2.72,2.5,5.32,4.89,8.72,8.01,1.08-2.26,2.21-4.61,3.18-6.62,1.66,2.27,3.42,4.67,5.75,7.86,1.32-3.09,2.04-4.79,2.52-5.92,6.86,1.15,13.38,2.28,19.94,3.25.4.06,1-1.18,1.5-1.82,15,.31,30,.62,45,.93.75.8,1.51,1.6,2.26,2.41.94-1.89,1.88-3.78,2.75-5.52,1.03,1.31,2.34,2.99,4.05,5.17,1.11-2.59,1.76-4.09,2.51-5.83,1.48,2.7,2.74,5,4.51,8.24,1.19-3.62,1.86-5.64,2.59-7.85q5.79,4.37,10.48-1.82c2.19,1.93,4.45,3.45,6.93.09.38-.52,3.7.03,4.29.96,2.43,3.81,4.49,2.53,6.78.11,3.47,0,6.98.33,10.4-.1,8.91-1.11,17.79-2.56,26.67-3.88.85.35,1.69.7,2.53,1.04.43-1.79.8-3.3,1.09-4.52,2,1.31,4.37,3.63,5.12,3.19,1.83-1.07,2.91-3.42,4.47-5.5,3.14,3.31,5.72,1.81,7.71-2.03,3.37,3.84,10.63,2.75,14.6-2.02,1.82.62,4.05,2.22,5.24,1.65,3.65-1.75,5.31-.19,6.93,2.67.47.82,1.54,1.29,2.77,2.26.67-2.71,1.17-4.72,1.67-6.73,4.97-.98,9.94-1.96,14.91-2.94-.09.65-.18,1.29-.27,1.94-.98,2.76-1.95,5.51-2.93,8.27-13,2.36-25.97,4.93-39.02,7.03-17.15,2.76-34.3,5.64-51.55,7.59-19.68,2.22-39.45,3.84-59.22,5.02-15.23.92-30.58,1.68-45.79.88-24.61-1.3-48.76-6.19-72.49-12.87-34.26-9.65-67.3-22.43-98.91-38.83,0,0,.18-.19.18-.19,4.66,1.08,1.9-3.46,2.42-3.86,3.55.27,5.89.44,8.46.64-.3,3.92,1.44,5.86,5.77,5.4,1.1-.12,2.49.9,3.5,1.7,3.23,2.53,6.35,5.21,9.51,7.83.56-.42,1.13-.84,1.69-1.26-.52-2.1-1.05-4.21-1.57-6.31,5.69,1.99,11.37,4.02,17.09,5.94,3.25,1.1,6.57,2.03,9.85,3.03-.26,2.29-.52,4.58-.82,7.22,4.29-.61,8.51-2.91,10.49,2.56,2.7-1.26,5.67,7.99,8.1-.89,2.97,6.49,6.37,1.61,9.73.83.58,1.62,1.09,3.04,1.15,3.21,2.63.8,4.17,1.29,5.72,1.74,2.63.77,5.24,1.66,7.92,2.15.61.11,1.49-1.18,2.24-1.82Z"/>
  <path class="cls-20" d="m2.21,371.17c8.7,3.18,17.47,6.18,26.09,9.57,44.92,17.68,89.79,35.47,134.7,53.18,1.67.66,3.52.86,5.29,1.28-.31,5.36-.63,10.72-.95,16.08-14.21-5.68-28.42-11.34-42.62-17.04-24.07-9.68-48.14-19.33-72.17-29.1-15.95-6.48-31.84-13.11-47.72-19.77-5.16-2.16-6.44-9.59-2.62-14.2Z"/>
  <path class="cls-8" d="m190.55,37.25c.74,6.65,2.76,13.17,4.23,19.74-1,1.48-2.1,2.9-2.99,4.45-4.44,7.76-9.01,15.46-13.15,23.37-2.32,4.44-5.1,7.01-10.33,5.41-4.01-2.65-8.02-5.3-12.03-7.95.35-.88,1.01-1.77,1-2.65-.28-22.03-.61-44.06-1.01-66.08-.02-.86-.79-1.7-1.21-2.55,1.4-2.3,2.81-4.59,4.21-6.89,1.33,1.62,2.63,4.6,3.98,4.63,4.86.1,9.79-.58,14.58-1.52,1.05-.21,1.66-2.7,2.47-4.14,1.66,2.75,4.12,5.33,4.79,8.3"/>
  <path class="cls-5" d="m167.34,451.28c.32-5.36.63-10.72.95-16.08.35,0,.7,0,1.06,0,4.31,3.78,9.08,2.26,13.46.61,16.48-6.18,32.86-12.65,49.27-19.02,32.98-12.79,65.96-25.59,98.93-38.4.88-.34,1.64-.98,2.46-1.48.27,4.04.84,8.11.59,12.12-.07,1.07-2.56,2.28-4.14,2.93-35.31,14.42-70.64,28.81-106,43.1-14.71,5.94-29.4,11.98-44.36,17.22-3.52,1.23-8.11-.58-12.2-1Z"/>
  <path class="cls-7" d="m792.74,378.99c-13.63,5.17-27.33,10.19-40.87,15.62-4.21,1.69-6.37.74-8.91-2.85-9-12.68-18.38-25.09-27.62-37.61-.29-2.07-.59-4.14-.88-6.2,11.87,4.48,23.76,8.91,35.61,13.45,12.44,4.77,24.86,9.62,37.24,14.53,1.91.76,3.62,2.03,5.42,3.07Z"/>
  <path class="cls-11" d="m168.31,90.23c5.24,1.6,8.01-.97,10.33-5.41,4.14-7.92,8.71-15.61,13.15-23.37.89-1.55,1.99-2.97,2.99-4.45,1.16,4.09,2.32,8.19,3.49,12.28-1.73-.23-3.42-.45-2.87,2.27.1.52-.05,1.19-.32,1.66-1.54,2.67-3.7,5.14-4.55,8.01-.58,1.97.39,4.69,3.8,3.95-.44,1.57-.61,3.29-1.36,4.7-8.82,16.49-19.8,31.39-33.84,43.81-2.57,2.27-6.54,2.97-9.86,4.39.39-.94.73-2.67,1.17-2.7,5.75-.32,3.56-4.11,2.44-7.55-.8,1.38-1.6,2.75-2.34,4.03-4.82-.86-7,2.55-9.25,5.8-4.74-3.13-7.08-2.14-9.3,3.98-.95-1.23-1.86-2.4-3.14-4.06-.97,2.29-1.68,3.98-2.39,5.68-1.28.33-2.56.65-3.84.98,1.26-3.7,2.52-7.4,3.78-11.09,2.25-.47,4.62-.64,6.74-1.45,13.49-5.1,21.5-16.68,30.99-26.51.34-.35.08-1.27.1-1.93.73-.75,1.46-1.5,2.2-2.26,2.22-2.49,4.44-4.97,6.17-6.91-2.07-1.81-3.2-2.79-4.33-3.77l.05-.07Z"/>
  <path class="cls-17" d="m624.49,113.21c6.13-3.11,12.31-6.12,18.39-9.34,6.56-3.47,13.03-7.13,19.54-10.71-.3,3.99-.6,7.99-.9,11.98-3.06,1.7-6.12,3.39-9.18,5.09-1.53.35-3.06.69-4.32.98.79,1.92,1.42,3.45,1.55,3.76,3.86,1.19,8.75,1.4,9.38,3.14,1.97,5.47,3.98,2.64,6.35.98.65.38,1.3.75,1.95,1.13.31,2.37.62,4.73.93,7.1-6.69-1.8-13.71-2.83-19.98-5.58-8.13-3.56-14.61-2.37-21.94,2.31-14.92,9.53-30.42,18.15-45.68,27.15-.74-1.32-2.16-2.69-2.08-3.97.14-2.37,1.16-4.69,1.81-7.03,1.72-.68,3.43-1.36,5.15-2.04,8.94,3.64,7.77-4.64,10.04-8.82,1.38,1.23,2.59,2.3,3.37,2.99,2.82-3.23,5.24-6.01,7.71-8.83,1.1.61,2.15,1.2,2.76,1.54,2.52-1.96,5.68-5.52,6.66-4.99,2.82,1.51,4.1.85,5.45-1.35,1.09-1.78,2.04-3.66,3.06-5.49Z"/>
  <path class="cls-3" d="m164.22,103.24c-.02.66.24,1.58-.1,1.93-9.48,9.83-17.5,21.41-30.99,26.51-2.13.8-4.49.98-6.74,1.45,2.85-12.41,5.72-24.81,8.55-37.22.59-2.56,1.05-5.15,1.58-7.73,2.28,1.53,4.75,2.83,6.79,4.62,6.08,5.33,13.22,8.4,20.91,10.44Z"/>
  <path class="cls-15" d="m149.27,138.06c3.32-1.42,7.29-2.12,9.86-4.39,14.03-12.42,25.01-27.32,33.84-43.81.75-1.41.92-3.12,1.36-4.7.4-2.29.8-4.57,1.15-6.58,1.46.28,2.47.48,3.67.71.14-1.95.25-3.56.36-5.18.93,2.41,1.86,4.81,2.79,7.22.35,3.12.12,5.77-3.36,7.41-1.64.77-3.04,2.62-3.91,4.31-1.57,3.04-2.66,6.33-3.26,10.4,1.63-1.63,3.26-3.26,5.29-5.29.29.7.78,1.86,1.26,3.03-.07.15-.14.29-.21.44.08-.14.16-.28.24-.41,2.26-.81,4.53-1.62,6.87-2.45-.32-2.11-.59-3.83-.94-6.11,3.38,1.69,6.25,3.14,9.13,4.58.01,3.62.03,7.24.04,10.87,0,0-.18.19-.18.19-1.58-.71-3.11-1.69-4.77-2.04-.99-.21-2.18.59-3.28.93-4.28.35-8.59,1.15-12.84.92-4.6-.25-7.13,1.65-9.66,5.28-11.4,16.36-25.19,30.01-44.88,35.98-5.16,1.57-10.69,1.94-16.05,2.87.28-2.66.56-5.33.83-7.99,1.28-.33,2.56-.65,3.84-.98.97,1.32,1.72,3.43,2.97,3.78,2.05.58,4.4.78,5.12-2.81.61-3.05,2.12-7.5,5.99-1.66.4.61,2.68.71,3.52.17,1.93-1.27,3.51-3.07,5.23-4.66Z"/>
  <path class="cls-14" d="m155.07,11c.42.85,1.19,1.69,1.21,2.55.4,22.03.73,44.05,1.01,66.08.01.88-.65,1.77-1,2.65-4.99-4.7-9.99-9.4-14.98-14.09,3.36-14.34,6.69-28.69,10.09-43.02,1.13-4.74,2.44-9.45,3.67-14.17Z"/>
  <path class="cls-21" d="m580.57,151.19c15.26-9,30.76-17.62,45.68-27.15,7.33-4.68,13.82-5.87,21.94-2.31,6.27,2.75,13.3,3.78,19.98,5.58,0,1.63,0,3.25,0,4.88-8.62-2.39-17.27-4.66-25.84-7.21-4.14-1.23-7.53-.68-11.27,1.67-15.18,9.53-30.54,18.78-45.92,27.99-1.61.96-3.74,1.05-5.63,1.55.35-1.67.69-3.33,1.04-5Z"/>
  <path class="cls-16" d="m647.76,32.91c.8,4.84,2.22,9.57,3.27,14.37.27,1.26.1,2.61.13,3.92-5.17-8.82-9.85-17.99-15.69-26.34-3.82-5.46-9.32-9.74-14.08-14.56,2.83-.05,5.76.36,8.45-.27,3.42-.81,8.02.17,9.39-4.8,1.65,3.51,3.78,6.89,4.79,10.57"/>
  <path class="cls-11" d="m595.39,88c9.05,2.65,18.09,5.3,27.14,7.96-2.09,1.31-4.24,2.52-6.25,3.94-8,5.62-14.95,4.65-21.08-2.89-.66-.81-1.83-1.2-2.76-1.79.98-2.4,1.97-4.81,2.95-7.21Z"/>
  <path class="cls-17" d="m164.22,103.24c-7.69-2.04-14.83-5.11-20.91-10.44-2.04-1.79-4.52-3.09-6.79-4.62-1.86-4.79-1.6-9.42,1.03-13.87,3.41,6.24,7.36,12.01,13.55,15.89,1.38,5.47,5.03-.73,6.99,1.3-.23,1.82-.45,3.58-.78,6.14,3.08-1.58,5.22-2.67,7.3-3.74.72,2.82,1.26,4.95,1.81,7.09-.73.75-1.46,1.5-2.2,2.26Z"/>
  <path class="cls-9" d="m592.43,95.22c.93.59,2.1.98,2.76,1.79,6.13,7.54,13.09,8.51,21.08,2.89,2.01-1.41,4.16-2.63,6.25-3.94,2.6.48,5.2.96,7.8,1.44-7.02,4.27-14.04,8.55-21.06,12.82-5.92-1.71-11.84-3.42-17.75-5.13.31-3.29.62-6.59.93-9.88Z"/>
  <path class="cls-11" d="m151.1,90.19c-6.18-3.87-10.14-9.65-13.55-15.89,1.25-2.04,2.5-4.08,3.75-6.12,4.99,4.7,9.99,9.4,14.98,14.09,4.01,2.65,8.02,5.3,12.03,7.95,0,0-.05.07-.05.07-2.01.09-4.02.19-6.62.31,1.47-6.98-5.54-1.03-6.82-4.5-1.24,1.36-2.47,2.72-3.71,4.08Z"/>
  <path class="cls-18" d="m639.24,5.24c-1.37,4.97-5.97,3.99-9.39,4.8-2.69.63-5.62.22-8.45.27-1.64-1.04-3.29-2.08-4.93-3.12,3.12-5.64,9.16-7.8,16.16-5.45,2.33.78,4.41,2.31,6.61,3.5Z"/>
  <path class="cls-18" d="m180.31,3.08c-.81,1.44-1.41,3.93-2.47,4.14-4.79.94-9.72,1.61-14.58,1.52-1.36-.03-2.66-3.01-3.98-4.63,5.24-5.07,13.68-5.48,21.03-1.02Z"/>
  <path class="cls-21" d="m591.51,105.09c5.92,1.71,11.84,3.42,17.75,5.13-2.29,1.36-4.58,2.71-6.87,4.07-3.93-1.05-7.86-2.09-11.78-3.14,0,0-.46.02-.46.02.15-.66.31-1.32.46-1.98.1-.1.31-.24.29-.3-.08-.24-.23-.45-.36-.68.32-1.04.64-2.08.96-3.12Z"/>
  <path class="cls-13" d="m652.33,110.23c3.06-1.7,6.12-3.39,9.18-5.09,1.54,2.1,3.63,4,4.49,6.35.98,2.7.87,5.79,1.24,8.72-.65-.38-1.3-.75-1.95-1.13-.07-3.8-1.4-6.71-5.26-7.78-.81.93-1.5,1.73-1.43,1.66-2.52-1.1-4.39-1.92-6.27-2.73Z"/>
  <path class="cls-2" d="m199.51,74.11c-.11,1.61-.23,3.23-.36,5.18-1.2-.23-2.21-.42-3.67-.71-.35,2-.75,4.29-1.15,6.58-3.41.74-4.38-1.99-3.8-3.95.85-2.86,3.01-5.33,4.55-8.01.27-.47.42-1.14.32-1.66-.55-2.72,1.14-2.5,2.87-2.27.41,1.61.83,3.23,1.24,4.84Z"/>
  <path class="cls-12" d="m585.45,138.16c-1.72.68-3.43,1.36-5.15,2.04-.11-.24-.13-.48-.05-.73.98-2.76,1.95-5.51,2.93-8.27.76,2.32,1.51,4.64,2.27,6.97Z"/>
  <path class="cls-6" d="m534.31,345.56c-.34.2-.68.41-1.01.61.34-.2.68-.41,1.01-.61Z"/>
  <path class="cls-14" d="m590.54,108.22c.13.22.28.44.36.68.02.06-.18.2-.29.3-.02-.32-.05-.65-.07-.97Z"/>
  <path class="cls-1" d="m314.7,136.19c-.75.65-1.63,1.94-2.24,1.82-2.68-.49-5.29-1.38-7.92-2.15-1.55-.45-3.09-.94-5.72-1.74-.06-.17-.57-1.59-1.15-3.21-3.36.77-6.76,5.65-9.73-.83-2.43,8.88-5.41-.37-8.1.89-1.98-5.47-6.2-3.17-10.49-2.56.3-2.63.56-4.92.82-7.22,1.88-3.48,3.29-2.44,4.7.54,4.12-6.18,3.97.5,5.29,1.9,1.43-1.24,3.66-3.39,3.8-3.25,3.05,2.77,8.67,3.6,7.16,10,.47-.03.94-.06,1.41-.08.62-1.59.92-3.45,1.96-4.69.93-1.11,3.21-2.51,3.97-2.09,2.23,1.21,3.89,3.41,5.98,4.93,1.59,1.15,3.49,2.58,5.27,2.6,3.78.04,3.94,2.87,4.98,5.15Z"/>
  <path class="cls-1" d="m585.45,138.16c-.76-2.32-1.51-4.64-2.27-6.97.09-.65.18-1.29.27-1.94,4.48-3.36,5.27-3.1,7.22,2.3,3-1.63,1.33-9.64,8.55-6.9,2.03-3.14,4-7.07,9.61-8.08,2.31-.42,4.01-4.22,6.46-7.03,1.42,1.8,2.56,3.25,3.76,4.76,1.48-.66,2.35-6.02,5.45-1.1-1.01,1.83-1.96,3.71-3.06,5.49-1.35,2.2-2.62,2.85-5.45,1.35-.99-.53-4.15,3.03-6.66,4.99-.61-.34-1.67-.93-2.76-1.54-2.47,2.83-4.89,5.6-7.71,8.83-.78-.69-1.98-1.76-3.37-2.99-2.27,4.18-1.1,12.46-10.04,8.82Z"/>
  <path class="cls-1" d="m387.17,149.26c-.5.64-1.1,1.88-1.5,1.82-6.55-.97-13.08-2.1-19.94-3.25-.48,1.13-1.21,2.84-2.52,5.92-2.33-3.19-4.09-5.58-5.75-7.86-.97,2.02-2.1,4.37-3.18,6.62-3.4-3.12-6-5.51-8.72-8.01q-6.87,2.34-7.4-3.31c.64-3.47,1.33-6.95,5.94-6.95.76,0,1.52.75,2.28,1.15-.57.58-1.1,1.22-1.73,1.72-1.21.95-2.49,1.82-3.63,3.54,5.15-.73,10.63-3.49,12.5,4.21,2.78-3.73,6.38-4.1,11.03-1.6,1.44.78,3.56,2.71,4.06-1.24.07-.55,3.3-.69,5.07-1.02.56,4.22,4.65,2.75,6.91,4.26,2.13,1.42,4.38,2.67,6.58,4Z"/>
  <path class="cls-25" d="m568.54,132.19c-.5,2.01-.99,4.01-1.67,6.73-1.23-.97-2.31-1.44-2.77-2.26-1.62-2.85-3.27-4.42-6.93-2.67-1.19.57-3.43-1.02-5.24-1.65-3.97,4.77-11.23,5.86-14.6,2.02-1.99,3.85-4.57,5.35-7.71,2.03-1.57,2.08-2.64,4.43-4.47,5.5-.75.44-3.12-1.88-5.12-3.19-.29,1.21-.66,2.72-1.09,4.52-.84-.35-1.69-.69-2.53-1.04.77-3.43,1.54-6.86,2.32-10.28.56.03,1.13.07,1.69.1,1.39,1.66,2.77,3.32,4.11,4.92.85-2.68,1.64-5.14,2.42-7.59,2.17,1.21,4.34,2.42,6.5,3.62,2.43-4.94,5.02-5.28,8.04-.86q3.55-3.62,6.36-.48c2.05-2.3,3.7-5.53,7.54-2.16.76.66,2.41.36,3.66.39,1.98.05,3.96.01,6.48.01-.11.21.2-.54.65-1.2.66-.97,1.26-2.11,2.19-2.7.39-.25,2.3.86,2.25,1.1-.23,1.17-.9,2.24-1.39,3.36-.25.58-.45,1.19-.67,1.79Z"/>
  <path class="cls-2" d="m479.32,146.15c-2.29,2.42-4.35,3.7-6.78-.11-.59-.93-3.91-1.48-4.29-.96-2.49,3.36-4.74,1.84-6.93-.09q-4.69,6.19-10.48,1.82c-.73,2.22-1.4,4.24-2.59,7.85-1.77-3.23-3.03-5.54-4.51-8.24-.75,1.75-1.39,3.24-2.51,5.83-1.71-2.18-3.02-3.86-4.05-5.17-.87,1.74-1.81,3.63-2.75,5.52-.75-.8-1.51-1.6-2.26-2.41.49-1.88.83-3.82,1.5-5.63,1.58-4.27,3.27-4.42,6.24-.7,3.81-5.04,4.61-5.03,7.47.2,4.28-5.06,6.05.87,8.78,1.95,1.6-2.81,3.21-5.64,4.82-8.46.49,0,.97,0,1.46,0,1,4.11,2.89,5.28,6.75,3.85,1.78-.66,4.35.85,6.91,1.46.35-1.21.98-3.37,1.79-6.19,4.84,2.93.43,6.65,1.43,9.49Z"/>
  <path class="cls-2" d="m213.45,108.09c-.01-3.62-.03-7.24-.04-10.87,1.12-.68,2.17-1.61,3.39-1.97,1.67-.49,3.48-.53,5.22-.77.35-.58.71-1.16,1.06-1.75,1.41,3.17,2.83,6.34,4.56,10.23,4.29-.67,7.47,2.74,10.59,6.27.37.33.74.65,1.11.98,0,0-.01-.01-.01-.01.18,1.99.73,3.36,3.03,1.83.28.12.57.19.87.2.52,2.1,1.05,4.21,1.57,6.31-.56.42-1.13.84-1.69,1.26-3.16-2.62-6.28-5.3-9.51-7.83-1.02-.8-2.4-1.82-3.5-1.7-4.34.46-6.07-1.48-5.77-5.4-2.56-.19-4.91-.37-8.46-.64-.52.4,2.24,4.94-2.42,3.86Z"/>
  <path class="cls-14" d="m590.61,111.15c3.93,1.05,7.86,2.09,11.78,3.14-4.65,2.98-9.3,5.96-15.31,9.81,1.45-5.32,2.49-9.13,3.53-12.95Z"/>
  <path class="cls-10" d="m242.36,112.03c-2.3,1.54-2.86.17-3.03-1.83,1.01.61,2.02,1.22,3.03,1.83Z"/>
  <path class="cls-10" d="m239.34,110.22c-.37-.33-.74-.65-1.11-.98.37.33.74.65,1.11.98Z"/>
  <path class="cls-2" d="m149.27,138.06c-1.72,1.59-3.3,3.39-5.23,4.66-.83.55-3.11.45-3.52-.17-3.86-5.85-5.38-1.39-5.99,1.66-.72,3.59-3.07,3.4-5.12,2.81-1.25-.36-2-2.46-2.97-3.78.71-1.69,1.43-3.39,2.39-5.68,1.28,1.66,2.19,2.83,3.14,4.06,2.21-6.12,4.56-7.11,9.3-3.98,2.25-3.24,4.43-6.65,9.25-5.8.74-1.27,1.54-2.65,2.34-4.03,1.12,3.43,3.31,7.23-2.44,7.55-.44.02-.78,1.76-1.17,2.7Z"/>
  <path class="cls-24" d="m151.1,90.19c1.24-1.36,2.47-2.72,3.71-4.08,1.27,3.47,8.29-2.48,6.82,4.5,2.61-.12,4.61-.21,6.62-.31,1.13.98,2.26,1.97,4.33,3.77-1.73,1.93-3.95,4.42-6.17,6.91-.54-2.14-1.09-4.28-1.81-7.09-2.08,1.07-4.21,2.16-7.3,3.74.32-2.55.55-4.32.78-6.14-1.96-2.03-5.61,4.17-6.99-1.3Z"/>
  <path class="cls-25" d="m652.33,110.23c1.87.82,3.75,1.63,6.27,2.73-.07.08.63-.73,1.43-1.66,3.86,1.07,5.19,3.98,5.26,7.78-2.37,1.66-4.38,4.49-6.35-.98-.63-1.74-5.52-1.95-9.38-3.14-.13-.31-.76-1.84-1.55-3.76,1.26-.28,2.79-.63,4.32-.98Z"/>
  <path class="cls-12" d="m198.35,101.21c-.08.14-.16.28-.24.41.07-.15.14-.29.21-.44,0,0,.03.03.03.03Z"/>
</svg>