<?xml version="1.0" encoding="UTF-8"?>
<svg id="Layer_2" data-name="Layer 2" xmlns="http://www.w3.org/2000/svg" xmlns:xlink="http://www.w3.org/1999/xlink" viewBox="0 0 496.47 290.23">
  <defs>
    <style>
      .cls-1, .cls-2 {
        fill: none;
      }

      .cls-3 {
        fill: #ebebeb;
      }

      .cls-4 {
        fill: #f28f8f;
      }

      .cls-5 {
        fill: #f0f0f0;
      }

      .cls-6 {
        fill: #f5f5f5;
      }

      .cls-7 {
        fill: #f0997a;
      }

      .cls-8 {
        fill: #ffa8a7;
      }

      .cls-9 {
        fill: #ffbda7;
      }

      .cls-10 {
        fill: #e0e0e0;
      }

      .cls-11 {
        fill: #b16668;
      }

      .cls-12 {
        fill: #37474f;
      }

      .cls-13 {
        fill: #455a64;
      }

      .cls-14 {
        fill: #263238;
      }

      .cls-15 {
        fill: #77bab6;
      }

      .cls-16, .cls-17, .cls-18 {
        fill: #fff;
      }

      .cls-16, .cls-17, .cls-18, .cls-19 {
        isolation: isolate;
      }

      .cls-16, .cls-19 {
        opacity: .2;
      }

      .cls-17 {
        opacity: .5;
      }

      .cls-18 {
        opacity: .1;
      }

      .cls-2 {
        clip-path: url(#clippath);
      }
    </style>
    <clipPath id="clippath">
      <rect class="cls-1" width="496.47" height="290.23"/>
    </clipPath>
  </defs>
  <g id="Layer_1-2" data-name="Layer 1">
    <g class="cls-2">
      <g id="freepik--City--inject-56">
        <polygon id="freepik--city--inject-56" class="cls-5" points="3.34 349.44 3.34 124.92 40.12 103.7 67.7 119.62 67.7 174.71 81.5 166.75 81.5 145.51 95.29 137.55 95.29 56.73 136.66 32.84 155.05 43.46 155.05 68.27 173.44 57.65 191.83 68.27 191.83 114.28 210.22 124.86 210.22 80.75 228.61 70.12 251.59 83.4 251.59 136.49 274.59 123.22 274.59 38.28 302.18 22.35 334.36 40.93 334.36 109.84 348.15 117.8 348.15 145.71 366.54 156.33 366.54 60.88 389.52 47.61 417.11 63.53 417.11 86.2 430.9 94.17 430.9 155.41 449.29 166.02 449.29 124.59 476.87 108.66 490.66 116.63 490.66 349.44 3.34 349.44"/>
      </g>
      <g id="freepik--Water--inject-56">
        <g id="freepik--water--inject-56">
          <ellipse class="cls-15" cx="247.01" cy="365.96" rx="249.46" ry="148.09"/>
          <ellipse class="cls-17" cx="247.01" cy="365.96" rx="249.46" ry="148.09"/>
          <path class="cls-16" d="m491.95,356.46c1.27-.25,2.62-.38,3.94-.53-.16-1.45-.36-2.89-.6-4.34-.45.41-.96.76-1.5,1.04-2.76,1.42-5.8,2.2-8.89,2.3-3.24.17-6.48-.28-9.74-.35-3.4-.03-6.79.24-10.14.8-4.24.68-8.72,1.79-10.8,4.02-2.93,3.16-.36,7.74-5.02,10.09-3.27,1.65-8.41,1.15-12.16-.12s-6.76-3.16-10.6-4.32c-3.33-.92-6.77-1.38-10.22-1.37-.45,0-.9.05-1.34.16-2.3.88-5.52.92-6.91-.44s-.24-3.53,1.15-4.89c2.05-1.96,5.65-3.24,9.46-3.85,3.89-.52,7.82-.64,11.73-.36,5.47.3,11.33.9,16.2-.55,1.96-.61,3.8-1.53,5.47-2.72,2.76-1.8,5.11-4.16,6.91-6.91,1.56-2.55,2.3-5.27,4.61-7.6,2.77-2.83,7.98-4.97,13.61-4.95s11.18,2.55,11.64,5.76c.39,2.72-2.45,5.82.4,8.07,1.37,1.05,3.81,1.6,5.47,2.45-1.22-5.92-3-11.7-5.31-17.28l-1.79-.68c-3.25.14-6.52-.07-9.72-.63-3.04-.7-5.76-2.25-5.95-4.15-.24-2.79,4.69-4.72,9.22-5.76.83-.2,1.67-.37,2.52-.53-.92-1.62-1.88-3.25-2.9-4.86h-.08c-3.56,1.86-7.25,3.47-11.03,4.83-3.3,1.51-4.61,4.33-2.95,6.58.36.42.68.89.93,1.38.6,1.94-3,3.3-5.63,4.53-3.98,1.87-6.56,4.69-6.98,7.64-.27,1.87.27,3.81-.91,5.54s-5.13,3.05-7.65,1.89c-2.94-1.36-.84-4.23-2.58-6.15-.75-.83-2.19-1.44-2.64-2.3-.63-1.26.81-2.49,2.06-3.55,2.67-2.3,4.86-4.84,4.95-7.56.14-3.7-3.51-7.05-7.22-10.05-.67-.45-1.23-1.05-1.64-1.75-.19-.67-.08-1.38.3-1.96,2.37-4.93,10.53-8.07,18.09-10.74,3.83-1.46,7.77-2.62,11.78-3.46-.88-1.03-1.76-2.04-2.67-3.04-7.76,1.07-15.29,3.4-22.28,6.91-1.81.85-3.47,2-4.91,3.4-2.1,2.3-2.43,5.1-5.57,6.91-4.26,2.45-11.3,1.79-17.16.94-1.23-.11-2.43-.42-3.55-.92-2.09-1.15-1.22-3.19.32-4.61,1.37-1.21,2.93-2.19,4.61-2.9,1.98-.88,4.29-1.53,6.13-2.51,3.46-1.86,4.97-4.84,3.77-7.49-.43-.94-1.18-1.69-2.11-2.13-1.15-.52-2.57-.74-3.77-1.22-1.96-.69-3.29-2.53-3.34-4.61-.14-2.85,1.38-5.95,5.5-7.5,4.44-1.67,10.57-1.08,15.12-2.63,1.58-.57,3.06-1.37,4.4-2.37-2.64-2-5.38-3.98-8.2-5.92-.32.72-.81,1.35-1.42,1.86-3.26,2.9-7.18,1.72-11.04,2.87-2.29.76-4.67,1.21-7.09,1.35-2.05.06-5.62-.2-7.2-1.73s-1.15-4.39-2.72-6.1c-1.45-1.47-3.12-2.7-4.95-3.65-1.94-1.08-4.1-2.11-5.12-3.55-.07-.1-.13-.2-.18-.3-.69-1.37-.58-3.02.29-4.29,1.48-2.21,3.31-4.16,5.43-5.76-1.5-.71-3.01-1.4-4.53-2.07-2.73,1.65-5.76,3.19-7.56,5.21-1.98,1.97-2.26,5.07-.67,7.36,1.74,2.58,5.43,4.54,8.57,6.63s6.01,4.69,5.48,7.45c-.35,1.26-1.05,2.39-2.02,3.26-3.01,2.92-6.83,4.88-10.97,5.61-4.72.93-10.37.47-13.98-1.54-1.23-.69-2.19-1.52-3.32-2.3-3.77-2.52-9.55-3.98-15.31-3.87-5.76.1-11.36,1.81-14.82,4.47-2.13,1.62-2.7,3.79-4.72,5.47s-5.18,1.15-8.07,1.06c-.62.04-1.25-.05-1.83-.28-1.04-.5-.55-1.46.16-2.13,5.38-5.06,18.14-7.06,20.8-12.8.9-1.96.44-4.08,1.84-5.92,1.66-2.19,5.54-3.46,8.98-4.84s6.91-3.21,6.98-5.61c.09-2.86-4.61-5.01-5.76-7.78-1.27-3.02,1.94-6.07,5.67-8.3,1.07-.63,2.2-1.24,3.39-1.81-1.94-.65-3.89-1.29-5.85-1.91-.52.35-1.08.67-1.64.99l-8.85,4.98c-1.15.49-2.13,1.28-2.85,2.3-1,2.3,3.28,4.1,5.42,6.13,1.68,1.35,2.02,3.77.8,5.54-1.39,1.78-3.17,3.21-5.2,4.19-3.68,1.59-7.74,2.12-11.71,1.54-3.46-.69-6.61-2.03-10.24-1.91-1.91,0-3.98.5-5.62-.06-2.49-.85-1.65-3.01-2.2-4.61s-3.01-3.08-4.01-4.74c-1.36-2.3.3-4.98,3.12-6.83,2.82-1.86,6.67-3.05,10.43-4.23,3.76-1.18,7.58-2.4,10.37-4.25,1.86-1.23,3.24-2.72,5.09-3.94-2.49-.65-4.98-1.26-7.48-1.86-1.13,1.43-2.59,2.58-4.25,3.33-3.03,1.54-6.73,2.58-10.01,3.94-3.33,1.31-6.41,3.18-9.1,5.54-2.06,1.84-3.62,3.98-3.55,6.18.07,2.74,2.62,5.27,3.36,7.96s-.52,5.86-3.46,8.16c-3.01,2.22-6.76,3.17-10.46,2.65-5.76-.98-7.98-4.93-11.37-7.79-.17-.21-.32-.45-.43-.7-1.54-2.34-2.17-5.16-1.79-7.93.28-1.88.94-4.01-1.15-5.47-.66-.35-1.29-.75-1.88-1.21-1.33-1.41,1.15-3.08,3.76-3.61s5.61-.48,7.94-1.35c3.38-1.24,4.14-3.94,3.55-6.22-.47-1.05-.64-2.2-.5-3.34.43-1.53,2.4-2.75,4.46-3.73,1.8-.84,3.65-1.55,5.55-2.13-2.51-.39-5.03-.78-7.55-1.15-1.24.97-2.6,1.79-4.03,2.44-1.85.77-3.91.86-5.82.25-1.47-.51-2.26-2.12-1.75-3.59,0-.03.02-.06.03-.09,0-.13.07-.27.12-.4l-5.44-.5c.08.21.14.43.17.66.39,2.73-2.45,5.83.4,8.07,1.97,1.51,6.16,1.99,7.05,3.81.59,1.27-.74,2.56-2.37,3.46-2.76,1.41-5.8,2.19-8.89,2.3-3.24.17-6.49-.28-9.74-.33-3.4-.03-6.8.24-10.15.8-4.23.67-8.71,1.77-10.78,4.02-2.93,3.15-.37,7.74-5.04,10.08-3.27,1.66-8.41,1.15-12.14-.1s-6.76-3.16-10.6-4.33c-3.33-.91-6.77-1.36-10.22-1.36-.45,0-.9.05-1.34.16-2.3.86-5.52.91-6.91-.45s-.25-3.53,1.15-4.89c2.04-1.96,5.65-3.23,9.45-3.84,3.89-.52,7.82-.65,11.74-.37,5.48.3,11.33.91,16.2-.55,1.96-.61,3.81-1.53,5.47-2.72,2.76-1.8,5.11-4.15,6.91-6.91,1.56-2.53,2.3-5.27,4.61-7.6.49-.49,1.02-.94,1.59-1.35-2.68-.09-5.37-.17-8.07-.22-1.05,1.13-1.76,2.53-2.04,4.04-.25,1.86.28,3.81-.91,5.54s-5.13,3.04-7.65,1.89c-2.93-1.36-.84-4.23-2.57-6.15-.75-.83-2.19-1.44-2.65-2.3s.39-2.06,1.43-3c-3.36.06-6.73.16-10.09.29-.15,1.89.61,3.74,2.04,4.99,1.07,1.03,2.51,1.94,3.12,3.09,1.15,2.24-1.36,4.68-4.83,5.88s-7.64,1.45-11.66,1.71-8.2.52-11.64,1.76c-2.84,1.1-5.43,2.78-7.59,4.93-1.5,1.36-3.02,2.8-3.26,4.4s.71,3.03.32,4.53-2.2,2.87-4.23,3.92c-2.63,1.37-5.46,2.32-8.38,2.82,0,0-1.26.23-1.62.36-.73.23-2.3.53-3.64.81-6.45,1.34-10.92,2.63-17.66,1.91-3.65-.39-7.37-1.42-9.09-3.33-.98-1.08-1.35-2.58-.98-3.99,1.15-5.76,9.47-10.01,17.18-13.7,6.77-3.27,13.56-6.53,20.35-9.77,4.82-2.3,9.91-4.91,12.47-8.07-2.3.25-4.58.52-6.83.81-.48.37-1.02.66-1.59.86-3.88,1.23-7.98,1.64-12.03,1.21l-.82-.1c-3.12.52-6.22,1.06-9.31,1.66,2.73.47,5.76.66,6.69,2.11.66.98-.14,2.09-1.09,3.01-5.37,5.15-15.58,7.82-23.36,11.8-2.72,1.41-5.24,3.08-6.07,5.12-.51,1.23-.36,2.55-.81,3.78-.64,1.6-2.13,2.71-3.85,2.87-3.11.45-5.76-1.29-8.2-2.47-4.76-2.3-11.35-2.82-16.61-4.69-2.69-.9-5.17-2.35-7.26-4.27-2.11.83-4.19,1.68-6.28,2.55,2.14,1.26,4.4,2.29,6.76,3.06,2.64.86,5.89,1.87,5.99,3.61s-3.25,2.89-5.62,4.06c-4.75,2.3-6.54,6.44-4.33,9.79.99,1.46,2.67,2.8,2.95,4.37s-.96,3.15-2.74,4.36c-1.45.98-3.1,1.41-4.61,2.3-1.56.94-3.18,1.76-4.85,2.47-3.39,1.35-6.94,2.28-10.55,2.75-6.63.93-13.37.39-19.98.75-4.75.31-9.5-.68-13.72-2.88-1.55-.83-2.88-2.02-3.89-3.46-2.69,2.07-5.27,4.18-7.73,6.33.26,1.34.11,2.73-.44,3.98-1.56,3.57-5.55,6.6-9.54,9.48-3.2,2.3-6.53,4.61-8.07,7.49s-.76,6.28,3.18,8.16c2.74,1.11,5.66,1.69,8.61,1.72,3.63.2,7.27.1,10.89-.3,3.8-.43,7.75-1.15,11.42-.46,4.36.84,6.91,3.64,6.83,6.29s-2.43,5.13-5.35,7.17c-1.96,1.41-4.11,2.53-6.39,3.32-6.02,1.86-12.49,1.74-18.44-.35-4.61-1.74-7.55-4.61-12.1-6.39-3.88-1.31-7.92-2.06-12.01-2.24-.51.92-.99,1.86-1.47,2.79,7.21.48,14.31,2.4,18.3,5.85,4.4,3.83,3.79,9.64-2.55,12.43-2.87,1.13-5.92,1.75-9,1.84-4.74.26-9.48-.34-14.01-1.75-.52,1.81-.96,3.62-1.35,5.43.25.36.54.7.85,1.01,3.46,3.33,12.82,3.87,14.74,7.6,1.46,2.89-2.85,5.76-7.54,7.11-3.26.93-6.91,1.49-10.15,2.3,0,1.71,0,3.46.07,5.12.81-.94,1.89-1.6,3.09-1.91,1.92-.65,4.51-1.29,6.37-1.99,2.64-.96,6.36-3.27,9.11-4.18,1.94-.53,3.94-.86,5.95-1,2.36-.03,4.71.3,6.97.98,1.46.3,2.84.9,4.04,1.77,1.96,1.69.7,3.94-.51,5.86s-2.3,4.21-.14,5.82c1.51,1.15,4.16,1.47,6.61,1.52s4.93-.16,7.34.09c5.57.59,9.67,3.76,10.13,7.02s-2.18,6.48-6.04,8.87-8.88,4.07-13.98,5.52c-4.74,1.35-10.37,2.53-15.12,1.22s-7.07-4.67-12.04-5.48c-2.39-.4-5.29-.21-7.58-.58.45,1.43.92,2.86,1.45,4.29,1.29.18,2.57.48,3.81.89,3.73,1.26,6.75,3.16,10.59,4.32,3.33.92,6.77,1.38,10.22,1.37.45,0,.9-.05,1.34-.16,2.3-.88,5.52-.91,6.91.44s.24,3.54-1.15,4.9c-2.06,1.95-5.66,3.23-9.47,3.84-3.89.52-7.82.64-11.73.36l-3.17-.18c.91,1.59,1.84,3.18,2.85,4.76,3.11-.61,6.27-.98,9.44-1.09,4.02-.25,8.2-.53,11.64-1.76,2.84-1.11,5.42-2.8,7.59-4.94,1.5-1.36,3.02-2.79,3.26-4.39s-.73-3.04-.32-4.53,2.2-2.87,4.23-3.93c2.66-1.35,5.5-2.29,8.45-2.78,0,0,1.26-.23,1.62-.36.73-.23,2.3-.53,3.64-.81,6.44-1.34,10.92-2.63,17.65-1.91,3.66.39,7.39,1.42,9.11,3.33.98,1.08,1.34,2.58.96,3.99-1.15,5.76-9.46,10-17.16,13.71-6.8,3.25-13.58,6.51-20.36,9.77-6.22,2.98-12.89,6.41-14,11.04-.86,3.58,1.84,7.34,0,10.77-.45.78-1.04,1.46-1.75,2.02,1.22,1.12,2.47,2.23,3.74,3.33.68-.58,1.27-1.25,1.77-1.99,1.36-2.2,1.36-4.95,1.28-7.47-.08-2.74-.2-5.67,1.15-8.07.86-1.47,2.19-2.61,3.77-3.25,3.84-1.27,7.9-1.73,11.93-1.36,1.23.09,2.45.32,3.63.68,3.57,1.29,3.25,4.42,1.23,6.56s-5.27,3.88-6.53,6.2-.46,4.61,1.29,6.6c2.1,2.17,4.56,3.97,7.27,5.32,1.12.49,2.12,1.2,2.95,2.1.52.84.58,1.88.16,2.78-1.06,2.8-4.03,5.2-7.22,7.39l-1.01.66c1.37.9,2.76,1.79,4.18,2.66,3.18-1.95,5.92-4.53,8.07-7.58.76-1.39,1.65-2.7,2.66-3.92,1.3-1.19,2.81-2.13,4.46-2.75,4.29-1.88,8.91-3.38,13.57-3.02.39,0,.76.13,1.06.38.19.25.3.55.31.86.4,3.38-.82,6.74-3.3,9.08-2.24,2.07-5.22,3.09-8.07,4.04-4.82,1.53-9.52,3.43-14.05,5.69,1.34.77,2.68,1.54,4.04,2.3,1.48-.75,3.03-1.38,4.61-1.89,5.27-1.73,11.28-2.92,15.31-5.52,4.61-3,5.76-7.24,7.26-11.15,1.64-4.86,5.6-8.59,10.55-9.93,2.07-.6,4.92-.77,6.39.27,1.22.84.9,2.13,0,3.11s-2.19,1.8-2.95,2.81c-.38.38-.51.94-.33,1.44.44.9,2.3,1.3,3.98,1.29,1.63-.14,3.27-.2,4.91-.17,3.81.3,7.83-.65,10.7.84,1.7.72,2.66,2.54,2.3,4.36-.55,1.67-1.48,3.19-2.72,4.44-2.6,3.15-5.18,6.27-7.8,9.4-1.87,2.3-4.33,4.78-8.6,5.21-4.07.41-8.24-1.3-12.17-.61-2.43.38-4.56,1.81-5.84,3.91-.68,1.33-1.45,2.61-2.3,3.83l3.62,1.54c1.23-1.41,1.94-3.01,3.46-4.31,2.12-1.79,5.18-1.15,8.07-1.07.63-.04,1.26.06,1.84.28,1.03.5.54,1.47-.17,2.13-2.09,1.96-5.28,3.46-8.56,4.9,1.53.62,3.06,1.22,4.61,1.81,1.99-.89,4.06-1.74,5.99-2.67,8.51-4.1,14.71-9.78,17.47-15.97.64-1.73,1.41-3.41,2.3-5.02,1.08-1.61,2.5-2.97,4.16-3.98,2.57-1.59,5.52-2.48,8.54-2.58,3.31-.08,6.81,1.07,7.73,2.89,1.71,3.38-5.25,6.3-5.3,9.81,0,2.6,3.78,5.18,1.96,7.56s-8.79,2.66-11.04,5.12c-1.45,1.57-.43,3.54,1.26,5.04s4.01,2.72,5.46,4.29,3.15,4.33,2.14,5.66c-.68.58-1.57.84-2.45.71-4.49-.33-6.91-4.16-11.43-3.99-1.35.09-2.67.4-3.91.93,7.95,2.37,16.13,4.49,24.35,6.34,0-.27-.08-.52-.13-.78-.45-2.81-.96-5.76-3.34-8.19-1.04-1.05-2.37-1.99-3.35-3.05-1.46-1.62-2.51-2.63-2.06-4.42.14-.29.31-.57.48-.84,1.76-2.04,5.76-3.38,9.67-3.65s8.22.85,10.01,2.89c.78.97,1.27,2.13,1.43,3.35.4,1.84.81,3.68,1.15,5.51.35,2.62,1.38,5.11,2.98,7.21,2.51,2.7,5.97,4.3,9.64,4.48,2.44.18,5.55,0,6.79,1.22.68.68.43,1.42-.18,2.13,8.26,1.09,16.6,1.95,24.98,2.53-1.61-1-3.39-1.69-5.25-2.03-3.55-.6-8.22.12-10.37-1.64-1.23-1.01-.83-2.44.21-3.54s2.65-1.98,3.87-3.01c3.88-3.31,3.27-8.07-1.42-11.06-1.83-1.15-4.32-2.19-4.47-3.73-.13-1.28,1.51-2.43,3.46-3.05s4.51-1.29,6.37-1.98c2.65-.96,6.37-3.28,9.13-4.18,1.94-.54,3.93-.88,5.95-1.01,2.36-.03,4.71.31,6.97.99,1.45.3,2.83.9,4.03,1.76,1.96,1.69.71,3.95-.51,5.86s-2.3,4.21-.14,5.76c1.51,1.15,4.16,1.49,6.61,1.52s4.93-.16,7.34.09c5.57.59,9.67,3.76,10.13,7.03s-2.18,6.48-6.04,8.87c-3.14,1.83-6.49,3.27-9.98,4.31h9.87c2.32-1.07,4.76-1.84,7.27-2.3,0,0,1.26-.24,1.64-.37.71-.23,2.3-.53,3.63-.81,6.45-1.34,10.92-2.63,17.66-1.91,3.46.37,6.91,1.3,8.7,2.97,3.15-.35,6.29-.71,9.41-1.15-1.24-.41-2.44-.88-3.59-1.38-3.46-1.47-6.68-3.33-10.88-3.84-5.21-.63-10.43.96-15.73,1.15-1.33.16-2.67-.09-3.86-.71-.45-.37-.72-.92-.74-1.5l-1-6.5c-.4-1.27-.16-2.65.66-3.7.97-1.07,2.87-1.73,4.61-2.4,9.97-3.77,18.16-9.09,23.45-15.24,1.21-1.71,2.83-3.1,4.71-4.03,2.3-.98,6.05-1.03,7.54.36,1.15,1.08.62,2.66,1.33,3.91.92,1.62,2.42,1.47,3.98,1.15,4.17-.91,8.24-2.3,12.34-3.46,4.46-1.29,9.15-2.77,13.83-2.37,4.08.35,8.35,1.04,11,2.85,3.16,2.15,3.1,5.43,1.06,7.98s-5.76,4.54-9.52,6.34c-3.76,1.8-7.74,3.46-10.68,5.76-2.48,1.9-4.1,4.54-2.05,6.6.93.96,2.53,1.61,3.62,2.51.42.33.77.74,1.03,1.21,2-.44,4-.89,5.98-1.35-.14-.41-.33-.79-.56-1.15-.99-1.47-2.66-2.81-2.94-4.38s.94-3.15,2.73-4.36c1.46-.98,3.1-1.39,4.61-2.3,1.56-.94,3.18-1.76,4.86-2.45,3.39-1.36,6.93-2.29,10.54-2.77,6.64-.92,13.37-.39,19.98-.74,4.01-.23,8.01.42,11.74,1.9,4.88-2.01,9.66-4.15,14.34-6.41,1.71-3.33,5.47-6.2,9.22-8.93,3.2-2.3,6.53-4.61,8.07-7.48s.76-6.28-3.19-8.16c-2.74-1.11-5.66-1.7-8.61-1.73-3.63-.2-7.27-.09-10.89.31-3.8.41-7.74,1.15-11.42.46-4.36-.85-6.91-3.65-6.83-6.3s2.44-5.12,5.35-7.16c1.99-1.43,4.18-2.55,6.5-3.33,6.02-1.86,12.48-1.74,18.44.35,4.61,1.75,7.56,4.61,12.11,6.41,7.98,3.05,18.7,1.97,27.84,3.66.77.12,1.52.35,2.24.67,1.15-1,2.3-2.02,3.46-3.03-4.74-2.22-11.65-1.61-17.77-1.76-7.95-.2-16.13-2.13-20.57-5.96s-3.79-9.64,2.55-12.42c2.87-1.14,5.91-1.77,9-1.86,5.16-.26,10.31.5,15.17,2.25,2.83,1.05,5.36,2.47,8.58,3.06,5.03.8,10.19-.16,14.6-2.71,3.73-2.25,5.9-5.17,8.01-8.07.96-1.54,2.62-2.51,4.44-2.6.43-.02.85.03,1.27.13,3.18-5.14,5.93-10.54,8.22-16.13-1.04.24-2.1.39-3.17.46-3.94.27-8.22-.84-10.01-2.87-.77-.97-1.26-2.14-1.43-3.36-.4-1.84-.81-3.69-1.21-5.51-.35-2.62-1.38-5.11-2.97-7.22-2.51-2.68-5.97-4.29-9.64-4.47-2.45-.18-5.55,0-6.79-1.22s.65-2.7,2.14-3.85c2.23-1.58,3.93-3.79,4.89-6.35.53-1.54.63-3.18,1.72-4.61,1.61-2.2,5.52-3.8,9.68-3.93s8.35,1.15,10.37,3.25c1.3,1.48,2.07,3.35,2.2,5.32.81,4.91,1.59,9.79,2.4,14.7.46,2.81.96,5.76,3.35,8.19.56.56,1.21,1.15,1.86,1.66.43-1.49.81-2.98,1.15-4.47-.34-.69-.31-1.5.08-2.17.13-.17.3-.31.5-.39.43-2.14.78-4.27,1.06-6.42-.73-.76-1.5-1.48-2.3-2.15-.17-.21-.32-.44-.43-.69-1.54-2.34-2.17-5.16-1.79-7.93.29-1.88.94-4.02-1.15-5.47-.66-.34-1.29-.75-1.87-1.22-1.23-1.39,1.21-3.06,3.84-3.59Zm-84.39,13.26c4.74-1.34,10.37-2.53,15.13-1.15s7.06,4.61,12.03,5.48c3.55.59,8.22-.13,10.37,1.61,1.24,1.03.83,2.45-.21,3.55-1.24,1.07-2.53,2.07-3.87,3.01-3.87,3.3-3.26,8.07,1.42,11.06,1.83,1.15,4.33,2.19,4.48,3.73.13,1.28-1.51,2.43-3.46,3.05s-4.51,1.29-6.37,1.98c-2.64.96-6.36,3.28-9.11,4.18-1.94.54-3.93.88-5.95,1-2.36.04-4.71-.29-6.97-.98-1.46-.3-2.84-.9-4.04-1.77-1.96-1.68-.7-3.94.51-5.86s2.3-4.21.15-5.82c-1.51-1.15-4.16-1.47-6.61-1.51s-4.93.15-7.34-.1c-5.58-.58-9.68-3.76-10.13-7.01s2.17-6.49,6.04-8.88c4.38-2.47,9.07-4.34,13.94-5.58h0Zm14.7-52.09c5.27.08,10.76,1.29,13.76,3.81.99.82,1.77,1.85,2.3,3.02.74,1.15.74,2.62,0,3.77-.84.88-1.79,1.65-2.82,2.3-3.62,2.74-4.01,6.79-.91,9.74,1.06,1.03,2.51,1.95,3.11,3.09,1.15,2.24-1.35,4.68-4.82,5.88s-7.65,1.45-11.67,1.71-8.19.53-11.64,1.76c-2.84,1.11-5.42,2.8-7.59,4.94-1.5,1.36-3.02,2.79-3.25,4.4s.71,3.03.31,4.53-2.2,2.86-4.23,3.92c-3.13,1.61-4.34,1.86-8.38,2.81,0,0-1.26.23-1.62.36-.71.24-2.3.53-3.64.81-6.44,1.34-10.92,2.63-17.65,1.91-3.65-.39-7.39-1.41-9.1-3.32-.98-1.08-1.34-2.59-.97-4,1.15-5.76,9.46-10,17.17-13.7l20.36-9.77c6.21-3,12.89-6.42,14-11.05.86-3.58-1.84-7.34,0-10.77,2.2-4.08,10.04-6.28,17.28-6.14Zm-284.98,73.74c-.9-2.77-4.52-4.45-4.36-7.34.12-1.86,1.79-3.2,3.46-3.98,4.03-1.88,8.95-1.99,12.27-4.95.99-1.11,2.06-2.15,3.18-3.12,1.29-.8,2.73-1.32,4.23-1.53,9.45-1.89,19.2-1.65,28.55.7,3.27.83,6.91,2.3,8,5.52.6,2.02.24,4.2-.97,5.92-1.2,1.7-2.78,3.1-4.61,4.1-6.34,3.77-14.52,5.14-18.87,11.1-1.58,2.17-2.49,4.77-4.21,6.82-5.76,6.91-19.24,7.63-25.24.75-1.45-1.48-2.33-3.42-2.51-5.48-.07-2.98,1.97-5.84,1.08-8.6v.09Zm49.54-75.55c.46.43.85.94,1.15,1.5.37,1.04-.63,2.11-2.02,2.82-1.5.66-3.04,1.22-4.61,1.68-5.68,1.99-9.6,5.55-10.28,9.37l-.23,1.15c-1.44,2.86-3.77,5.18-6.63,6.63-3.83,1.91-8.16,2.61-12.4,2.02-5.85-.92-9.49-4.61-9.6-8.07.13-1.63.37-3.26.7-4.86.18-1.58,0-3.19-.55-4.69-.35-1.15-1.2-2.09-2.3-2.57-2.04-.85-4.92-.41-7.13.28-2.48.77-5,2.57-7.54,2.94-2.9.4-5.92-.29-8.84-.23-2.63.08-5.24-.4-7.67-1.41-4.03-1.86-7.48-7.55-5.45-11.94,1.67-3.57,6.35-4.74,9.76-5.76,6.11-1.94,12.46-3.01,18.87-3.18,2.06.05,4.12-.08,6.15-.38,1.59-.46,3.22-.8,4.86-1,2.56.04,5.05.88,7.11,2.4l6.68,4.25c4.22,2.65,9.57,5.57,15.73,4.95,3.05-.35,5.95-1.47,8.45-3.25.82-.63,1.73-1.13,2.71-1.47,1.13-.39,2.37-.33,3.46.16,1.36.84.13,2.18-.68,3.24-1.26,1.6-1.14,3.88.28,5.33v.09Zm182.92,25.35c2.94,1.44,8.53.93,9.89,3,.65.99-.15,2.1-1.15,3.02-5.37,5.14-15.58,7.81-23.35,11.8-2.72,1.41-5.24,3.08-6.07,5.12-.5,1.23-.36,2.53-.81,3.78-.65,1.6-2.13,2.7-3.85,2.86-3.11.46-5.76-1.29-8.19-2.47-4.77-2.3-11.36-2.81-16.63-4.68-4.49-1.6-10.93-5.28-9.33-10.93.92-3.23,2.68-4.53,6-4.76,2.9-.21,5.69.75,8.62.81,2.99,0,5.93-.79,8.51-2.3,10.95-6.42,7.1-18.18,18.34-24.43,2.55-1.32,5.26-2.32,8.07-2.96,3.73-.96,8.41-1.54,11.72-.15,1.92.62,3.24,2.39,3.3,4.4-.22,1.75-.87,3.41-1.89,4.84l-3.92,6.6c-1.27,2.11-2.29,4.9.74,6.39v.07Zm-62.86,35.6c.9,2.77,4.52,4.45,4.36,7.35-.12,1.84-1.77,3.19-3.46,3.98-4.03,1.88-8.96,1.98-12.28,4.95-1,1.1-2.06,2.14-3.18,3.11-1.29.8-2.73,1.32-4.23,1.53-9.45,1.89-19.2,1.65-28.55-.7-3.27-.83-6.91-2.3-8-5.51-.58-2.02-.22-4.2.98-5.93,1.21-1.7,2.78-3.1,4.61-4.1,6.34-3.77,14.52-5.14,18.87-11.1,1.58-2.17,2.49-4.77,4.21-6.82,5.76-6.91,19.24-7.62,25.24-.75,1.45,1.48,2.34,3.42,2.52,5.48.05,2.82-1.99,5.69-1.11,8.43v.07Zm27.07-39.55c-1.78,2-4.12,3.42-6.71,4.09-2.76.86-5.6,1.45-8.48,1.75-2.3.28-4.72.41-7.05.88-6.2,1.22-11.52,4.75-17.28,7.04-5.2,2.06-11,1.74-16.56,1.08-7.96-.93-20.27-1.61-26.64-7.17-.33-.26-.59-.61-.74-1-.09-.49.01-.99.28-1.41,1.16-1.93,3.08-3.29,5.29-3.74,2.18-.43,4.4-.67,6.63-.71,5.23-.38,11.74-1.28,15.79-4.77,3.36-2.9,5.3-7.59,10.27-7.92,4.61-.3,8.68.5,13.22-1.26,3.93-1.52,7.45-3.93,11.71-4.46.58-.1,1.17-.07,1.74.07,1.84.6,2.14,3.04,3.23,4.61,2.44,3.58,9.22,3.58,12.99,3.27.64-.1,1.29-.1,1.92,0,1.6.5,2.68,1.98,2.67,3.65-.1,2.19-.89,4.28-2.26,5.99Zm-36.63-18.44c-3.61.87-7.35,1.13-11.05.76-2.8-.28-5.83-.86-8.31-.07-1.98.53-3.31,2.4-3.16,4.45,0,1.69.48,3.46-.81,4.98-1.74,2.04-6,2.83-9.87,3.2-2.53.37-5.11.21-7.57-.47-1.05-.46-2.08-.98-3.08-1.56-4.75-2.3-11.74-1.67-17.93-1.82-7.95-.2-16.13-2.13-20.57-5.97-4.44-3.84-3.79-9.64,2.53-12.42,2.87-1.14,5.92-1.76,9.01-1.84,5.17-.29,10.35.44,15.24,2.15,2.83,1.06,5.36,2.47,8.57,3.06,5.04.8,10.19-.15,14.61-2.7,3.73-2.25,5.9-5.18,8.01-8.07.97-1.54,2.62-2.51,4.44-2.6,1.58-.1,3.08.66,3.94,1.98.37,1.04.58,2.13.62,3.24.47,2.3,2.7,4.42,5.95,5.76l.8.16c2.99-.62,6.07-.74,9.1-.38,2.97.47,5.65,1.94,5.76,3.71.12,1.98-3.02,3.58-6.24,4.44Zm-77.51,9.93c7.98,3.05,18.69,1.96,27.84,3.66,1.05.08,2.05.48,2.87,1.15.76.96-.61,2.06-2.21,2.55s-3.46.65-5.06,1.15c-2.78.98-3.88,3.1-3.46,4.97s2.3,3.51,4.16,5.06c5.15,4.37,11.52,7.03,18.25,7.62l-.81-.13c4.29,0,10.29,2.06,10.54,7.09.21,3.88-1.03,8-4.54,10.02-2.19,1.08-4.46,1.97-6.8,2.66-4.53,1.73-8.54,4.59-11.64,8.32-2.27,2.74-5.1,4.96-8.3,6.51-2.42,1.23-5.2,1.57-7.85.97-1.27-.29-2.39-1.01-3.19-2.04-1.26-1.76-.92-4.26.14-6.15.59-.8.98-1.73,1.15-2.71,0-1.46-1.15-2.63-2.48-3.36-7.73-4.45-17.81-.54-25.28-5.63-.79-.5-1.51-1.1-2.13-1.8-1.04-1.28-.83-2.43-.22-3.83,1.54-3.58,5.55-6.63,9.55-9.49,3.2-2.3,6.52-4.67,8.07-7.49s.76-6.27-3.19-8.16c-2.73-1.11-5.65-1.69-8.6-1.72-3.64-.2-7.28-.1-10.9.3-3.79.41-7.74,1.15-11.41.46-4.36-.85-6.91-3.65-6.83-6.29s2.44-5.13,5.35-7.17c1.99-1.43,4.18-2.54,6.5-3.32,6.02-1.86,12.49-1.74,18.44.35,4.51,1.74,7.47,4.64,12.03,6.41v.05Zm-69.58,16.95c.83,0,1.5.1,1.88.14,3.11.22,6.31.92,9.31,0,1.34-.46,2.63-1.03,3.87-1.71,5.5-2.66,9.61-1.9,15.49-1.28,8.43.88,16.96-1.89,25.35-.68,2.24.35,4.75,1.22,5.46,3.36.47,1.89-.26,3.88-1.83,5.02-1.55,1.1-3.29,1.91-5.13,2.41-2.39.66-4.65,1.74-6.67,3.19-1.89,1.57-2.3,3.78-3.56,5.82-1.31,2.25-3.87,3.47-6.44,3.08-2.86-.57-5.76-.89-8.68-.97-7.85-.12-15.7-.23-23.55-.35-.61.05-1.22-.1-1.74-.43-.68-.54-.68-1.53-.73-2.41-.46-5.21-4.43-9.43-9.61-10.19-1.75-.2-4.09-.45-4.31-2.17-.43-3.24,7.04-3.12,10.89-2.9v.05Zm26.5,50.51c2.19-1.08,4.47-1.97,6.81-2.65,4.11-1.54,7.8-4.02,10.77-7.25,3-3.31,5.48-5.99,9.9-7.48,4.05-1.26,8.32-1.69,12.54-1.26,1.7.07,3.37.46,4.93,1.15,1.58.69,2.75,2.06,3.19,3.72.46,2.3-.92,4.7-.14,6.91.46,1.06,1.23,1.97,2.2,2.59,3.77,2.77,8.56,3.56,12.97,5.07.92.27,1.79.7,2.55,1.29,2.17,1.86.69,5.9-.8,7.75-2.19,2.67-4.94,4.83-8.07,6.3-3.64,1.81-6.84,3.99-10.84,5.05-3.78,1-8.51-.41-12.31-1.15-2.8-.67-5.67-1.06-8.55-1.15-6.83.13-13.75-.96-20.53-1.8-3.92-.48-8.84-2.42-9.08-7.03-.25-3.98.98-8.1,4.48-10.13l-.03.05Zm23.8,33.34c1-1.69.44-3.83.52-5.76-.06-.65.23-1.27.75-1.66.25-.11.51-.17.78-.17,2.4,0,4.79.26,7.13.76,1.96.28,3.77,1.06,5.76,1.37,1.84.24,3.7.2,5.53-.1,1.14-.22,2.3-.28,3.46-.17.28.04.55.1.81.2,2.3.82,2.19,3.78,4.33,4.93s5.36,1.08,7.9,1.22c3.63.19,7.27.09,10.89-.31,3.8-.41,7.74-1.15,11.41-.46,4.36.85,6.91,3.65,6.83,6.29s-2.43,5.14-5.35,7.17c-1.99,1.42-4.18,2.55-6.5,3.33-6.02,1.86-12.48,1.74-18.44-.35-4.61-1.75-7.55-4.61-12.11-6.41-7.97-3.06-18.69-1.97-27.83-3.66-1.05-.08-2.06-.48-2.87-1.15-1.21-1.5,2.03-2.44,2.89-2.62,1.67-.19,3.18-1.1,4.12-2.49l-.03.05Zm62.82-4.37c-8.42-.88-16.95,1.89-25.35.68-2.24-.33-4.74-1.22-5.46-3.35-.47-1.89.26-3.88,1.83-5.04,1.56-1.1,3.3-1.91,5.14-2.41,3.54-1.02,6.74-2.95,9.3-5.6,2.1-2.39,3.84-5,7.32-5.33,2.22-.06,4.44.19,6.59.73,3.93.67,7.94.73,11.89.18,2.81-.58,5.66-.94,8.53-1.08,2.21-.04,4.38.59,6.22,1.81,1.82,1.35,1.53,2.95,2.39,4.89,1.56,3.59,4.87,6.11,8.75,6.66,1.74.2,4.08.45,4.3,2.18,0,1.04-.66,1.97-1.65,2.3-2.54.91-5.26,1.23-7.95.94-1.69-.15-3.46-.31-5.08-.62-4.53-.85-8.01-1.6-12.31.56-1.76,1.08-3.61,2-5.54,2.73-2.83.83-5.9.09-8.91-.23Zm34.38-14.92c-3.16-2.15-3.1-5.43-1.07-8s5.76-4.53,9.53-6.33,7.74-3.46,10.68-5.76c2.48-1.89,4.1-4.54,2.04-6.58-.93-.96-2.52-1.64-3.61-2.52-3.36-2.78-.53-6.91,4.61-8.63s11.52-1.29,17.09-.21c4.11.78,8.13,1.99,11.98,3.63,3.46,1.47,6.68,3.33,10.87,3.83,5.22.63,10.43-.96,15.74-1.15,1.33-.15,2.68.1,3.86.73.44.38.71.92.74,1.5.32,2.17.67,4.33.99,6.5.41,1.26.17,2.65-.65,3.7-.97,1.06-2.87,1.73-4.61,2.4-10.02,3.8-18.19,9.14-23.48,15.32-1.21,1.71-2.83,3.09-4.71,4.02-2.3.99-6.04,1.04-7.54-.36-1.15-1.07-.62-2.65-1.31-3.89-.92-1.64-2.42-1.49-3.98-1.15-4.18.92-8.24,2.3-12.34,3.46-4.46,1.3-9.15,2.78-13.83,2.39-4.06-.39-8.34-1.07-10.98-2.88h-.02Zm122.37-110.03c-1.77,5.97-11.69,4.71-13.39,11.05-.23,1.47-.63,2.91-1.21,4.29-1.05,1.92-3.16,2.95-4.3,4.79-1.37,2.21-1.37,4.95-1.29,7.47.09,2.75.21,5.68-1.15,8.07-.86,1.47-2.18,2.61-3.76,3.24-3.84,1.27-7.91,1.73-11.94,1.36-1.23-.09-2.45-.32-3.63-.68-3.56-1.29-3.25-4.42-1.23-6.56s5.27-3.88,6.54-6.19.45-4.61-1.29-6.61c-2.11-2.17-4.57-3.97-7.28-5.32-1.1-.5-2.1-1.22-2.92-2.11-.53-.83-.59-1.89-.16-2.78,1.06-2.8,4.02-5.21,7.21-7.39,4.95-3.41,10.39-6.06,16.13-7.85,4.89-1.62,10.07-2.15,15.19-1.54,5.09.83,9.39,3.77,8.49,6.76h-.02Zm-35.15-11.52c2.42-.7,4.97-.91,7.42-1.47,5.12-1.15,9.37-3.91,13.83-6.41,2.39-1.33,7.87-2.5,7.97,1.8,0,2.11-1.62,4.95-3.74,5.38-3.73.74-7.51,1.26-11.22,2.09-7.36,1.66-14.4,4.55-20.81,8.54-3.69,2.1-6.88,4.98-9.34,8.43-.77,1.39-1.66,2.7-2.67,3.92-1.3,1.2-2.81,2.14-4.46,2.77-4.29,1.87-8.91,3.36-13.56,3.01-.39.01-.77-.12-1.07-.38-.19-.25-.3-.55-.31-.86-.39-3.38.83-6.74,3.3-9.08,2.24-2.07,5.22-3.09,8.07-4.04,5.29-1.65,10.43-3.78,15.34-6.36,4.16-2.18,6.59-5.91,11.3-7.29l-.02-.02Zm-48.07,1.79c2.43-.38,4.56-1.81,5.84-3.91,1.05-1.67,1.68-3.46,3.46-4.94,2.75-2.18,7.94-3.06,12.54-2.55,4.15.43,8.12,1.92,11.52,4.33,1.92,1.38,3.46,3.02,3.64,4.78.31,3.46-4.8,6.35-10.07,8.07s-11.28,2.9-15.31,5.52c-4.61,2.98-5.76,7.22-7.26,11.14-1.63,4.87-5.59,8.6-10.54,9.94-1.73.5-5,1.15-6.05-.86-.32-.76-.46-1.58-.41-2.4.05-.82-.05-1.65-.3-2.43-.43-.97-1.22-1.73-2.21-2.11-.98-.37-2.02-.54-3.06-.52-2.22,0-4.45.38-6.66.24-3-.2-7.16-2.2-6.39-5.86.56-1.67,1.49-3.19,2.72-4.45l7.8-9.4c1.87-2.3,4.33-4.78,8.61-5.21,4.08-.38,8.25,1.28,12.18.63l-.02-.02Zm-45.38-23.12c.68-.58,1.58-.84,2.47-.71,4.49.33,6.91,4.17,11.42,3.99,1.64-.12,3.25-.55,4.74-1.27,4.71-2.03,8.83-4.61,14.15-6.01s12.56-1.39,16.13,1.3c3.57,2.7,2.02,6.48-1.43,9.08s-8.45,4.33-12.81,6.42c-8.5,4.1-14.71,9.78-17.47,15.97-.63,1.73-1.4,3.41-2.3,5.02-1.08,1.61-2.5,2.97-4.16,3.98-2.57,1.6-5.53,2.5-8.56,2.59-3.32.08-6.81-1.06-7.73-2.89-1.72-3.36,5.24-6.3,5.29-9.81,0-2.59-3.78-5.17-1.96-7.56s8.79-2.66,11.05-5.12c1.45-1.57.43-3.53-1.26-5.04s-4.01-2.72-5.47-4.29-3.06-4.31-2.06-5.63l-.02-.02Zm-37.72-11.52c2.23-1.58,3.93-3.79,4.89-6.35.53-1.54.63-3.18,1.71-4.61,1.61-2.19,5.53-3.79,9.68-3.93s8.36,1.15,10.43,3.26c1.3,1.48,2.07,3.35,2.2,5.31.81,4.91,1.59,9.79,2.4,14.7.46,2.82.96,5.76,3.35,8.19,1.03,1.06,2.37,1.99,3.34,3.06,1.46,1.62,2.51,2.62,2.06,4.41-.14.29-.31.57-.48.84-1.76,2.04-5.76,3.39-9.66,3.65s-8.23-.84-10.01-2.88c-.77-.97-1.27-2.13-1.44-3.35-.4-1.84-.81-3.69-1.15-5.52-.36-2.62-1.38-5.11-2.98-7.21-2.51-2.69-5.97-4.3-9.64-4.48-2.44-.18-5.55,0-6.79-1.22s.63-2.75,2.13-3.91l-.02.02Zm-9.1,13.65c1.36-2.63,5.9-4.18,10.07-5.5.69-.26,1.42-.38,2.15-.38.54.04,1.07.17,1.57.4,2.66,1.01,4.75,3.11,5.76,5.76.82,2.22.91,4.53,1.66,6.75,1.37,4.02,4.94,7.78,10.09,10.6,1.7.32,3.36.78,4.98,1.39,2.79,1.35,2.3,4,.24,5.76s-5.27,2.88-7.87,4.34c-2.77,1.71-5.41,3.64-7.88,5.76-2.83,2.28-6.15,3.88-9.7,4.67-4.02.83-9.11.35-11.52-1.68-1.49-1.23-1.8-2.82-3.15-4.11-3.46-3.32-12.84-3.86-14.73-7.58-1.47-2.9,2.83-5.76,7.52-7.11s10.08-1.88,14.24-3.7c1.87-.84,3.46-1.99,3.73-3.33.4-2.12-2.52-3.89-4.61-5.66s-3.7-4.23-2.55-6.42l-.02.02Zm-53.7-11.19c3.87-2.4,8.87-4.06,13.95-5.52,4.75-1.34,10.37-2.52,15.14-1.21s7.06,4.67,12.02,5.48c3.55.59,8.23-.13,10.37,1.62,1.24,1.03.83,2.44-.21,3.55s-2.65,1.97-3.87,3c-3.88,3.31-3.26,8.07,1.42,11.06,1.83,1.15,4.32,2.19,4.47,3.74.13,1.27-1.51,2.42-3.46,3.04s-4.51,1.29-6.37,1.98c-2.65.96-6.36,3.28-9.13,4.18-1.94.55-3.93.89-5.95,1.01-2.34.02-4.67-.31-6.91-.98-1.45-.31-2.83-.91-4.04-1.77-1.96-1.69-.71-3.95.51-5.86s2.3-4.21.14-5.82c-1.51-1.15-4.16-1.47-6.6-1.52s-4.93.16-7.35-.09c-5.57-.59-9.67-3.76-10.13-7.02s2.15-6.51,6.03-8.91l-.02.02Zm-6.53,17.64c1.87-.05,3.74.02,5.6.22,2.89.18,5.86.12,8.66.53s5.62,1.45,6.45,3.06c1.34,2.63-2.93,5.17-2.88,7.92,0,1.91,2.45,3.73,5.65,4.24,2.35.21,4.71.27,7.06.17,2.36,0,5.01.58,5.85,1.86.56.84.18,1.82.44,2.72.91,3.13,8.65,4.09,10.44,7.11.17.23.21.52.12.78-.3.54-1.43.73-2.4.78-4.61.29-10.09-.15-13.17,1.88l-.62.16c-2.81,1.21-5.23,3.16-7.02,5.63-.63,1.24-1.4,2.4-2.3,3.46-1.4,1.26-3.22,1.93-5.1,1.88-1.96-.14-3.84-.84-5.43-2-2.1-1.33-4.33-2.88-4.18-4.68.17-2.06,3.46-3.7,3.71-5.76.35-2.37-4.36-4.48-8.25-3.7-2.05.57-3.99,1.46-5.76,2.64-2.17,1.14-4.5,1.97-6.91,2.44-2.73.64-5.56.7-8.32.18-1.95-.49-3.78-1.35-5.42-2.52-2.2-1.47-4.26-3.1-5.08-4.99-1.54-3.57,1.53-7.22,4.98-10.31,4.43-3.91,9.25-7.37,14.38-10.31,2.86-1.89,6.12-3.06,9.53-3.41l-.02.02Zm-90.38,9.37c2.05-2.55,5.76-4.54,9.52-6.33s7.74-3.46,10.68-5.76c2.48-1.9,4.11-4.54,2.05-6.59-.93-.96-2.52-1.62-3.61-2.52-3.38-2.77-.53-6.91,4.61-8.62s11.52-1.29,17.08-.22c4.12.77,8.14,1.98,11.99,3.62,3.46,1.49,6.67,3.33,10.88,3.84,5.2.63,10.37-.96,15.72-1.15,1.33-.16,2.68.09,3.86.73.45.37.71.91.74,1.49.35,2.18.67,4.33,1,6.5.41,1.27.16,2.65-.66,3.7-.96,1.07-2.87,1.74-4.61,2.4-9.98,3.78-18.17,9.09-23.46,15.24-1.21,1.71-2.83,3.1-4.71,4.03-2.3.98-6.04,1.03-7.54-.36-1.15-1.07-.62-2.66-1.33-3.91-.91-1.62-2.42-1.47-3.98-1.15-4.17.92-8.23,2.3-12.33,3.46-4.46,1.29-9.15,2.77-13.83,2.37-4.07-.35-8.35-1.04-11-2.83-3.16-2.09-3.1-5.38-1.06-7.95l-.02.02Zm-33.29,22.88c-8.42-.88-16.96,1.9-25.35.68-2.22-.32-4.74-1.21-5.46-3.35-.46-1.89.27-3.88,1.84-5.02,1.55-1.11,3.29-1.93,5.13-2.43,4.39-1.53,8.49-3.58,10.76-7.73.52-1.1,1.25-2.09,2.14-2.92,2.06-1.64,5.84-.56,8.26-.54,6.91.12,13.9.24,20.85.31,4.16,0,6.42,1.15,8.38,3.7.78,1.04,1.48,2.14,2.09,3.28,1.67,3.3,4.83,5.59,8.49,6.14,1.74.2,4.09.44,4.31,2.18,0,1.04-.66,1.97-1.65,2.3-.97.31-1.98.51-3,.6-1.79.31-3,1.51-4.61,1.87s-3.95-.47-5.54-1.23c-1.05-.51-2.85-2.11-4-2.17-2.83-.08-5.64.54-8.17,1.81-1.77,1.09-3.63,2.02-5.57,2.77-2.88.83-5.95.08-8.92-.24Zm-.08,21.42c2.1-2.03,4.75-3.46,6.65-5.68,2.5-2.94,3.46-6.91,5.91-9.83,2.68-3.19,6.12-6.01,10.37-4.26,1.69.71,2.97,1.82,4.78,2.39,2.19.69,4.48,1.03,6.67,1.73.7.2,1.36.51,1.95.93l.15.1c.55.52,1.01,1.13,1.36,1.81,2.3,3.83,4.53,11.12,9.67,12.09,4.25,1.46,8.94-.43,13.42.07,1.79.2,3.59.78,5.36.4,2.56-.54,4.68-3.01,7.25-2.63s3.79,3.2,3.69,5.68-1.15,4.78-1.6,7.22c-.12,1.57-.44,3.12-.96,4.61-.92,1.98-2.94,3.21-4.91,4.19-4.07,2.03-8.4,3.5-12.86,4.39-3.88.77-8.41.91-11.27-1.83-.76-.94-1.63-1.8-2.59-2.55-2.4-1.45-5.45.08-8.24,0-4.97-.1-8.24-5-12.26-7.92-3.19-2.31-7.09-3.46-11.03-3.24-3.26.18-6.39,1.3-9.59,1.97-.94.3-1.95.3-2.89,0-.73-.38-1.3-1.02-1.59-1.79-1.14-2.75.45-5.85,2.56-7.87Zm-3.58,45.52c-1.87.05-3.74-.03-5.6-.23-2.89-.17-5.85-.1-8.68-.52s-5.63-1.43-6.46-3.06c-1.35-2.64,2.93-5.18,2.88-7.93,0-1.91-2.45-3.73-5.66-4.24-2.34-.2-4.7-.26-7.05-.16-2.3-.06-5.01-.59-5.85-1.86-.58-.85-.17-1.82-.45-2.72-.9-3.13-8.64-4.1-10.37-7.11-.18-.23-.22-.53-.1-.8.28-.53,1.42-.71,2.39-.77,4.61-.29,10.08.14,13.16-1.88l.63-.15c2.8-1.22,5.23-3.17,7.03-5.65.63-1.24,1.4-2.4,2.3-3.46,1.4-1.26,3.23-1.94,5.12-1.89,1.96.15,3.84.84,5.42,2.02,2.11,1.34,4.34,2.88,4.18,4.68-.16,2.07-3.46,3.71-3.71,5.76-.32,2.37,4.37,4.47,8.26,3.68,2.05-.56,4-1.44,5.76-2.63,2.18-1.14,4.5-1.97,6.91-2.45,2.73-.64,5.56-.7,8.31-.17,1.95.49,3.79,1.34,5.42,2.51,2.21,1.49,4.27,3.1,5.09,5.01,1.56,3.56-1.54,7.21-4.99,10.3-4.43,3.93-9.24,7.41-14.37,10.37-2.88,1.86-6.15,3.01-9.56,3.34Zm27.21,13.2c-5.22-.63-10.37.96-15.73,1.15-1.33.15-2.68-.09-3.87-.71-.44-.38-.71-.93-.74-1.51-.32-2.17-.65-4.33-.99-6.5-.4-1.26-.16-2.64.65-3.7.98-1.06,2.87-1.72,4.61-2.4,9.98-3.76,18.17-9.08,23.46-15.24,1.21-1.71,2.83-3.09,4.71-4.02,2.3-.99,6.04-1.03,7.54.36,1.15,1.07.62,2.65,1.33,3.91.92,1.62,2.41,1.47,3.96,1.15,4.18-.92,8.25-2.3,12.35-3.46,4.46-1.3,9.15-2.78,13.83-2.39,4.08.36,8.36,1.05,11,2.85,3.16,2.17,3.1,5.44,1.07,8s-5.76,4.53-9.52,6.34-7.75,3.46-10.68,5.76c-2.49,1.89-4.1,4.54-2.05,6.59.93.96,2.53,1.62,3.62,2.52,3.35,2.77.52,6.91-4.61,8.62s-11.52,1.29-17.09.22c-4.11-.78-8.13-1.99-11.98-3.63-3.43-1.56-6.69-3.41-10.89-3.91h.02Zm26.43,33.34c-10.95,6.42-7.09,18.18-18.33,24.44-2.56,1.32-5.27,2.31-8.07,2.96-3.74.96-8.41,1.53-11.73.14-1.91-.63-3.23-2.38-3.3-4.39.22-1.75.87-3.41,1.9-4.84l3.91-6.61c1.28-2.19,2.3-4.97-.74-6.46s-8.51-.93-9.87-3.01c-.65-.99.14-2.1,1.15-3.01,5.37-5.14,15.59-7.81,23.36-11.81,2.72-1.39,5.24-3.08,6.07-5.12.5-1.23.36-2.52.81-3.78.65-1.59,2.13-2.69,3.85-2.85,3.12-.46,5.76,1.28,8.2,2.47,4.77,2.3,11.35,2.8,16.61,4.68,4.51,1.6,10.93,5.27,9.34,10.92-.92,3.24-2.7,4.54-6,4.76-2.92.21-5.69-.75-8.62-.81-3.01-.01-5.97.79-8.57,2.32h.02Zm23.24,25.35c-2.92.46-6.42-.7-7.33-3.46-.18-1.12-.44-2.23-.78-3.32-1.65-3.26-7.62-2.1-9.07-5.45-.56-1.65,0-3.47,1.38-4.53,1.37-1.01,2.98-1.65,4.67-1.86,3.74-.7,7.63-.88,11.2-2.2,5.7-2.11,10.06-6.91,15.72-9.16,5.2-2.06,11-1.75,16.56-1.15,4.55.54,9.13.91,13.62,1.8s9.48,2.03,13.3,4.54c.64.39,1.2.88,1.67,1.46.46.6.64,1.37.5,2.11-.29.78-.86,1.43-1.6,1.81-3.53,2.25-8.26,2.03-12.29,2.3-5.23.38-11.74,1.29-15.79,4.77-3.35,2.9-5.29,7.59-10.25,7.92-4.61.3-8.68-.5-13.23,1.26-2.77,1.07-5.36,2.68-8.28,3.15h.02Zm22.2,10.17l-.78-.16c-3,.62-6.08.74-9.11.38-2.97-.46-5.65-1.94-5.76-3.71-.1-2.04,3.02-3.64,6.24-4.45,3.61-.87,7.34-1.13,11.04-.76,2.8.28,5.84.88,8.31.07,1.99-.53,3.32-2.4,3.17-4.45,0-1.69-.5-3.46.8-4.98,1.75-2.04,6-2.83,9.89-3.19,2.53-.38,5.11-.22,7.57.46,1.05.46,2.07.98,3.06,1.56,4.75,2.3,11.74,1.68,17.94,1.83,7.94.18,16.13,2.13,20.56,5.96s3.8,9.64-2.53,12.43c-2.87,1.13-5.92,1.75-9,1.84-5.17.29-10.36-.44-15.24-2.17-2.85-1.06-5.37-2.47-8.58-3.06-5-.78-10.12.18-14.51,2.71-3.74,2.25-5.91,5.17-8.01,8.07-.97,1.54-2.62,2.51-4.44,2.62-1.58.09-3.09-.67-3.95-1.99-.37-1.04-.58-2.13-.62-3.24-.51-2.29-2.73-4.44-6.03-5.76Zm54.15,22.23c-4.69,1.34-10.09,1.87-14.25,3.7-1.87.84-3.46,1.98-3.73,3.33-.39,2.12,2.53,3.88,4.61,5.65s3.65,4.26,2.51,6.45c-1.37,2.63-5.91,4.19-10.07,5.5-.69.25-1.43.39-2.17.39-.54-.05-1.07-.19-1.57-.4-2.66-1.01-4.75-3.11-5.76-5.76-.83-2.24-.92-4.53-1.67-6.76-1.37-4.01-4.94-7.77-10.09-10.6-1.7-.31-3.36-.78-4.98-1.38-2.79-1.36-2.3-4-.24-5.76s5.27-2.88,7.87-4.33c2.77-1.73,5.41-3.68,7.88-5.82,2.83-2.28,6.15-3.88,9.7-4.68,4.02-.83,9.11-.35,11.52,1.68,1.49,1.23,1.81,2.82,3.15,4.11,3.46,3.32,12.84,3.87,14.74,7.59,1.52,2.89-2.83,5.75-7.44,7.1Zm73.34-.98c-4.43,3.91-9.24,7.36-14.37,10.3-2.89,1.87-6.18,3.02-9.61,3.35-1.87.05-3.74-.02-5.6-.22-2.89-.18-5.85-.1-8.66-.53s-5.62-1.45-6.45-3.05c-1.34-2.64,2.93-5.18,2.89-7.93,0-1.91-2.47-3.73-5.66-4.24-2.35-.21-4.71-.27-7.06-.17-2.36,0-5.01-.58-5.84-1.86-.58-.84-.2-1.81-.45-2.71-.91-3.13-8.65-4.1-10.44-7.11-.17-.23-.21-.53-.12-.8.3-.54,1.43-.71,2.41-.77,4.61-.29,10.08.14,13.16-1.88l.62-.16c2.81-1.21,5.24-3.16,7.03-5.63.62-1.24,1.4-2.4,2.3-3.46,1.39-1.27,3.22-1.94,5.1-1.89,1.96.14,3.84.84,5.43,2,2.11,1.34,4.33,2.88,4.18,4.69-.16,2.06-3.46,3.7-3.71,5.76-.33,2.37,4.36,4.47,8.26,3.69,2.3-.45,3.95-1.66,5.76-2.64,2.18-1.14,4.5-1.96,6.91-2.44,2.73-.64,5.56-.7,8.32-.18,1.95.5,3.78,1.35,5.42,2.52,2.21,1.49,4.27,3.1,5.08,5,1.6,3.59-1.49,7.25-4.93,10.35h.02Zm55.71-29.86c-.36,3.66-.91,7.44-2.83,10.59-2.19,3.57-5.92,5.92-9.75,7.64-2.37,1.07-4.83,1.95-7.35,2.62-2.3.61-4.78,1.01-6.86,0-.98-.51-1.79-1.29-2.77-1.8-2.37-1.23-5.23-.55-7.85,0s-5.61.94-7.72-.7c-1.44-1.15-2.1-2.97-3.08-4.53-2.25-3.37-5.78-5.69-9.77-6.42-3.97-.71-8.06-.47-11.91.71-1.58.55-3.23.9-4.9,1.04-1.7.14-3.37-.58-4.44-1.91-.89-1.46-.93-3.28-.1-4.78.82-1.47,1.98-2.71,3.39-3.63,2.9-2.12,6.43-3.86,7.93-7.13,1.01-2.2.92-4.78,1.94-6.99,4.18-9.08,16.68-7.21,24.74-3.46,1.05.48,2.08,1.03,3.06,1.64.98.53,1.83,1.28,2.48,2.19.54,1.09.93,2.26,1.15,3.46.59,2.35,2.09,4.36,4.17,5.6,2.59,1.42,5.76,1.15,8.69.88,4-.33,8.01-.53,12.02-.56,4.3-.13,10.28.07,9.76,5.57Zm43.98,11.25c8.43.88,16.97-1.9,25.35-.68,2.24.33,4.74,1.22,5.46,3.35.46,1.89-.27,3.88-1.84,5.02-1.55,1.1-3.29,1.92-5.13,2.42-3.58,1.24-7.24,2.88-9.53,5.89-2.72,3.53-5.57,4.31-10.01,4.41l-18.12.48c-3.32.08-6.91.09-9.59-1.81-.91-.67-1.71-1.48-2.39-2.39-.83-1.08-1.57-2.3-2.39-3.36-1.8-2.24-4.15-3.97-6.83-5.01-1.69-.65-6.11-.12-6.43-2.64.01-1.04.67-1.96,1.66-2.3,5.65-2.3,11.78.46,17.52.58,5.28.1,8.6-2.87,13.34-4.19,2.88-.84,5.95-.08,8.92.23h0Zm5.22-22.79c-1.52.66-3.08,1.23-4.67,1.69-5.67,1.99-9.6,5.54-10.28,9.36l-.23,1.15c-1.44,2.86-3.77,5.18-6.63,6.63-3.84,1.9-8.18,2.59-12.42,1.98-5.86-.92-9.51-4.61-9.6-8.07.12-1.64.35-3.26.7-4.86.17-1.59-.02-3.2-.56-4.7-.35-1.15-1.19-2.09-2.3-2.56-3.61-1.53-8.95.25-12.67.69-4.47.53-8.96.78-13.46.91-1.7.14-3.42,0-5.07-.43-1.68-.46-3.03-1.7-3.63-3.33-.52-1.74.08-3.96-1.29-5.16-.54-.47-1.3-.68-1.71-1.26-.81-1.15.39-2.68,1.53-3.56,5.85-4.52,12.41-6.56,18.7-10,2.24-1.22,4.82-2.45,7.2-1.59.41.13.77.37,1.05.69.25.44.44.92.54,1.42,1.15,3.39,4.34,2.59,6.91,2.1,1.59-.46,3.22-.79,4.86-1,2.56.04,5.05.87,7.12,2.39l6.67,4.25c4.22,2.65,9.57,5.57,15.73,4.95,3.04-.35,5.95-1.46,8.45-3.24.82-.63,1.73-1.13,2.71-1.49,1.13-.38,2.37-.32,3.46.17,1.37.84.13,2.17-.68,3.24-1.25,1.59-1.14,3.86.27,5.32.47.43.86.94,1.15,1.5.53,1.03-.48,2.09-1.86,2.8h0Zm45.86-15.53c-.29.53-1.43.73-2.4.77-4.61.29-10.08-.14-13.16,1.89l-.63.15c-2.8,1.21-5.23,3.16-7.02,5.63-.62,1.24-1.4,2.4-2.3,3.46-1.4,1.26-3.23,1.94-5.12,1.89-1.96-.15-3.83-.85-5.42-2.02-2.11-1.33-4.33-2.88-4.18-4.68.16-2.06,3.46-3.7,3.71-5.76.33-2.37-4.37-4.48-8.26-3.69-2.05.56-3.99,1.45-5.76,2.63-2.18,1.14-4.5,1.97-6.91,2.45-2.73.64-5.56.7-8.31.18-1.95-.49-3.79-1.35-5.42-2.52-2.21-1.49-4.27-3.1-5.09-5-1.56-3.57,1.54-7.22,4.99-10.31,4.43-3.93,9.24-7.4,14.37-10.37,2.89-1.87,6.18-3.02,9.61-3.35,1.87-.05,3.73.03,5.59.23,2.9.17,5.86.1,8.68.53s5.61,1.45,6.44,3.05c1.35,2.64-2.92,5.18-2.88,7.93,0,1.91,2.45,3.73,5.66,4.24,2.34.22,4.7.27,7.05.16,2.37.06,5.01.59,5.86,1.87.56.84.17,1.81.44,2.71.9,3.13,8.64,4.1,10.37,7.11.18.24.21.55.09.82h0Zm22.92-40.56c.69-.25,1.42-.38,2.15-.38.54.03,1.07.17,1.57.39,2.65,1.01,4.75,3.11,5.76,5.76.82,2.22.92,4.53,1.66,6.76,1.38,4.01,4.95,7.77,10.09,10.6,1.7.31,3.37.78,4.99,1.38,2.78,1.36,2.3,4.01.23,5.76s-5.27,2.89-7.87,4.34c-2.77,1.74-5.41,3.68-7.88,5.82-2.84,2.26-6.16,3.84-9.7,4.61-4.02.84-9.11.36-11.52-1.67-1.49-1.23-1.8-2.83-3.15-4.11-3.46-3.33-12.82-3.87-14.73-7.59-1.47-2.89,2.83-5.76,7.52-7.11s10.09-1.88,14.25-3.7c1.87-.83,3.46-1.98,3.73-3.33.39-2.12-2.53-3.89-4.61-5.66s-3.65-4.26-2.5-6.45c1.29-2.56,5.82-4.12,9.99-5.43h0Z"/>
          <path class="cls-18" d="m463.91,294.33c.2-.32.38-.66.55-1-2.51-2.65-5.17-5.25-7.97-7.81-.06,3.29-1.29,6.45-3.46,8.92-3.64,4.47-9.54,9.01-5.89,14.47,3.38,5.08,13.39,8.24,22.26,10.43,5.83,1.44,12.11,3,17.17,5.25-1.74-3.52-3.66-6.94-5.76-10.25-3.58-.51-7.13-.68-10.75-1.45-3.86-.84-8.36-2.93-10.09-6.58-.97-2.16-.86-4.65.3-6.72,1.05-1.91,2.55-3.43,3.64-5.25Z"/>
          <path class="cls-18" d="m494.73,348.44c-.52-2.58-1.15-5.14-1.89-7.7-1.76,1.49-3.79,2.61-5.98,3.31-2.97.97-6.13,1.22-9.22.73-3.46-.55-6.75-1.61-10.16-2.3-5.72-1.29-11.61-1.62-17.44-.99-5.83.73-11.58,2.53-17.86.92s-10.05-6.23-16.38-8.16c-6.64-2.02-13.83-.39-20.6-1.99s-11.65-6.76-9.22-10.07,9.79-4.06,13.5-6.8c3.18-2.3,3.18-6.13,0-9.33-1.13-.96-2.2-2.01-3.18-3.12-2.85-3.88,2.22-6.91,6.53-9.39,4.54-2.55,8.78-5.65,8.55-9.7-.07-1.59-.85-3.25-.63-4.79.29-2,2.18-3.58,4.11-5.06,3.67-3.09,8.18-5.02,12.95-5.55,2.43-.22,4.88-.12,7.28.29-3.73-2.53-7.62-5.01-11.67-7.43-1.21-.71-2.43-1.42-3.66-2.11-3.18,1.25-6.19,2.9-8.94,4.93-2.3,1.74-4.61,3.8-7.85,3.66-2.74-.1-5.57-1.67-8.22-3.21-2.07-1.15-4.34-2.58-5.43-4.61-1.64-3.01,0-5.76,1.05-8.34.79-2.01,1.18-4.16,1.15-6.33-3.49-1.47-7.03-2.89-10.63-4.25,1.54,2.6,1.84,5.28.36,7.48-3.01,4.45-12.16,5.93-20.45,7.2s-17.28,3.04-19.59,7.7c-1.74,3.53.88,7.88-.12,11.61-1.22,4.61-7.27,6.27-11.89,6.91-6.38.88-13.56-1.07-20.37-2.12-4.92-.71-9.92-.71-14.84,0-6.13.8-15.49,3.92-19.36.31-2.44-2.3,5.04-3.04,7.92-4.4,5.07-2.41,6.35-6.82,4.39-11.08s-6.79-8.33-12.58-11.78c-2.93-1.74-6.15-3.36-8.35-5.38-5.65-5.1-1.57-11.59,7.59-12.16,5.88-.35,12.47,1.35,18.5,1.31,8.85,0,14.73-3.68,20.44-6.8,3.53-1.97,7.24-3.58,11.08-4.83-3.35-.65-6.71-1.23-10.08-1.79-4.1,1.42-8.19,2.82-11.95,4.46-2.17,1.08-4.45,1.91-6.81,2.47-7.67,1.52-18.87-1.37-25.21,1.3-1.72.69-3.27,1.84-5.7,1.47-1.55-.21-2.96-1.01-3.94-2.22-.56-.94-1.03-1.93-1.43-2.95-1.44-2.32-3.56-4.13-6.07-5.18-2.63-1.24-6.27-2.53-6.33-4.25,0-.14.04-.28.09-.41-3.81,0-7.64.07-11.45.18,1.83,2.58,7.39,5.28,9.22,6.65,5.32,3.86,7.82,9.74,8.98,15.14.39,1.76.74,3.62-.53,5.02-2.17,2.37-7.98,2.59-13.03,2.87-14.39.81-27.45,3.89-37.4,8.87-2.63,1.13-4.99,2.81-6.91,4.93-2.67,3.4-2.25,7.93-6.79,10.48-6.18,3.46-17.99,1.61-27.91-.4-2.14-.33-4.22-.97-6.18-1.89-3.81-2.09-3.1-5.27-1.05-7.36,1.91-1.83,4.16-3.25,6.64-4.17,2.96-1.15,6.52-1.99,9.22-3.34,5.08-2.6,6.52-7.25,3.63-11.65-1.05-1.56-2.5-2.82-4.19-3.64-2-.97-4.49-1.49-6.63-2.41-3.5-1.32-6.14-4.24-7.09-7.86-.08-.3-.14-.6-.2-.9-2.37.55-4.74,1.13-7.09,1.74.09.77,0,1.51-.53,1.86-.5.22-1.05.3-1.59.21l-4.33-.32c-7.93,2.2-15.69,4.67-23.27,7.41.8-.22,1.57-.45,2.39-.65,8.03-2.06,16.42-2.3,24.55-.71,8.64,1.87,16.72,7.06,16.26,11.78-.88,9.41-17.62,6.28-18.24,16.29-.14,2.3.2,4.74-.53,6.76-1.07,2.98-4.18,4.39-5.43,7.24-1.5,3.46-.56,7.82.43,11.86,1.09,4.44,2.3,9.16.8,12.81-.92,2.26-2.77,4-5.08,4.79-6.26,1.62-12.8,1.91-19.18.84-2.11-.29-4.19-.79-6.21-1.49-6.3-2.48-6.84-7.48-4.27-10.68s7.34-5.66,8.64-9.22c1.22-3.34-.81-7.3-4.38-10.77s-8.58-6.51-13.83-9.38c-2.04-.94-3.91-2.2-5.54-3.73-1.08-1.22-1.51-2.88-1.15-4.47.77-4.39,4.83-7.94,9.36-11.07,3.01-2.08,6.17-3.94,9.46-5.57-9.68,3.94-19.13,8.44-28.3,13.47.63,1.87.96,3.53.62,4.41s-1.43,1.33-2.43,1.66c-4.87,1.51-9.94,2.66-14.89,4.03-9.98,6.54-19.3,14.02-27.84,22.35-2.11,6.36-3.86,12.97-9.97,15.46-1.4.53-2.86.86-4.36.98-2.3,3.03-4.3,6.1-6.19,9.22,2.75.65,5.53,1.15,8.33,1.5,4.59.43,9.21-.54,13.24-2.78,15.82-9.1,5.45-28.45,21.8-37.25,3.86-1.88,7.97-3.18,12.21-3.87,5.83-1.15,13.31-1.54,19.24,1.08,4.15,1.84,6.43,4.76,6.91,7.43s-.48,5.13-1.47,7.57c-1.38,3.4-2.77,6.8-4.17,10.2-1.35,3.38-2.07,7.74,3.46,10.48,5.32,2.65,14.33,2.45,17.28,5.95,1.41,1.66.48,3.35-.77,4.71-7.09,7.67-22.97,10.83-34.4,16.38-3.99,1.95-7.57,4.37-8.24,7.55-.39,1.94.28,4.04,0,6s-1.96,3.88-5.36,4.16c-4.98.38-9.86-2.72-14.34-4.89-8.63-4.18-19.59-5.76-28.94-9.39-4.81-1.78-9.3-4.33-13.31-7.54-.88,2.3-1.67,4.61-2.37,6.91,1.62.71,3.27,1.39,4.98,2.02,4.61,1.71,10.37,3.68,11.1,6.49s-4.34,4.3-7.87,5.91c-7.01,3.21-8.56,9.61-3.77,15.26,2.12,2.47,5.35,4.82,6.34,7.36s-.47,4.95-3.01,6.69c-2.06,1.43-4.61,1.9-6.75,3.16-.73.41-1.47.81-2.22,1.15.44,1.76.93,3.46,1.49,5.27,1.43-.73,2.92-1.43,4.42-2.1,5.59-2.45,11.52-4.75,15.6-8.07,3.46-2.78,5.2-6.86,1.15-10.37-1.88-1.65-4.72-2.89-6.81-4.46-6.49-4.84-3.25-11.25,4.61-13.35,7.86-2.11,18.5-.78,28.04,1.54,7.18,1.77,14.2,4.17,20.96,7.18,6.14,2.78,12.13,6.12,19.22,7.4,8.79,1.6,16.82-.38,25.5,0,2.3.09,5,.45,6.61,1.59.82.61,1.42,1.48,1.71,2.47,1.29,3.53,2.58,7.06,3.87,10.57.76,2.03,1.5,4.19.2,5.88s-4.14,2.47-6.8,3.34c-15.13,4.95-26.79,12.59-33.41,21.89-1.57,2.22-2.97,4.61-6.37,5.97s-9.59.97-12.52-1.43c-2.3-1.84-1.94-4.34-3.46-6.42-2.07-2.72-4.47-2.65-6.91-2.3-6.56,1.01-12.79,2.71-19.13,4.17-6.91,1.59-14.11,3.46-21.89,2.3-.85-.13-1.72-.28-2.57-.43,3.64,5.69,7.71,11.08,12.19,16.13,9.89-3.25,22.08-4.71,34.88-4.1,3.33.31,6.68.33,10.01.07,2.6-.33,4.85-1.15,7.66-1.06,4.61.09,8.93,2.49,12.51,4.61l12.44,7.57c7.85,4.75,17.66,10.02,27.58,9.74,4.6-.12,9.05-1.61,12.8-4.27,1.16-.95,2.5-1.66,3.94-2.09,1.94-.47,3.98-.24,5.76.66,2.55,1.51.96,3.51,0,5.14-1.49,2.56-.63,5.76,2.3,8.58.93.74,1.75,1.59,2.45,2.55.97,1.72-.32,3.32-2.3,4.3-2.31.9-4.67,1.64-7.09,2.2-8.66,2.58-13.9,7.87-13.71,13.92v1.79c-1.34,4.38-4.48,7.98-8.64,9.91-.65.32-1.32.6-2,.85,6.15,2.06,12.42,3.96,18.84,5.69,3.76,0,7.88,1.06,11.83,1.73,14.16,2.3,27.26-1.15,41.48,1.74,3.79.78,8.23,2.49,10.14,6,.36.63.6,1.32.73,2.04,3.84.37,7.72.68,11.63.94.58-4.11-2.02-8.92-8.39-12.02-4.29-2.09-9.66-3.11-14.75-3.72-5.91-.71-11.87-.96-17.81-.73-6.11.25-12.35,1.01-18.63-.53-7.45-1.86-12.67-6.64-13.4-10.89s2.3-7.97,6.35-10.92c2.87-2.11,6.11-3.67,9.55-4.61,8.58-2.36,20.83-1.3,30.38,2.62,8.15,3.32,14.01,8.31,22.12,11.65,14.18,5.76,31.43,5.25,47.07,9.01,1.94.46,4.08,1.15,5.12,2.17,1.58,1.62-.3,3.26-2.78,3.86s-5.53.63-7.9,1.34c-4.24,1.27-5.35,4.53-3.91,7.59,1.31,2.35,3.1,4.4,5.25,6.01,3.33-.08,6.65-.21,9.97-.37-1.29-1.41-2.58-2.8-3.88-4.19-.67-.58-1.18-1.33-1.46-2.17-.15-.89.52-1.66,1.3-2.3,2.36-1.89,5.08-3.26,8-4.03,5.18-1.43,11.45-1.75,17.59-2.04,6.14-.29,12.41-.59,17.62-2.02,5.21-1.43,9.22-4.18,8.95-7.77-.14-1.94-1.49-4.06-.51-5.76s4.03-2.52,7.3-2.63c3.4,0,6.8.32,10.15.93,4.98.75,10.37,1.46,14.39.43,3.85-1.04,5.7-3.46,9.57-4.52,4.61-1.24,11.83.16,15.6,3.05.51.35.93.82,1.23,1.36.14.57.08,1.17-.16,1.71-.62,2.66,1.83,5.9,6.07,8,3.59-1.34,7.14-2.73,10.65-4.18-1.95-.03-3.87-.56-5.55-1.54-2.3-1.49-2.21-3.53-1.15-5.01s2.98-2.65,3.89-4.19c.51-.68.54-1.6.06-2.3-1.01-1.5-4.3-2.36-6.98-2.52s-5.3.15-8.07-.25c-6.37-.91-12.67.15-17.92-2.56-3.71-1.91-5.39-4.78-5.36-7.26s1.5-4.69,2.94-6.86l9.62-14.24c2.3-3.46,5.51-7.2,12.39-7.42,6.53-.22,13.99,3.02,20.22,2.3,3.6-.16,6.8-2.34,8.27-5.63,1.15-2.58,1.56-5.45,4.04-7.57,3.79-3.19,12.02-4.03,19.77-2.7,7.33,1.32,14.31,4.15,20.49,8.32,3.64,2.44,6.76,5.25,7.64,8.07,1.69,5.66-5.76,9.68-13.83,11.84-8.07,2.17-17.56,3.46-23.31,7.17-6.61,4.3-6.91,11-8.12,17.13-.48,2.84-1.55,5.56-3.12,7.97,4.72-2.3,9.33-4.74,13.83-7.32.95-3.16,2.44-6.13,4.41-8.77,5.91-7.39,16.72-9.28,26.43-12.44,7.82-6.44,14.99-13.63,21.42-21.47-5.66-.21-11.2-1.64-16.25-4.21-2.3-1.24-4.12-2.7-6.23-4.02-7.06-4.48-17.09-7.47-26.5-7.93-9.41-.46-18.09,1.62-22.85,5.52-2.95,2.4-3.15,5.76-5.91,8.28s-8.15,1.15-12.88.82c-1.07-.03-2.13-.25-3.12-.66-1.86-.91-1.39-2.42-.46-3.46,7.14-7.54,27.43-9.34,29.84-18.27.82-3.04-.67-6.53,1-9.33,1.99-3.34,7.94-4.98,13.12-6.79s10.28-4.4,9.57-8.25c-.82-4.61-9.36-8.56-12.2-13.15-3.1-5,1.15-9.55,6.51-12.67,7.97-4.5,16.9-7.03,26.05-7.37,6.91-.44,13.83.43,20.42,2.57,10.22,3.55,16.38,11.11,13.52,16.55s-13.43,8.13-17.35,13.39c-2.56,3.38-2.03,7.79,1.41,11.78,3.76,4.34,10.5,7.89,16.38,11.61l1.51.99c.96-2.06,1.84-4.13,2.65-6.22-3.27-1.77-6.71-3.54-8.68-5.76-1.88-1.97-2.43-4.85-1.41-7.37,1.58-4.26,6-7.65,9.6-11.27s6.49-7.87,4.7-12.54c-1.15-3.04-4.25-6.18-3.95-9.08.17-2.03,1.95-3.59,4.33-4.86Zm-182.35-61.75c8.36.99,17.14,2.55,24.69,1.57,11.52-1.49,16.49-8.5,16.35-15.5-.19-1.46-.08-2.95.35-4.37,2.07-4.8,13.38-5.76,22.7-3.61,8.54,2.03,16.21,6.18,20.2,10.95,3.99,4.77,4.17,10.01.54,13.83-2.39,2.51-6.24,4.37-9.91,6.24-3.93,2.04-7.88,5.12-4.67,8.38,1.9,1.94,6,3.46,6.38,5.5.22,1.15-.88,2.03-2.09,2.75-3.93,2.37-9.47,3.86-15.72,4.18-11.29.6-23.93-2.48-35.33-2.06-8.71.31-16.13,2.68-21.22,6.19-1.9,1.29-3.54,2.79-6.11,3.69-3.1,1.02-6.45.94-9.49-.24-3.36-1.46-4.23-4.02-4.09-6.11s.89-4.19-.69-6.33c-2-2.66-8.88-5.42-12.36-6.79-5.48-.13-10.92-.83-16.26-2.09-5.25-1.45-10.25-4.25-11.2-7.33-1.36-4.51,6.1-7.07,13.15-8.22,14.83-2.25,29.89-2.46,44.77-.65Zm27.27,76.94c1.06,4.42,6.12,8.76,8.27,13.19,2.3,4.61,1.15,9.37-2.97,12.73-3.4,2.74-9.68,4.61-16.32,3.1-9.82-2.24-14.82-8.83-21.4-13.83-.35-.35-.67-.74-.94-1.15-3.46-4.23-5.39-8.69-5.65-12.95-.17-3,.2-6.35-3.77-8.93-1.2-.64-2.36-1.36-3.46-2.17-2.66-2.4.82-4.83,4.95-5.38s9.07-.15,12.61-1.28c5.12-1.62,5.45-5.86,3.7-9.61-.85-1.81-2.11-3.68-1.96-5.43.18-2.43,3-4.17,6.06-5.52,7.95-3.46,18.44-5.32,29.67-5.17,5.85-.03,11.67.78,17.28,2.43,5.53,1.73,10.5,4.77,11.91,8.07,1.64,3.78-1.56,7.12-6.05,9.22s-10.21,3.4-15.14,5.22c-4.88,1.66-9.34,4.35-13.09,7.89-2.77,2.73-4.59,6.01-3.72,9.56Zm-161.07,34.02c-2.86-1.95-7.34-2.85-11.4-3.19s-8.07-.28-12.12-.97c-9.37-1.56-17.2-7.12-19.07-12.41s1.36-10.2,6.91-13.62,13.23-5.54,21.1-7.32c7.34-1.62,16.21-2.92,24.48-.27,8.07,2.59,13.23,8.3,21.67,10.16,6.04,1.36,13.48.71,17.59,3.77,2.4,1.79,2.2,4.03.86,5.68s-3.68,2.89-5.33,4.4c-5.25,4.87-2.59,12.67,6.12,17.95,3.4,2.03,7.86,4,8.64,6.52.65,2.06-1.65,3.73-4.61,4.52s-6.91,1.57-9.81,2.48c-4.03,1.24-9.34,4.61-13.57,5.76-3.1.66-6.27.98-9.44.96-4.02-.23-7.99-1.01-11.81-2.3-2.59-.7-5.04-1.82-7.27-3.31-3.79-2.94-2.51-6.43-1.15-9.38s2.3-6.6-1.81-9.44Zm111.27-67.61c3.76,2.65,10.83,3.91,12.92,6.91,1.41,2.09-.33,4.03-2.72,5.28-4.32,2.02-9.06,2.96-13.83,2.73-5.28-.09-10.76-1.15-16.13-1.64-5.46-.43-10.95-.37-16.41.16-6.75.59-13.75,1.88-16.4,5.25-3.73,4.74,2.06,12.42-4.82,15.67-4.82,2.3-13.45.91-20.04-1.53s-12.21-5.84-18.93-8.15c-5.6-1.81-11.41-2.93-17.28-3.34-.72-.06-1.44-.02-2.15.12-3.51,1.15-8.77.85-11.6-1.49s-1.61-5.76.27-7.74c2.71-2.92,8.2-4.61,14.26-5.12,6.4-.4,12.83-.16,19.18.73,9.11,1.08,18.94,2.72,26.5.92,2.91-.72,5.64-2,8.07-3.76,3.88-2.59,6.97-6.21,8.93-10.45,1.68-3.91,2.03-8.2,4.99-11.72,3.57-4.24,11.43-7.09,20.74-6.44s19.28,5.35,21.14,10.59c1.49,4.47-2.12,9.15,3.31,13.01Zm-66.09,91.02c7.25-1.64,15.97-1.89,22.18-4.37,2.79-1.15,5.07-2.8,5.01-4.93-.08-3.36-5.5-6.54-9.53-9.61-4.31-3.27-7.48-7.27-6.34-10.67,1.36-4.06,8.28-6.07,14.7-7.7,1.12-.35,2.29-.48,3.46-.38.94.14,1.86.41,2.72.82,4.77,2,8.77,5.49,11.4,9.95,2.11,3.68,3.06,7.39,5.06,11.06,3.63,6.61,10.8,13.05,20.22,18.18,2.85.89,6.2,1.53,8.69,2.79,5.05,2.49,5.16,6.69,2.3,9.22s-7.67,4.04-11.46,6.1c-4.47,2.42-7.42,5.6-10.98,8.48-4.09,3.45-9.08,5.68-14.38,6.42-6.33.89-14.89-.46-19.59-3.99-2.87-2.14-3.93-4.75-6.59-6.97-6.83-5.76-22.43-7.65-26.83-13.83-3.36-4.85,2.74-8.99,9.99-10.62l-.02.05Zm80.65-1.3c-6.38,0-13.83-2.3-17.47-5.76-1.54-1.58-2.72-3.47-3.46-5.55-1.29-3.02-2.58-6.02-3.87-9.01-1.71-4.02-3.46-8.15-7.37-11.95-4.81-4.48-10.89-7.37-17.4-8.27-4.1-.56-9.15-.6-11.59-2.72s.14-4.27,2.21-5.96c3.15-2.33,5.26-5.8,5.88-9.67.33-2.43,0-5.05,1.21-7.27,1.92-3.36,7.8-5.5,14.6-5.25s14.15,2.81,18.26,6.41c3.15,2.73,4.32,5.83,5.45,8.8,3,7.98,5.97,15.93,8.98,23.92,1.72,4.61,3.54,9.31,8.32,13.54,2.05,1.81,4.61,3.46,6.54,5.3,2.97,2.78,5.05,4.49,4.91,7.34-.13.45-.3.88-.51,1.29-2.25,3.06-8.28,4.79-14.69,4.77v.05Zm-107.05-147.14c2.24-7.66,14.58-11.79,26.11-15.26,7.83-2.3,16.05-4.7,25.77-4.61s21.43,3.32,26.12,8.78c2.71,2.78,2.85,7.16.32,10.1-2.3,2.93-6.35,5.13-10.65,7.1-5.26,2.63-10.74,4.82-16.36,6.54-4.91,2.06-6.04,6.46-2.6,10.25.74.7,1.41,1.47,2,2.3,1.66,3.17-3.8,4.95-7.71,6.65-5.91,2.56-9.22,6.82-8.88,11.52.21,2.96,1.74,6.15.4,8.81s-7.4,4.33-11.95,2.18c-5.3-2.51-2.83-6.91-6.35-10.19-1.51-1.42-4.09-2.56-5.15-4.07-1.46-2.07.5-3.89,2.18-5.47,3.63-3.33,6.35-7.24,5.58-11.61-1.04-5.91-8.2-11.72-15.35-16.97-1.25-.8-2.36-1.81-3.26-2.98-.55-.96-.63-2.11-.23-3.13v.05Zm-75.24,92.12c-10.14,1.44-17.06,3.02-28.39,1.15-6.15-1.04-12.67-3.1-16.13-6.37-1.9-1.63-2.98-4.02-2.96-6.52,0-9.11,12.14-15.04,23.56-20.13l30.15-13.45c9.22-4.12,19.02-8.88,19.26-16.2.18-5.68-5.54-12.02-3.62-17.34,2.21-6.18,14.37-8.85,26.33-7.88,8.69.73,18.16,3.27,23.94,7.66,1.88,1.42,3.5,3.15,4.79,5.12,1.38,2.05,2.3,4.27,1.29,6.06-.76,1.29-2.51,2.22-3.87,3.32-5.01,4.01-4.26,10.47,1.83,15.57,2.1,1.77,4.78,3.46,6.19,5.32,2.7,3.72-.65,7.36-5.92,8.92-5.28,1.56-12.1,1.49-18.62,1.44-6.52-.05-13.32-.07-18.55,1.53-4.99,1.5-8.01,4.33-10.81,7.11-1.99,2.02-4.02,4.14-3.85,6.69s2.22,4.97,2.07,7.33-2.65,4.37-5.61,5.84c-4.61,2.24-6.53,2.5-12.84,3.58,0,0-1.97.24-2.55.4-1.09.21-3.59.5-5.71.79v.05Zm68.56,92.74c-.84,1.76-1.24,3.68-2.66,5.24-2.08,1.96-4.94,2.87-7.77,2.47-3.64-.33-6.84-2.15-9.6-3.84-3.93-2.37-8.13-5.13-8.49-8.01-.44-3.3,4.37-5.57,4.14-8.85-.27-3.78-8.72-7.7-14.85-6.86-3.7.47-5.96,2.24-8.61,3.59-7.55,3.56-16.08,4.45-24.2,2.52-3.47-1.04-6.77-2.59-9.78-4.61-4.12-2.64-8.07-5.47-10.08-8.62-3.77-5.9,0-11.44,4.68-16.03,6.03-5.85,12.79-10.88,20.12-14.98,3.89-2.22,8.48-4.39,14.66-4.32,3.11.13,6.21.46,9.29.98,4.83.61,9.69.83,14.46,1.81s9.74,2.97,11.65,5.65c3.11,4.39-3.03,8.07-2.03,12.43.7,3.08,5.31,6.27,10.75,7.45,3.89.83,7.78.7,11.67,1.05s8.45,1.5,10.28,3.64c1.22,1.43.92,2.94,1.66,4.42,2.56,5.14,15.64,7.56,19.59,12.59.31.41.59.88.45,1.28-.3.84-2.11,1-3.68.99-7.5,0-16.65-1.35-21.03,1.56l-.97.17c-4.65,1.95-8.02,4.84-9.64,8.2v.05Zm147.92,19.14c-5.93,1-11.99,1-17.92,0-4.7-.76-9.9-2.06-13.7-1.04s-4.32,4.09-3.68,6.8,1.98,5.62.38,7.92c-2.18,3.08-8.91,3.89-15.16,4.04-4.14.09-8.73-.07-12.67-1.6-2.04-.8-3.69-1.92-5.59-2.85-8.6-4.25-19.89-4-30.14-4.94-13.15-1.15-27.32-5.23-35.88-11.88s-9.54-15.93-.08-19.7c3.86-1.52,8.96-2.05,14.2-1.96,8.85.18,17.59,1.93,25.82,5.17,5.04,2,9.67,4.61,15.16,5.89,8.79,2.11,17.72.47,23.11-2.72s7.94-7.69,10.37-12.06c1.17-2.43,3.71-3.9,6.41-3.69,2.8.14,5.4,1.45,7.18,3.62,1.24,1.74,1.41,3.53,2.14,5.29,1.54,3.71,5.93,7.41,11.74,9.9l1.36.35c4.94-.65,9.95-.52,14.85.39,5.06,1.15,9.97,3.76,10.73,6.63.99,3.28-3.59,5.52-8.63,6.45Zm53.22-67.74c-4.78,3.8-12.42,6-18.9,8.88-12.59,5.65-20.87,14.09-23.25,23.76-.66,2.62-.9,5.32-2.05,7.81-1.21,2.47-3.11,4.53-5.47,5.93-3.98,2.38-8.59,3.5-13.22,3.21-5.42-.24-11.52-2.48-13.71-5.53-3.95-5.6,6.49-9.55,5.36-15.16-.83-4.18-7.97-8.76-5.76-12.39,2.3-3.87,13.55-3.31,16.43-6.99,1.86-2.36-.51-5.63-3.8-8.24s-7.52-4.83-10.45-7.51c-2.93-2.68-6.66-7.3-5.47-9.33.68-1.15,3-1,3.81-.89,7.5,1.04,12.8,7.48,20.15,7.7,2.53.01,5.04-.5,7.36-1.5,7.06-2.75,12.95-6.42,21.22-8.12,8.27-1.71,20.21-.83,27.03,3.89,6.57,4.56,5.48,10.66.71,14.47Zm26.01-57.76c-4.29,2.3-8.57,4.7-12.86,7.02-1.73.96-3.54,1.98-3.88,3.46-.88,3.58,6.8,6.91,10.99,10.45,3.39,2.82,4.61,6.27,3.21,9.01s-4.51,4.9-7.11,6.18c-3.94,1.95-12.89,2.68-18.75,1.15-5.85-1.53-11.59-4-17.5-4.22-3.12-.13-6.37.36-9.28-.71-4.4-1.66-3.74-5.02-5.22-7.74s-6-5.28-8.22-8.07c-3.06-3.92-1.22-7.97,2.79-10.65s9.95-4.16,15.7-5.63c5.75-1.47,11.67-3.01,15.65-5.68,3.34-2.3,5.24-5.27,9.37-7.07,6.43-2.78,17.96-1.68,25.28,2.4,2.43,1.37,4.46,3.11,4.74,4.82.35,2.28-2.36,3.89-4.92,5.3Z"/>
        </g>
      </g>
      <g id="freepik--Clouds--inject-56">
        <path id="freepik--Cloud--inject-56" class="cls-6" d="m66.17,10.15c0-5.55-6.13-9.41-13.08-10.06-6.13-.58-11.84,1.49-14.69,7.2-2.56-.64-5.25-.51-7.73.37-2.51.95-4.26,3.24-4.51,5.91-2.19-.91-4.68-.77-6.75.39-2.15,1.31-3.65,3.46-4.12,5.93-3.01-.17-6.02.34-8.8,1.5-.53.15-.98.5-1.26.98-.46,1.08.86,2.04,1.98,2.37,3.2.94,6.61.9,9.79-.12.36-.15.76-.2,1.15-.16.42.14.79.4,1.07.75,2.14,1.96,5,2.94,7.89,2.7,2.87-.28,5.58-1.5,7.7-3.46.23-.27.56-.43.91-.45.28.06.52.22.7.44,2.79,2.56,6.5,3.87,10.28,3.65,3.74-.25,7.34-1.56,10.37-3.77,1.69,1.12,3.47,2.12,5.3,3,1.87.61,3.8,1,5.76,1.15,4.09.28,8.1-1.24,10.98-4.15,1.31,1.23,4.92,1.61,7.8.92,1.9-.45,2.3-1.24,2.3-1.24,1.11.47,2.27.81,3.46,1.04,3.72.77,10.63,0,7.73-3.38-.98-1.15-4.61-1.84-6.14-1.5-1.62-3.17-8.13-6.18-11.88-3.46-.14-3.84-3.68-6.84-8.65-7.6-1.65-.28-5.67-.53-7.57,1.04Z"/>
        <path id="freepik--cloud--inject-56" class="cls-6" d="m435.04,22.6c0-4.61,5.04-7.74,10.74-8.27,5.04-.47,9.72,1.22,12.06,5.92,2.1-.53,4.31-.43,6.35.3,2.06.78,3.49,2.66,3.7,4.85,1.8-.75,3.84-.63,5.54.32,1.77,1.07,3,2.84,3.4,4.87,2.49-.12,4.98.32,7.27,1.29.43.12.8.41,1.03.81.38.89-.71,1.67-1.62,1.94-2.64.78-5.45.75-8.07-.08-.28-.12-.59-.17-.9-.14-.35.12-.66.33-.89.61-1.75,1.62-4.1,2.43-6.48,2.22-2.36-.23-4.58-1.23-6.33-2.83-.22-.36-.7-.48-1.06-.25-.1.06-.19.15-.25.25-2.28,2.06-5.3,3.11-8.36,2.94-3.08-.21-6.04-1.28-8.54-3.1-1.39.93-2.84,1.75-4.34,2.47-1.53.49-3.11.8-4.71.92-3.37.21-6.66-1.05-9.02-3.46-1.07,1-4.03,1.31-6.41.75-1.56-.37-1.91-1.03-1.91-1.03-.92.39-1.88.67-2.86.85-3.05.63-8.75,0-6.36-2.77.82-.93,3.79-1.52,5.05-1.23,1.34-2.6,6.68-5.07,9.75-2.87.13-3.16,3.03-5.62,7.11-6.24,1.31-.13,4.6-.33,6.12.96Z"/>
      </g>
      <g id="freepik--Bridge--inject-56">
        <path id="freepik--Shadow--inject-56" class="cls-19" d="m423.41,261.24c-29.82-17.7-65.31-29.96-102.98-36.87L6.6,405.59c11.12,23.84,32.43,46.35,64,65.1,18.96,11.07,39.13,19.91,60.12,26.34l340.21-196.41c-11.78-14.21-27.61-27.54-47.53-39.37Z"/>
        <g id="freepik--bridge--inject-56">
          <path class="cls-12" d="m351.41,291.41c.46.21.78.65.83,1.15v50.17c-.05.5-.37.94-.83,1.15l-14.98,8.63c-1.28.64-2.78.64-4.06,0l-54.86-31.67c-.47-.2-.79-.64-.84-1.15v-50.16c.05-.51.37-.95.84-1.15l14.98-8.63c1.28-.64,2.78-.64,4.06,0l54.86,31.66Z"/>
          <path class="cls-13" d="m332.4,302.38l-54.86-31.67c-.46-.21-.78-.65-.84-1.15v50.14c.05.51.37.95.84,1.15l54.86,31.67c.61.33,1.29.49,1.98.48v-50.16c-.69.01-1.37-.15-1.98-.47Z"/>
          <path class="cls-12" d="m332.96,319.54c-.09,0-.18-.02-.27-.07l-54.87-31.67c-.24-.19-.28-.54-.09-.78.15-.19.41-.26.64-.17l54.86,31.67c.26.15.35.48.2.74,0,0,0,0,0,.01-.1.17-.28.27-.47.27Z"/>
          <path class="cls-12" d="m332.96,312.61c-.09,0-.18-.02-.27-.07l-54.87-31.67c-.24-.19-.28-.54-.09-.78.15-.19.41-.26.64-.17l54.86,31.67c.26.15.35.48.2.74,0,0,0,0,0,.01-.1.17-.28.27-.47.27Z"/>
          <path class="cls-12" d="m284.34,291.44c-.3,0-.54-.24-.54-.54h0v-6.91c0-.3.24-.54.54-.54h0c.3,0,.55.24.55.54v6.91c0,.3-.25.54-.55.54Z"/>
          <path class="cls-12" d="m295.22,297.73c-.3,0-.54-.24-.54-.54h0v-6.91c0-.3.24-.54.54-.54h0c.3,0,.55.24.55.54v6.91c0,.3-.25.54-.55.54Z"/>
          <path class="cls-13" d="m336.45,302.38l14.98-8.63c.64-.26.94-.99.68-1.62-.13-.31-.37-.56-.68-.68l-54.89-31.71c-1.28-.64-2.78-.64-4.06,0l-14.98,8.63c-.64.24-.96.95-.71,1.59.13.33.38.59.71.71l54.86,31.67c1.28.67,2.8.68,4.09.03Z"/>
          <path class="cls-3" d="m359.69,277.43c.58.25.98.8,1.04,1.43v16.59c-.07.63-.46,1.17-1.04,1.43l-18.31,10.58c-1.56.78-3.4.78-4.95,0l-67.18-38.79c-.58-.25-.97-.8-1.03-1.43v-16.59c.05-.63.45-1.18,1.03-1.43l18.31-10.58c1.56-.79,3.4-.79,4.97,0l67.17,38.79Z"/>
          <path class="cls-10" d="m336.43,290.86l-67.18-38.78c-.56-.25-.94-.77-1.03-1.37v16.52c.07.63.46,1.17,1.04,1.43l67.18,38.78c.74.4,1.57.61,2.41.6v-16.59c-.84.01-1.68-.19-2.42-.59Z"/>
          <path class="cls-10" d="m341.39,290.86l18.31-10.58c.79-.25,1.23-1.09.98-1.88-.15-.47-.51-.83-.98-.98l-67.17-38.79c-1.56-.79-3.41-.79-4.97,0l-18.31,10.58c-.79.27-1.21,1.13-.94,1.92.15.44.5.79.94.94l67.18,38.79c1.56.78,3.4.78,4.95,0Z"/>
          <path class="cls-19" d="m341.39,290.86l18.31-10.58c.79-.25,1.23-1.09.98-1.88-.15-.47-.51-.83-.98-.98l-67.17-38.79c-1.56-.79-3.41-.79-4.97,0l-18.31,10.58c-.79.27-1.21,1.13-.94,1.92.15.44.5.79.94.94l67.18,38.79c1.56.78,3.4.78,4.95,0Z"/>
          <polygon class="cls-13" points="337.5 261.95 327.31 267.84 337.5 273.74 347.7 267.85 337.5 261.95"/>
          <polygon class="cls-14" points="347.7 267.85 347.7 279.63 337.5 285.51 337.5 273.74 347.7 267.85"/>
          <polygon class="cls-12" points="327.31 267.84 327.31 279.63 337.5 285.51 337.5 273.74 327.31 267.84"/>
          <polygon class="cls-13" points="287.35 233.16 277.15 239.05 287.35 244.93 297.54 239.05 287.35 233.16"/>
          <polygon class="cls-14" points="297.54 239.05 297.56 250.83 287.35 256.72 287.35 244.93 297.54 239.05"/>
          <polygon class="cls-12" points="277.15 239.05 277.15 250.83 287.35 256.72 287.35 244.93 277.15 239.05"/>
          <path class="cls-12" d="m464.8,225.95c.47.2.79.64.84,1.15v50.2c-.05.51-.38.95-.84,1.15l-14.98,8.64c-1.27.64-2.77.64-4.04,0l-54.84-31.69c-.47-.21-.79-.65-.84-1.15v-50.19c.06-.51.38-.94.84-1.15l14.98-8.63c1.27-.64,2.77-.64,4.04,0l54.84,31.66Z"/>
          <path class="cls-13" d="m445.8,236.97l-54.87-31.67c-.46-.21-.78-.65-.84-1.15v50.11c.07.5.38.94.84,1.15l54.87,31.66c.6.33,1.28.5,1.97.48v-50.16c-.68.03-1.36-.12-1.97-.43Z"/>
          <path class="cls-12" d="m446.36,282.05c-.1,0-.19-.02-.28-.07l-54.83-31.67c-.26-.15-.35-.48-.2-.74.15-.26.48-.35.74-.2h0l54.86,31.67c.26.15.35.48.21.74-.1.17-.28.28-.47.28h-.02Z"/>
          <path class="cls-12" d="m446.36,275.05c-.1,0-.19-.02-.28-.07l-54.83-31.67c-.26-.15-.35-.48-.2-.74.15-.26.48-.35.74-.2h0l54.86,31.67c.26.15.35.48.21.74-.1.17-.28.28-.47.28h-.02Z"/>
          <path class="cls-12" d="m446.36,268.08c-.1,0-.19-.02-.28-.07l-54.83-31.7c-.26-.15-.35-.48-.2-.74.15-.26.48-.35.74-.2h0l54.86,31.67c.26.15.35.48.21.74-.1.17-.28.28-.47.28l-.02.02Z"/>
          <path class="cls-12" d="m446.36,261.07c-.1,0-.19-.02-.28-.07l-54.83-31.67c-.26-.15-.35-.48-.2-.74.15-.26.48-.35.74-.2h0l54.83,31.64c.26.15.35.48.21.74-.1.17-.28.28-.47.28v.03Z"/>
          <path class="cls-12" d="m446.36,254.08c-.1,0-.19-.03-.28-.08l-54.83-31.67c-.26-.15-.35-.48-.2-.74.15-.26.48-.35.74-.2h0l54.83,31.72c.26.15.35.48.21.75-.11.15-.29.24-.47.23Z"/>
          <path class="cls-12" d="m446.36,247.15c-.1,0-.19-.02-.28-.07l-54.83-31.67c-.26-.15-.35-.48-.2-.74.15-.26.48-.35.74-.2h0l54.83,31.73c.26.15.35.48.21.74-.1.17-.28.28-.47.28v-.06Z"/>
          <path class="cls-12" d="m397.74,225.97c-.3,0-.54-.24-.54-.54h0v-6.91c0-.3.24-.54.54-.54s.54.24.54.54h0v6.91c0,.3-.24.54-.54.54h0Z"/>
          <path class="cls-12" d="m408.62,232.26c-.3,0-.55-.24-.55-.54v-6.91c0-.31.25-.55.55-.55h0c.3,0,.54.24.54.54,0,0,0,0,0,.01v6.91c0,.3-.24.54-.54.54h0Z"/>
          <path class="cls-12" d="m419.49,238.55c-.31,0-.55-.25-.55-.55h0v-6.91c0-.31.25-.55.55-.55h0c.3,0,.54.24.54.54,0,0,0,0,0,.01v6.91c0,.3-.23.55-.53.55,0,0,0,0-.01,0Z"/>
          <path class="cls-12" d="m430.43,244.83c-.3,0-.55-.24-.55-.54v-6.91c0-.31.25-.55.55-.55h0c.3,0,.54.24.54.54,0,0,0,0,0,.01v6.91c0,.3-.24.54-.54.54h0Z"/>
          <path class="cls-12" d="m441.25,251.12c-.3,0-.55-.24-.55-.54v-6.91c0-.3.25-.55.55-.55.3,0,.54.25.54.55v6.91c0,.3-.24.54-.54.54h0Z"/>
          <path class="cls-12" d="m403.48,236.34c-.3,0-.54-.24-.54-.54h0v-6.91c0-.3.24-.54.54-.54s.54.24.54.54v6.91c0,.3-.24.54-.54.54h0Z"/>
          <path class="cls-12" d="m414.35,242.61c-.3,0-.55-.24-.55-.54v-6.91c0-.3.25-.54.55-.54.3,0,.54.24.54.54h0v6.91c0,.3-.24.54-.54.54h0Z"/>
          <path class="cls-12" d="m425.23,248.88c-.3,0-.55-.24-.55-.54v-6.97c0-.3.25-.54.55-.54.3,0,.54.24.54.54h0v6.97c0,.3-.24.54-.54.54h0Z"/>
          <path class="cls-12" d="m436.11,255.15c-.31,0-.55-.25-.55-.55h0v-6.99c0-.3.25-.54.55-.54.3,0,.54.24.54.54h0v6.99c0,.3-.23.55-.53.55,0,0,0,0-.01,0Z"/>
          <path class="cls-12" d="m397.74,239.98c-.3,0-.54-.24-.54-.54h0v-6.91c0-.3.24-.54.54-.54s.54.24.54.54v6.91c0,.3-.24.54-.54.54h0Z"/>
          <path class="cls-12" d="m408.62,246.27c-.3,0-.55-.24-.55-.54v-6.91c0-.31.25-.55.55-.55h0c.3,0,.54.24.54.54,0,0,0,0,0,.01v6.91c0,.3-.24.54-.54.54h0Z"/>
          <path class="cls-12" d="m419.49,252.56c-.3,0-.55-.25-.55-.55v-6.91c0-.31.25-.55.55-.55h0c.3,0,.54.24.54.54,0,0,0,0,0,.01v6.91c0,.3-.24.55-.54.55Z"/>
          <path class="cls-12" d="m430.43,258.86c-.3,0-.55-.24-.55-.54v-6.91c-.03-.3.19-.58.49-.61.02,0,.04,0,.06,0,.3,0,.54.24.54.54,0,0,0,0,0,.01v6.91c.03.3-.18.56-.48.6-.02,0-.04,0-.06,0Z"/>
          <path class="cls-12" d="m441.25,265.13c-.3,0-.55-.24-.55-.54v-6.91c0-.31.25-.55.55-.55h0c.3,0,.54.24.54.54,0,0,0,0,0,.01v6.91c0,.3-.24.54-.54.54h0Z"/>
          <path class="cls-12" d="m403.48,250.35c-.3,0-.54-.24-.54-.54h0v-6.91c0-.3.24-.54.54-.54s.54.24.54.54h0v6.91c0,.3-.24.54-.54.54h0Z"/>
          <path class="cls-12" d="m414.35,256.62c-.3,0-.55-.24-.55-.54v-6.91c0-.3.25-.54.55-.54.3,0,.54.24.54.54h0v6.91c0,.3-.24.54-.54.54h0Z"/>
          <path class="cls-12" d="m425.23,262.89c-.31,0-.56-.24-.56-.54,0,0,0-.02,0-.02v-6.91c0-.3.25-.54.55-.54.3,0,.54.24.54.54h0v6.91c.01.3-.22.55-.52.56,0,0,0,0-.01,0Z"/>
          <path class="cls-12" d="m436.11,269.17c-.3,0-.55-.25-.55-.55v-6.99c0-.3.25-.54.55-.54.3,0,.54.24.54.54h0v6.99c0,.3-.24.55-.54.55Z"/>
          <path class="cls-12" d="m397.74,253.99c-.3,0-.54-.24-.54-.54h0v-6.91c0-.3.24-.54.54-.54s.54.24.54.54v6.91c0,.3-.24.54-.54.54h0Z"/>
          <path class="cls-12" d="m408.62,260.28c-.3,0-.55-.24-.55-.54v-6.91c0-.31.25-.55.55-.55h0c.3,0,.54.24.54.54,0,0,0,0,0,.01v6.91c0,.3-.24.54-.54.54h0Z"/>
          <path class="cls-12" d="m419.49,266.57c-.3,0-.55-.25-.55-.55v-6.91c0-.31.25-.55.55-.55h0c.3,0,.54.24.54.54,0,0,0,0,0,.01v6.91c0,.3-.24.55-.54.55Z"/>
          <path class="cls-12" d="m430.43,272.85c-.3,0-.55-.24-.55-.54v-6.91c0-.31.25-.55.55-.55h0c.3,0,.54.24.54.54,0,0,0,0,0,.01v6.91c0,.3-.24.54-.54.54h0Z"/>
          <path class="cls-12" d="m441.25,279.14c-.3,0-.55-.24-.55-.54v-6.91c0-.31.25-.55.55-.55h0c.3,0,.54.24.54.54,0,0,0,0,0,.01v6.91c0,.3-.24.54-.54.54h0Z"/>
          <path class="cls-13" d="m449.84,236.97l14.98-8.63c.64-.24.96-.95.71-1.59-.13-.33-.38-.59-.71-.71l-54.87-31.67c-1.27-.64-2.77-.64-4.04,0l-14.98,8.63c-.64.24-.96.95-.71,1.59.13.33.38.59.71.71l54.87,31.67c1.27.64,2.77.64,4.04,0Z"/>
          <path class="cls-3" d="m473.06,211.96c.58.26.97.8,1.03,1.43v16.6c-.06.62-.45,1.16-1.03,1.42l-18.31,10.58c-1.56.78-3.4.78-4.97,0l-67.18-38.79c-.58-.26-.97-.8-1.03-1.43v-16.64c.06-.63.45-1.17,1.03-1.43l18.31-10.58c1.56-.78,3.4-.78,4.97,0l67.18,38.84Z"/>
          <path class="cls-10" d="m449.82,225.45l-67.17-38.78c-.55-.25-.94-.77-1.04-1.37v16.52c.07.63.46,1.17,1.04,1.43l67.17,38.79c.75.39,1.58.59,2.42.59v-16.59c-.84.02-1.68-.19-2.42-.59Z"/>
          <path class="cls-10" d="m454.78,225.45l18.27-10.63c.79-.27,1.21-1.13.94-1.92-.15-.44-.5-.79-.94-.94l-67.18-38.79c-1.56-.78-3.4-.78-4.97,0l-18.31,10.58c-.79.27-1.21,1.13-.94,1.92.15.44.5.79.94.94l67.22,38.85c1.56.78,3.4.78,4.97,0Z"/>
          <path class="cls-19" d="m454.78,225.45l18.27-10.63c.79-.27,1.21-1.13.94-1.92-.15-.44-.5-.79-.94-.94l-67.18-38.79c-1.56-.78-3.4-.78-4.97,0l-18.31,10.58c-.79.27-1.21,1.13-.94,1.92.15.44.5.79.94.94l67.22,38.85c1.56.78,3.4.78,4.97,0Z"/>
          <polygon class="cls-13" points="450.89 196.48 440.69 202.38 450.89 208.27 461.1 202.38 450.89 196.48"/>
          <polygon class="cls-14" points="461.1 202.38 461.1 214.16 450.89 220.05 450.89 208.27 461.1 202.38"/>
          <polygon class="cls-12" points="440.69 202.38 440.69 214.16 450.89 220.05 450.89 208.27 440.69 202.38"/>
          <polygon class="cls-13" points="400.75 167.69 390.54 173.58 400.75 179.47 410.94 173.58 400.75 167.69"/>
          <polygon class="cls-14" points="410.94 173.58 410.94 185.37 400.75 191.25 400.75 179.47 410.94 173.58"/>
          <polygon class="cls-12" points="390.54 173.58 390.54 185.37 400.75 191.25 400.75 179.47 390.54 173.58"/>
          <polygon class="cls-10" points="365.26 128.15 243.84 198.26 243.84 219.66 248.25 222.21 369.66 152.1 369.66 130.69 365.26 128.15"/>
          <polygon class="cls-19" points="248.25 200.81 243.84 198.26 243.84 219.66 248.25 222.21 248.25 200.81"/>
          <polygon class="cls-6" points="248.25 222.21 369.66 152.1 369.66 130.69 248.25 200.81 248.25 222.21"/>
          <path class="cls-14" d="m371.5,115.55l-131.55,75.94v3.09l11.52-6.67v7.04c0,.74.6,1.34,1.34,1.34s1.34-.6,1.34-1.34v-8.58l19.05-10.99v7.04c0,.74.6,1.34,1.34,1.34s1.34-.6,1.34-1.34v-8.58l19.03-10.99v7.04c0,.74.6,1.34,1.34,1.34s1.34-.6,1.34-1.34v-8.58l19.05-10.99v7.04c0,.74.6,1.34,1.34,1.34s1.34-.6,1.34-1.34v-8.58l19.03-10.99v7.03c0,.74.6,1.34,1.34,1.34s1.34-.6,1.34-1.34v-8.58l19.14-11v7.05c0,.74.6,1.34,1.34,1.34s1.34-.6,1.34-1.34v-8.6l8.75-5.06-.06-3.05Z"/>
          <polygon class="cls-13" points="248.25 213.34 366.65 281.68 488.07 211.58 369.66 143.23 248.25 213.34"/>
          <polygon class="cls-13" points="487.96 211.65 366.53 281.76 248.14 213.42 369.54 143.31 487.96 211.65"/>
          <polygon class="cls-12" points="248.24 213.34 248.24 222.2 366.65 290.55 366.65 281.68 248.24 213.34"/>
          <polygon class="cls-10" points="488.07 199.04 366.65 269.15 366.65 290.55 371.07 293.1 492.47 222.99 492.48 201.59 488.07 199.04"/>
          <polygon class="cls-19" points="371.07 271.7 366.65 269.15 366.65 290.55 371.07 293.1 371.07 271.7"/>
          <polygon class="cls-6" points="371.07 293.1 492.47 222.99 492.48 201.59 371.07 271.7 371.07 293.1"/>
          <path class="cls-14" d="m493.5,186.92l-130.44,75.31v3.08l11.28-6.51v7.04c-.07.73.47,1.39,1.21,1.45s1.39-.47,1.45-1.21c0-.08,0-.17,0-.25v-8.58l19.05-10.99v7.04c0,.74.6,1.34,1.34,1.34s1.34-.6,1.34-1.34v-8.58l19.03-10.99v7.05c0,.74.6,1.34,1.34,1.34s1.34-.6,1.34-1.34v-8.6l19.03-10.99v7.05c0,.74.6,1.34,1.34,1.34s1.34-.6,1.34-1.34v-8.55l19.05-10.99v7.05c0,.74.6,1.34,1.34,1.34s1.34-.6,1.34-1.34v-8.6l19.03-10.99v7.05c0,.74.6,1.34,1.34,1.34s1.34-.6,1.34-1.34v-8.64l7.93-4.61v-3.04Z"/>
          <path class="cls-14" d="m245.89,357.71c-.2.14-.3.37-.28.61.04.66.38,1.26.93,1.62.21.12.46.12.67,0l121.94-70.46c.19-.14.3-.37.28-.61-.03-.66-.38-1.26-.93-1.62-.2-.14-.45-.17-.67-.07l-121.94,70.53Z"/>
          <path class="cls-14" d="m245.89,345.74c-.2.13-.3.36-.28.6.03.66.38,1.27.93,1.62.19.14.45.17.67.07l121.94-70.46c.19-.14.3-.37.28-.61-.03-.66-.38-1.26-.93-1.62-.2-.14-.45-.17-.67-.07l-121.94,70.47Z"/>
          <path class="cls-14" d="m123.24,286.91c-.19.14-.3.37-.28.61.03.66.38,1.26.93,1.62.2.14.45.17.67.07l121.94-70.47c.2-.13.3-.36.28-.6-.03-.66-.38-1.26-.93-1.62-.19-.14-.45-.17-.67-.07l-121.94,70.46Z"/>
          <path class="cls-13" d="m123.94,289.14c.2.14.45.17.67.07.19-.14.3-.37.28-.61-.04-.66-.39-1.27-.94-1.62-.23-.21-.59-.2-.8.03-.13.14-.18.33-.14.51.03.66.38,1.26.93,1.62Z"/>
          <path class="cls-14" d="m123.24,275c-.19.14-.3.37-.28.61.03.66.38,1.26.93,1.62.2.14.45.17.67.07l121.94-70.47c.2-.13.3-.36.28-.6-.03-.66-.38-1.27-.93-1.64-.21-.12-.46-.12-.67,0l-121.94,70.4Z"/>
          <path class="cls-13" d="m123.94,277.17c.2.14.45.17.67.07.19-.14.3-.37.28-.61-.03-.67-.39-1.27-.94-1.64-.23-.21-.59-.2-.8.03-.13.14-.18.33-.14.51.03.66.38,1.27.93,1.64Z"/>
          <polygon class="cls-10" points="122.13 268.52 .72 338.63 .72 360.03 5.13 362.57 126.55 292.47 126.55 271.07 122.13 268.52"/>
          <polygon class="cls-6" points="5.13 362.57 126.55 292.47 126.55 271.07 5.13 341.18 5.13 362.57"/>
          <path class="cls-14" d="m128.39,255.92L-3.16,331.87v3.04l11.52-6.68v7.04c0,.74.6,1.34,1.34,1.34.74,0,1.34-.6,1.34-1.34v-8.54l19.03-10.99v7.04c0,.74.6,1.34,1.34,1.34.74,0,1.34-.6,1.34-1.34h0v-8.61l19.05-10.99v7.05c0,.74.6,1.34,1.34,1.34.74,0,1.34-.6,1.34-1.34h0v-8.6l19.05-10.99v7.05c-.07.73.47,1.39,1.21,1.45.73.07,1.39-.47,1.45-1.21,0-.08,0-.17,0-.25v-8.6l19.05-10.99v7.05c0,.74.6,1.34,1.34,1.34.74,0,1.34-.6,1.34-1.34v-8.6l19.03-10.99v7.12c0,.74.6,1.34,1.34,1.34s1.34-.6,1.34-1.34v-8.64l8.76-5.05.03-3.09Z"/>
          <polygon class="cls-13" points="5.13 353.7 123.54 422.05 244.96 351.94 126.55 283.6 5.13 353.7"/>
          <polygon class="cls-13" points="244.96 351.94 123.53 422.05 5.14 353.7 126.55 283.59 244.96 351.94"/>
        </g>
      </g>
      <g id="freepik--character-2--inject-56">
        <path id="freepik--shadow--inject-56" class="cls-19" d="m290.53,213.64c-5.01,3.17-8.72,7.69-4.02,13.03,2.19,2.48,5.45,3.74,8.68,4.51,10.72,2.51,22.64.53,32.26,5.84,4.16,2.3,7.51,5.76,10.99,9,3.48,3.24,7.33,6.33,11.9,7.57,4.57,1.24,10.09.18,12.89-3.66,1.06-1.57,1.79-3.35,2.14-5.21,2.14-9.54-.13-19.54-6.18-27.23-13.75-17.28-41.57-14.33-59.91-7.96-3.06,1.05-5.99,2.43-8.76,4.11Z"/>
        <g id="freepik--Chartacter--inject-56">
          <g id="freepik--Top--inject-56">
            <path class="cls-9" d="m270.65,76.15c1.61,1.34,3.26,3.46,6,5.76s6.91,6.57,10.91,9.1,6.01,3.59,11.27-1.53c4.8-4.91,9.24-10.16,13.28-15.72l.5-19.51c-4.33,1.15-6.91,3.39-9.63,7.37-5.23,7.49-8.77,12.33-11.8,16.65,0,0-11.82-7.43-13.35-8.61-1.13-.87-1.94-2.08-2.3-3.46-.31-1.18-.69-2.33-1.15-3.46-.44-1.15-.61-1.65-1.15-3.16s-.86-4.02-1.03-4.61-1.26-.61-2.1.89c-.4.94-.56,1.98-.45,3,0,.91.25,2.03,0,2.17-.97-.22-1.93-.53-2.85-.92-1.29-.36-2.42-.96-3.88-.58-.93.17-1.54,1.06-1.37,1.99.02.1.05.21.09.31.16.36.41.67.74.9-.5-.07-1.01.06-1.41.38-.63.71-.69,1.76-.13,2.52-.57,0-1.06.4-1.15.96-.18.85-.12,1.71.73,2.07,0,0-.71.14-.77.54-.15.7.08,1.43.6,1.91.76.37,1.58.6,2.42.66,0,0,.12.32.92.77.85.58,1.74,1.1,2.66,1.56,1.56.47,3.04,1.16,4.4,2.04Z"/>
            <path class="cls-7" d="m291.18,78.33c2.13,1.51,3.54,3.83,3.91,6.42.44-2.86-.87-5.7-3.32-7.24l-.59.82Z"/>
            <path class="cls-13" d="m312.63,54.21c-2.45.55-4.7,1.77-6.5,3.51-1.86,1.76-5.24,6.82-7.26,9.62s-4.17,5.76-4.17,5.76c0,0-.31,7.4,8.91,11.64l8.83-10.7.2-19.83Z"/>
            <path class="cls-7" d="m265.06,69.82c.03.23-.04.46-.2.62-.19.21-.4.41-.63.58-.1.1-.21.19-.33.27-.11.08-.24.14-.37.18l-.85.27c.31.05.62.05.92,0,.16-.02.31-.08.45-.16.14-.08.27-.17.39-.27.24-.21.45-.44.63-.69.09-.14.13-.31.14-.47,0-.1-.03-.21-.08-.3.24-.05.47-.13.69-.23.37-.12.71-.33.98-.62.1-.17.17-.37.21-.56.02-.06.02-.12,0-.18l.28-.38c.21.78.6,1.5,1.15,2.1.64.75,1.46,1.32,2.37,1.68-.87-.5-1.58-1.23-2.05-2.12-.69-1.37-.75-2.98-.18-4.4h.07c.12-.08.22-.19.29-.32.12-.25.14-.54.06-.81-.07-.24-.19-.47-.33-.68-.61-.76-1.45-1.28-2.4-1.5-.09-.19-.2-.37-.35-.53-.14-.17-.3-.32-.47-.45.15.15.29.32.41.5.13.16.23.35.29.55h0c.89.26,1.67.8,2.24,1.53.28.31.37.75.23,1.15-.12.2-.2.25-.41.22s-.45-.1-.69-.14c-.47-.09-.94-.12-1.41-.18-.45-.08-.89-.22-1.31-.4-.43-.18-.84-.41-1.26-.65-.4-.22-.79-.47-1.15-.75.7.63,1.47,1.17,2.3,1.6.43.23.89.38,1.37.47.47.08.94.12,1.39.21h.28c.17.14.27.35.29.56.02.38-.18.74-.52.92-.33.22-.68.4-1.05.54-.37.14-.76.21-1.15.22-.78-.15-1.53-.41-2.24-.77-.76-.32-1.51-.63-2.3-.91.71.4,1.44.77,2.18,1.15.36.18.73.36,1.15.53.38.18.79.3,1.21.35.27-.01.53-.05.78-.13.25.07.46.22.61.43.1.13.13.3.08.46-.04.16-.11.31-.21.45-.26.23-.57.4-.9.51-.31.15-.65.22-.99.22-.35-.07-.69-.19-1-.35-.36-.12-.72-.21-1.09-.27-.72-.14-1.45-.24-2.19-.3.71.2,1.43.36,2.14.54.35.08.7.18,1.04.3.34.18.7.31,1.07.39.14.02.28.03.43.02Z"/>
            <g id="freepik--Chest--inject-56">
              <path class="cls-5" d="m332.09,55.21c3.46.15,5.15.94,8.78,2.5,4.16,1.79,4.99,2.14,7.09,3.24,1.13,7.04,1.13,14.21,0,21.25-.44,2.57-1.99,9.67-2.09,15.07-.16,5.62.23,11.24,1.15,16.79,0,0-8.07,6.51-25.82,5.92-13.96-.46-15.99-5.51-15.99-5.51,0,0-.73-23.22-.8-33.49-.1-13.5,5.13-24.29,8.07-26.77,3.23-.56,6.5-.83,9.78-.8,3.21.02,6.36,1.64,9.83,1.8Z"/>
            </g>
            <g id="freepik--Head--inject-56">
              <path class="cls-14" d="m335.95,25.13c1.65.25,3.06,1.3,3.78,2.8.78,1.36,1.41,3.89-.27,11.26-.64,2.87-1.71,5.64-3.17,8.19-.42.84-1.17,1.49-2.06,1.79l-.09-5.6v-3.92s-3.26-2.72-3.65-5.51c-.38-1.96-.09-3.99.82-5.76l4.64-3.25Z"/>
              <path class="cls-14" d="m336.67,25.29c-.68-3.13-4.84-6.72-12.56-6.8-6.31-.07-9.74,3.39-11.78,7.17-1.21,2.18-1.24,4.82-.07,7.02l19.26-1.82,5.14-5.57Z"/>
              <path class="cls-9" d="m339.32,44.95c-2.85,1.53-4.26-.7-4.26-.7l.52,11.83c-5.25,7.7-20.74,5.38-14.84-.46l-.1-2.63c-.84,0-1.69-.04-2.52-.14-2.45-.09-4.54-1.8-5.12-4.18-.54-1.89-.92-3.81-1.15-5.76-.42-2.54-.35-5.14.21-7.66.45-1.45-.23-3.31.09-5.09.11-1.41.83-2.7,1.97-3.54,3.02-1.65,5.97.43,10.37,1.91,1.81.62,6.13.75,7.25.16-1.43,1.72-1.15,6.91,1.15,8.98.3.53.69,1,1.15,1.39.98.77,1.66-1.37,2.41-2.22,1.33-1.21,3.38-1.11,4.59.21.2.22.37.47.5.73,1.37,2.57.4,5.77-2.17,7.14-.02,0-.03.02-.05.02Z"/>
              <path class="cls-7" d="m320.63,52.97c2.84-.03,5.65-.59,8.3-1.64,1.96-.92,3.61-3.69,4.07-6.38.09,2.15-.68,6-3.63,7.71-2.69,1.35-5.65,2.07-8.66,2.09l-.07-1.77Z"/>
              <path class="cls-12" d="m325.12,33.03l2.9,1.07c.28-.82-.13-1.72-.94-2.04-.8-.28-1.67.14-1.95.94,0,0,0,.02,0,.02Z"/>
              <path class="cls-12" d="m313.47,33.94l2.89-1.28c-.29-.77-1.15-1.15-1.92-.85-.03.01-.06.02-.08.04-.81.34-1.21,1.27-.89,2.1Z"/>
              <path class="cls-14" d="m326.48,36.39c-.07.7-.69,1.21-1.38,1.14-.6-.06-1.08-.54-1.14-1.14-.07-.7.44-1.32,1.14-1.38.7-.07,1.32.44,1.38,1.14,0,.08,0,.16,0,.24Z"/>
              <path class="cls-14" d="m316.74,36.28c0,.7-.56,1.26-1.26,1.27-.7-.07-1.21-.69-1.14-1.38.06-.6.54-1.08,1.14-1.14.69.01,1.24.57,1.26,1.26Z"/>
              <path class="cls-7" d="m320.97,34.27l-.7,8.07-4.3-1.38c1.14-2.58,2.85-4.86,5-6.68Z"/>
              <path class="cls-11" d="m323.77,43.29l-4.54.98c.22,1.25,1.42,2.09,2.67,1.86.02,0,.03,0,.05,0,1.27-.3,2.08-1.55,1.82-2.83Z"/>
              <path class="cls-4" d="m323.27,44.03c.19-.02.38-.02.56,0-.11,1.01-.85,1.85-1.84,2.09-.25.05-.5.05-.75,0,.03-1.12.91-2.03,2.03-2.09Z"/>
            </g>
          </g>
          <g id="freepik--Bottom--inject-56">
            <path class="cls-9" d="m321.31,203.76l1.15-10.83-12.54.82s.18,5.88.37,9.22c.1,1.97-2.58,5.62-2.58,5.62,0,0,5.89,3.12,9.04,2.03,2.42-1.04,4.2-3.19,4.78-5.76-.02-.92-.23-1.09-.23-1.09Z"/>
            <path class="cls-14" d="m291.13,220.66c-.41.98-.2,2.12.53,2.89,2.85,1.88,6.28,2.66,9.66,2.2,3.38-.17,6.64-1.31,9.39-3.28,1.95-1.46,4.68-3.46,6.91-3.93,1.73-.26,3.39-.86,4.9-1.75.65-.56.6-3.13.6-3.13l-31.98,7.01Z"/>
            <path class="cls-13" d="m321.31,203.73c.35.01.65.26.71.61.14.71.27,2.78.56,3.94.46,2.05.59,4.16.37,6.24-.29,1.31-3.59,2.18-5.76,2.88-2.48.95-4.81,2.26-6.91,3.87-3.04,2.01-6.57,3.16-10.21,3.33-3.71-.09-7.87-1.28-8.8-2.88-1.15-1.99-1.97-4.29,3.56-6.56,1.05-.43,4.75-2.37,6-3.08,3.4-1.9,5.76-3.66,7.41-7.11.14-.43.43-.8.81-1.05.34-.13.71-.16,1.07-.08,1.82.22,3.62.57,5.39,1.05.74.33,1.77.74,1.74,1.61-.02.31-.09.61-.22.89-.07.17-.13.4,0,.52s.37,0,.52-.13c.55-.5,1.05-1.04,1.51-1.62.26-.3.55-.56.88-.8.33-.17.65-.35.96-.55.46-.3.39-.69.41-1.09Z"/>
            <path class="cls-5" d="m306.6,222.52v-.2c-.27-.79-.68-1.52-1.21-2.15-.08-.09-.16-.2-.25-.29-.72-.88-1.55-1.65-2.48-2.3-.7-.44-1.45-.81-2.19-1.15-1.37-.82-2.85-1.41-4.4-1.76-.46.23-.85.41-1.09.51-5.53,2.3-4.71,4.61-3.56,6.56.93,1.6,3.94,2.9,8.73,2.98,1.74-.04,3.46-.36,5.09-.94.47-.09.93-.26,1.36-.48.17-.14.1-.47,0-.76Z"/>
            <path class="cls-14" d="m306.19,216.96c.07.03.15.03.22,0,.12-.12.13-.32,0-.44,0,0,0,0,0,0-.94-1.15-5.47-3.77-8-3.56-.17,0-.3.13-.3.3,0,.01,0,.02,0,.04.02.18.19.31.37.29,2.3-.2,6.65,2.45,7.4,3.33.09.07.2.09.31.06Z"/>
            <path class="cls-14" d="m309.19,215.4c.08,0,.15-.02.22-.07.12-.1.14-.29.03-.41,0-.01-.02-.02-.03-.03-.96-1.15-5.48-3.78-8.01-3.56-.17,0-.3.13-.3.3,0,.01,0,.02,0,.04.02.18.19.31.37.29,2.3-.2,6.66,2.45,7.41,3.33.07.1.19.14.31.12Z"/>
            <path class="cls-14" d="m311.99,213.62c.08,0,.15-.03.22-.07.12-.11.13-.3.01-.42,0,0,0,0-.01-.01-.94-1.15-5.48-3.78-8-3.57-.18.01-.31.17-.3.34,0,0,0,0,0,0,.02.17.17.3.34.28,0,0,.01,0,.02,0,2.3-.18,6.66,2.45,7.41,3.34.08.08.2.13.31.12Z"/>
            <path class="cls-14" d="m314.73,211.82c.07.03.14.03.21,0,.13-.09.17-.26.09-.4,0-.01-.02-.03-.03-.04-1.3-1.58-6.05-3.83-8.57-3.61-.18,0-.32.16-.31.33h0c.03.18.19.3.37.29,2.3-.2,6.82,1.97,7.98,3.36.08.06.17.08.27.06Z"/>
            <path class="cls-9" d="m343.92,214.01l-2.87-10.25,12.77-1.96.58,9.93s1.35,3.55.58,4.85-9.22,2.79-10.06,1.94-.99-4.51-.99-4.51Z"/>
            <path class="cls-14" d="m345.23,236.39c.41,3.17,1.15,5.22,2.53,6.91s3.89,1.97,6.34,1.08,5.52-2.79,6.06-5.65c.48-2.55.31-5.17-.48-7.64l-14.45,5.29Z"/>
            <path class="cls-13" d="m354.38,211.73c1.03-.07.82,4.3,1.68,8.53.92,4.54,2.62,6.23,3.46,9.95.92,4.24.78,6.21-.78,9.06s-7.51,6.24-10.77,2.9c-2.65-2.72-2.96-6.1-3.02-10.45.06-3.69-.1-7.37-.47-11.04-.4-3.21-1.39-6.06-.53-6.54.1.47.21,1.06.31,1.52s.29,2.1.86,2.04c.02-.41,0-.83-.07-1.23-.08-.38,0-.77.22-1.08.49-.38,1.04-.67,1.64-.85.99-.3,2.77-.7,3.78-.92.51-.1,1.03-.2,1.53-.25.43-.07.87-.07,1.3,0,.24.02.45.16.58.36.07.15.1.32.09.48.01.3.08.6.18.88,0,.13.15.27.3.22.1-.06.16-.17.15-.29,0-.52-.13-.89-.2-1.5,0-.28-.1-.66-.13-.93s-.12-.56-.12-.84Z"/>
            <path class="cls-5" d="m357.68,232.89l-.36-.13c-1.17-.32-2.4-.39-3.61-.21-2.43.25-4.73,1.19-6.64,2.71-.54.43-1,.95-1.37,1.53-.4.68-.2,1.04,0,1.74.45,1.36,1.2,2.6,2.2,3.63,3.26,3.34,9.22,0,10.77-2.9.78-1.22,1.23-2.62,1.33-4.07.01-1.07-1.31-1.91-2.33-2.3Z"/>
            <path class="cls-14" d="m347.55,232.05h.13c2.7-1.42,5.71-2.1,8.76-1.99.2.01.38-.12.44-.31.03-.17-.09-.33-.26-.35-.02,0-.03,0-.05,0-3.21-.13-6.39.6-9.22,2.11-.16.07-.24.26-.17.42,0,.01.01.03.02.04.09.09.23.13.36.09Z"/>
            <path class="cls-14" d="m355.97,226.82c.15-.02.27-.13.31-.27.05-.17-.05-.34-.22-.38-.02,0-.03,0-.05,0-3.21-.32-6.44.39-9.22,2.03-.16.08-.23.27-.15.43,0,.01.02.03.02.04.13.15.35.18.52.07,0,0,4.31-2.6,8.64-1.9.05,0,.09,0,.14-.01Z"/>
            <path class="cls-14" d="m355.04,223.92c.13-.03.23-.13.27-.25.05-.17-.05-.35-.22-.4,0,0,0,0-.01,0-2.94-.56-5.98.1-8.43,1.82-.15.11-.19.32-.08.47.13.13.34.13.47,0,2.29-1.58,5.12-2.19,7.86-1.69.04.03.1.05.15.06Z"/>
            <path class="cls-14" d="m354.47,220.54c.12-.03.22-.12.27-.24.05-.17-.05-.35-.22-.4,0,0,0,0-.01,0-4.32-1.01-8.25,1.79-8.41,1.91-.15.09-.2.29-.1.44,0,0,0,.01.01.02.11.15.32.18.47.07,0,0,0,0,0,0,0,0,3.84-2.73,7.83-1.8h.16Z"/>
            <path class="cls-15" d="m346.58,105.68c2.9,24.29,5.33,59.13,5.33,59.13.21,1.91,1.6,5.16,2.67,14.59,1.15,9.93,1.65,35.84,1.65,35.84-1.15,3.81-10.48,5.67-13.34,1.99,0,0-8.56-31.11-11.2-42.84-2.72-12.1-5.63-30.04-5.63-30.04l-1.57,17.99s.54,6.16.41,11.19c-.14,5.84-2.3,34.75-2.3,34.75,0,0-9,2.21-14.85-2.17,0,0-3.81-35.72-4.09-42.76-.56-13.83.85-39.91,1.04-57.72l18.29-6.67,23.6,6.72Z"/>
            <path class="cls-15" d="m346.58,105.68l-.22-4.06c-3.56-.59-8.32-5.17-7.69-19.11.77-17.21,5.61-23.75,5.61-23.75l-5.28-2.18c-2.64,4.34-4.66,9.04-6,13.94l-20.21-.93s2.3-11.93,6.08-16.13c-1.75.01-3.51.15-5.24.39-3.78,5.47-6.21,11.76-7.09,18.35-.84,7.67-1.19,15.39-1.04,23.11,0,4.78-.68,5.91-.68,5.91l-.15,4.4,41.89.05Z"/>
            <path class="cls-19" d="m326.06,144.36l-3.18-17.87s-6.75-.88-10.25-3.96c0,0,2.3,4.12,8.68,5.63l3.12,16.27.06,17.92,1.58-17.99Z"/>
          </g>
          <g id="freepik--Arm--inject-56">
            <path class="cls-9" d="m348.18,62.08c-3.63.25-5.13,3.11-6.01,7.03-.51,2.3-.79,4.64-.83,6.99l-.5,17.82-12.52,12.67c-.86.72-1.79,1.35-2.78,1.88-.93.4-1.88.72-2.86.98-1.09.31-2.14.77-3.12,1.35-1.04.62-2.06,1.28-3.06,1.97-2,1.39-3.92,2.88-5.76,4.47-.54.41-.99.94-1.29,1.56-.29.64-.1,1.4.46,1.83-.52.47-.94,1.03-1.26,1.66-.32.64-.28,1.39.09,1.99.14.1.17.29.07.43-.02.03-.04.05-.07.07-.37.43-.7,1.04-.21,1.47.38.28.85.38,1.31.29.5-.11.98-.31,1.42-.58.13.24.31.45.53.61.28.14.6.2.91.17,1.3-.17,2.52-.68,3.56-1.47.46-.3.94-.48,1.39-.83l1.82-1.36c.62-.5,1.29-.95,1.99-1.34.09-.06.19-.09.3-.07.11.06.17.18.16.3-.03.12-.08.23-.15.33-.7.93-1.04,2.09-.97,3.25.07.43.46.97.93.86s1.15-.96,1.56-1.37c1.03-1.07,2.13-2.07,3.28-3.01,1.49-.94,2.72-2.24,3.59-3.77.34-.87.94-1.6,1.72-2.11,1.33-.93,14.98-8.24,17.82-10.47,3.19-2.51,4.46-1.95,5.4-12.46,1.07-11.96,3.86-28.4-6.95-31.18Z"/>
            <path class="cls-13" d="m347.95,60.95c5.65,2.17,7.69,5.14,8.28,8.7,1.26,7.41-.31,20.37-.31,20.37,0,0-9.15,3.46-15.22-2.3,0,0,.1-4.26.27-8.45.37-9.06-.32-15.55,6.98-18.32Z"/>
          </g>
        </g>
      </g>
      <g id="freepik--character-1--inject-56">
        <g id="freepik--Character--inject-56">
          <g id="freepik--top--inject-56">
            <path class="cls-8" d="m146.83,184.32c.1-.23.2-.47.31-.73.66-1.64,2.2-2.75,3.46-3.85,1.13-.96,2.19-1.99,3.19-3.09.4-.43.92-1.28,1.52-1.42s.88.41.96.84c.11,1.16-.2,2.32-.88,3.27-.07.1-.11.21-.14.33-.02.13.05.25.16.3.1.01.21-.01.3-.07.69-.41,1.34-.88,1.96-1.39l1.79-1.42c.45-.36.92-.55,1.37-.86,1-.81,2.19-1.35,3.46-1.57.32-.04.63.01.92.15.22.16.41.36.54.6.43-.29.9-.5,1.41-.62.45-.11.93-.01,1.31.25.51.43.2,1.05-.16,1.47-.06.08-.13.15-.13.24.01.11.06.2.14.28.39.59.45,1.35.15,1.99-.29.62-.68,1.19-1.15,1.68.57.42.78,1.17.51,1.82-.29.62-.72,1.17-1.26,1.59-1.8,1.64-3.68,3.18-5.65,4.61-.98.71-1.98,1.41-3.01,2.06-.97.6-2,1.08-3.09,1.43-.97.28-1.91.63-2.82,1.05-1.05.64-2.03,1.38-2.94,2.21l-6.5-7.66,1.95-1.41c.54-.39,1.07-.81,1.62-1.15.33-.23.57-.57.69-.96Z"/>
            <path class="cls-13" d="m117.67,168.99c-6.01-.21-8.75,1.38-11.11,4.72s-2.44,9.08-.38,17.95c2.44,10.52,3.32,13.19,4.41,16.88.9,3.04,4.22,4.24,5.54,3.8,4.18-1.37,6.65-2.06,8.13-2.58l-6.6-40.78Z"/>
            <g id="freepik--bridge--inject-56-2" data-name="freepik--bridge--inject-56">
              <polygon class="cls-13" points="366.65 143.2 230.51 221.81 112.12 153.47 248.25 74.86 366.65 143.2"/>
              <polygon class="cls-12" points="112.11 153.47 112.11 162.35 230.52 230.68 230.52 221.81 112.11 153.47"/>
              <polygon class="cls-14" points="366.65 143.2 366.65 152.07 230.52 230.68 230.52 221.81 366.65 143.2"/>
              <polygon class="cls-14" points="366.65 143.2 248.25 74.86 364.34 143.2 230.51 221.81 366.65 143.2"/>
            </g>
            <path class="cls-5" d="m121.72,169.42c3.89.65,14.9,4.76,26.02,13.48,1.04.81,3.26,6.31,3.98,16.04.71,9.72.23,34.1.23,34.1,0,0-10.09,8.33-28.27,2.53-5.46-1.72-10.31-4.96-13.99-9.36-.23-4.55-.13-9.22-.73-18.79-.52-8.41-2.37-16.36-2.39-23.04,0-8.28,2.3-12.67,7.02-14.49,2.58-1.07,5.45-1.24,8.13-.47Z"/>
            <path class="cls-8" d="m199.03,192.49c.01-.09.06-.18.13-.24.36-.44.67-1.05.16-1.49-.38-.26-.86-.35-1.31-.25-.5.12-.98.33-1.41.62-.14-.24-.32-.44-.54-.6-.29-.13-.61-.18-.92-.14-1.27.21-2.46.75-3.46,1.56-.46.32-.92.52-1.37.88l-1.84,1.42c-.61.52-1.27.98-1.96,1.38-.08.07-.19.09-.3.07-.11-.05-.18-.17-.16-.29.02-.12.07-.23.14-.33.67-.96.98-2.12.88-3.28-.08-.41-.48-.94-.96-.84s-1.15,1-1.52,1.43c-.99,1.09-2.06,2.12-3.19,3.08-1.3,1.09-2.85,2.22-3.46,3.85-.12.27-.21.51-.31.74-.5.94-1.31,1.67-2.3,2.05l-14.05,7.24s-5.24-12.9-7.33-17.28c-2.66-5.63-3.33-7.11-6.14-8.76-8.89.92-9.92,14.77-8.24,18.44,3.38,7.29,4.77,8.99,9.55,16.82,3.16,5.18,6.33,9.01,9.98,7.81,5.31-1.75,16.04-11.21,22.18-16.21h0c.47-.38.98-.7,1.52-.98.92-.42,1.86-.77,2.82-1.06,1.09-.34,2.12-.82,3.09-1.43,1.03-.66,2.03-1.34,3.01-2.05,1.96-1.43,3.85-2.97,5.65-4.61.54-.42.97-.97,1.26-1.59.27-.65.06-1.4-.51-1.81.47-.5.86-1.07,1.15-1.69.3-.65.24-1.4-.15-1.99-.11-.12-.14-.29-.08-.44Z"/>
            <path class="cls-4" d="m161.27,209.32c.62,2.79.38,5.7-.67,8.35,1.74-2.71,2.47-5.94,2.06-9.13l-1.39.77Z"/>
            <path class="cls-13" d="m147.74,182.9c3.72,2.14,4.42,3.91,6.91,9.82s5.52,13.15,5.52,13.15c0,0-.58,2.82-5.02,5.92-2.82,1.83-6.28,2.38-9.53,1.52,0,0-4.61-7.72-6.26-11.13-1.45-3.01-2.33-17.87,8.38-19.28Z"/>
            <g id="freepik--head--inject-56">
              <path class="cls-4" d="m143.53,149.09c.68.81,1.52,1.53,3.23,6.3l-2.07,1.53-1.15-7.83Z"/>
              <path class="cls-8" d="m120.61,170.59s.16,2.73,3.61,4.48c4.61,2.3,11.59-.18,11.59-.18v-7.21c1,.15,2,.25,3.01.3,1.86,0,4.26-.17,5.28-2.1,1.26-2.36,1.64-6.1,1.06-10.37s-.85-3.88-.69-6.91-1-4.61-3.26-8.53-11.74-6.76-19.78-3.09-9.04,9.6-8.38,13.88,4.61,9.49,6.19,12.67c.31.73.77,1.39,1.34,1.95,0,1.98.05,5.1.05,5.1Z"/>
              <path class="cls-4" d="m144.01,166.03c-1.08.78-2.43,1.1-3.74.9-1.53-.23-4.46-.75-4.46-.75v1.5c1,.15,2,.25,3.01.3,1.81-.02,4.14-.14,5.2-1.95Z"/>
              <path class="cls-4" d="m133.43,150.74c-.47.14-.92.33-1.35.56-.58.33-1.05.81-1.36,1.39-.41,1.05-.46,2.2-.15,3.28.06.39.16.78.3,1.15.36,1.02,1.24,1.76,2.3,1.95.37.05.74.01,1.09-.1.07,0,.2,0,.2.06v.09c-.18.17-.4.3-.63.38-.98.35-2.06.25-2.95-.29-.89-.54-1.58-1.35-1.98-2.3-.32-.73-.53-1.51-.61-2.3-.11-.63-.16-1.28-.15-1.92.15-1.2.72-2.31,1.6-3.13.62-.72,1.65-.93,2.51-.52.32.22.6.48.84.78.16.15.37.23.54.37s.31.23.31.41l-.52.14Z"/>
              <path class="cls-14" d="m143.83,144.8c-.43-1.15-3.46-2.6-3.68-.76s-.09,4.61-.84,6-1.81,1.15-1.8,3.1-.84,1.81-1.46,1.67c-.44-.09-.47-.1-1.07-2.18s-2.05-2.53-3.33-2c-1.89.77-2.4,2.24-2.21,4.31.28,3.1,1.35,4.25,1.95,4.54-.08,1.01-.67,4.8-2.45,6.67-1.63.92-3.51,1.27-5.36,1.01-1.24-.02-2.42-.51-3.32-1.37-1.03-2.39-3.46-5.83-4.84-8.2-1.65-2.83-2.53-6.05-2.52-9.32-.18-3.65.59-6.54,3.32-8.28,1.33-2.98,7.25-6.21,13.53-5.93,3.46.15,5.22.39,8.07,2.41,2.25,1.37,4.04,3.38,5.15,5.76.53.76.83,1.66.88,2.58Z"/>
              <path class="cls-15" d="m136.62,150.63c6.33-2.8,12.28-5.45,13.55-6.77s1.05-3.64-1.86-5.43c-2.65-1.62-7.54-3.69-9.47-2.6l-2.22,14.81Z"/>
              <path class="cls-19" d="m136.62,150.63c6.33-2.8,12.28-5.45,13.55-6.77s1.05-3.64-1.86-5.43c-2.65-1.62-7.54-3.69-9.47-2.6l-2.22,14.81Z"/>
              <path class="cls-15" d="m131.48,132.76c-10.6-.36-16.13,5.24-18.16,9.99s.94,13.42.94,13.42c3.19,1.89,13.45,1.95,23.36-4.23,2.92-1.66,5.19-4.25,6.46-7.35,0,0-1.98-11.46-12.61-11.83Zm-16.56,22.2c-.46-1.82-.46-3.69,1.51-3.98s4.42.13,5.28.93,1.05,3.46,1.05,3.46c0,0-4.69.78-7.83-.41Z"/>
            </g>
          </g>
          <g id="freepik--bottom--inject-56">
            <path class="cls-15" d="m109.02,213.33c0,6.81.08,14.21,0,19.37-.15,6.35.03,12.69.52,19.02.53,6.86.5,12.29.8,20.53.16,4.29-2.63,10.76-2.92,18.53-.35,9.44.39,22.1.48,37.7,1.6,2.93,10.15,4.61,13.54-.28,2.15-12.74,8.66-45.53,8.66-45.53l1.26,14.37c-2.71,14.98.73,25.53,2.06,42.4,0,0,9.34,5.35,16.13.18,0-4.76,2.07-43.44,2.25-50.19.36-6.66.66-48.55.23-63.7,0,0-6.74,5.01-11.36-.53s-7.33-11.82-7.47-22.25,2.42-15.9,4.86-18.94c1.52-1.85,3.51-3.26,5.76-4.08-1.91-1.53-3.97-2.86-6.15-3.96,0,0-12.5,5.7-18.57,15.06,0,0-2.15-11.67,1.15-21.89-1.83-.19-3.68-.09-5.48.29-3.7,5.59-3.46,23.18-3.46,30.71s-.05,9.81-2.29,13.2Z"/>
            <path class="cls-19" d="m130.1,282.67l-3.19-32.88c-4.63-1.06-8.79-3.6-11.83-7.25,1.37,4.86,6.83,9.08,10.29,10.25l1.45,17.13.81,25.35,2.48-12.61Z"/>
          </g>
        </g>
      </g>
    </g>
  </g>
</svg>