<?xml version="1.0" encoding="utf-8"?>
<!-- Generator: Adobe Illustrator 27.7.0, SVG Export Plug-In . SVG Version: 6.00 Build 0)  -->
<svg version="1.1" id="Layer_1" xmlns="http://www.w3.org/2000/svg" xmlns:xlink="http://www.w3.org/1999/xlink" x="0px" y="0px"
	 viewBox="0 0 750 500" style="enable-background:new 0 0 750 500;" xml:space="preserve">
<style type="text/css">
	.st0{clip-path:url(#SVGID_00000003091245104019433080000014194403125821438379_);}
	.st1{fill:#E0E0E0;}
	.st2{fill:#FAFAFA;}
	.st3{fill:#EBEBEB;}
	.st4{fill:#F5F5F5;}
	.st5{fill-rule:evenodd;clip-rule:evenodd;fill:#F5F5F5;}
	.st6{fill-rule:evenodd;clip-rule:evenodd;fill:#EBEBEB;}
	.st7{fill:#263238;}
	.st8{fill:#FFFFFF;}
	.st9{fill:#455A64;}
	.st10{fill:#77BAB6;}
	.st11{fill:none;}
	.st12{fill:#EB996E;}
	.st13{fill:#FFBE9D;}
	.st14{opacity:0.6;}
	.st15{opacity:0.3;}
	.st16{opacity:0.2;}
	.st17{fill:#B78876;}
</style>
<g>
	<defs>
		<rect id="SVGID_1_" x="62.1" y="82.2" width="628.4" height="295.3"/>
	</defs>
	<clipPath id="SVGID_00000054232983451031390890000006385267226448506017_">
		<use xlink:href="#SVGID_1_"  style="overflow:visible;"/>
	</clipPath>
	
		<g id="freepik--background-complete--inject-51" style="clip-path:url(#SVGID_00000054232983451031390890000006385267226448506017_);">
		<rect x="621.2" y="178.5" class="st1" width="52.7" height="34.6"/>
		<rect x="623" y="180.1" class="st2" width="49" height="31.7"/>
		<rect x="639.5" y="191.5" class="st1" width="16" height="8.7"/>
		<rect x="534" y="319.7" class="st3" width="58.5" height="2.9"/>
		<polygon class="st3" points="525,322.6 514,281.4 559.7,281.4 569.6,322.6 		"/>
		<polygon class="st1" points="566.9,319.5 526.1,319.5 516.5,283.3 557.6,283.3 		"/>
		<rect x="502.4" y="331" class="st4" width="3" height="141.2"/>
		<rect x="505.3" y="331.4" class="st3" width="3" height="140.8"/>
		<rect x="684.5" y="331" class="st3" width="3" height="141.2"/>
		<rect x="687.5" y="331.4" class="st1" width="3" height="140.8"/>
		<rect x="489.6" y="322.8" class="st1" width="224.6" height="11.6"/>
		<rect x="587.2" y="334.4" class="st3" width="98.9" height="19.2"/>
		<path class="st1" d="M641,342.6c0,1.2-1,2.2-2.2,2.2c-1.2,0-2.2-1-2.2-2.2c0-1.2,1-2.2,2.2-2.2c0,0,0,0,0,0
			C640,340.4,641,341.4,641,342.6C641,342.6,641,342.6,641,342.6z"/>
		<path class="st3" d="M626.5,391.3h-38.8c-2.7,0-4.9-2.2-4.9-4.9c0,0,0,0,0,0v-12c0-4.6,3.7-8.3,8.3-8.3c0,0,0,0,0,0h35.7
			L626.5,391.3z"/>
		<path class="st3" d="M588.3,398.8h76.4c2.1,0,3.8-1.7,3.8-3.8l0,0c0-2.1-1.7-3.8-3.8-3.8h-76.4c-2.1,0-3.8,1.7-3.8,3.8l0,0
			C584.5,397.1,586.2,398.8,588.3,398.8z"/>
		<path class="st1" d="M680.2,291l-42-0.8l-26.7,100.8l56.9,0.6l21.4-88.4c1.3-5.3-2-10.7-7.3-12C681.8,291.1,681,291.1,680.2,291z"
			/>
		<polygon class="st3" points="659.3,398.8 671.8,471.9 668.4,471.9 651.9,398.8 		"/>
		<polygon class="st1" points="629.6,398.8 643,471.9 639.5,471.9 622.2,398.8 		"/>
		<polygon class="st3" points="596.9,398.8 582,471.9 585.4,471.9 604.3,398.8 		"/>
		<path class="st3" d="M643,290.3l-20.8,100.9h-16l16.7-89.2c1.3-6.8,7.2-11.7,14.1-11.7L643,290.3z"/>
		<path class="st5" d="M567.2,50.2c0.7-0.9,1.5-1.7,2.3-2.4l-0.6-3l4.7-2l1.8,2.5c1.1-0.2,2.2-0.2,3.3,0l1.8-2.5l4.8,1.9l-0.5,3.1
			c0.9,0.7,1.7,1.4,2.4,2.3l3-0.5l2,4.7l-2.5,1.8c0.2,1.1,0.2,2.2,0,3.3l2.5,1.8l-1.9,4.8l-3.1-0.5c-0.7,0.9-1.5,1.7-2.3,2.4l0.6,3
			l-4.7,2l-1.8-2.5c-1.1,0.2-2.2,0.2-3.3,0l-1.8,2.6l-4.7-1.9l0.5-3.1c-0.9-0.7-1.7-1.5-2.4-2.3l-3,0.6l-2-4.7l2.5-1.8
			c-0.1-1.1-0.1-2.2,0-3.3l-2.5-1.8l1.9-4.8l3.1,0.5L567.2,50.2z M572.3,55.5c-1.1,2.8,0.2,6,3.1,7.1c2.8,1.1,6-0.2,7.1-3.1
			c1.1-2.8-0.2-6-3.1-7.1C576.7,51.3,573.5,52.7,572.3,55.5C572.3,55.5,572.3,55.5,572.3,55.5L572.3,55.5z"/>
		<path class="st6" d="M600.3,82.4c2.4-3.1,5.1-6,8.2-8.4l-2-10.7l16.5-7.1l6.4,8.8c3.9-0.6,7.8-0.6,11.7-0.1l6.2-8.9l16.7,6.7
			l-1.7,10.7c3.1,2.3,6,5.1,8.4,8.2l10.7-2l7.1,16.5l-8.8,6.4c0.6,3.9,0.6,7.8,0.1,11.7l9,6.2l-6.7,16.7l-10.7-1.7
			c-2.4,3.1-5.1,6-8.2,8.4l2,10.7l-16.5,7.1l-6.4-8.8c-3.9,0.6-7.8,0.6-11.7,0.1l-6.2,8.9l-16.7-6.7l1.7-10.7
			c-3.1-2.4-6-5.1-8.4-8.2l-10.7,2l-7.1-16.6l8.8-6.4c-0.6-3.9-0.6-7.8-0.1-11.7l-8.9-6.2l6.7-16.7L600.3,82.4L600.3,82.4z
			 M618.2,101c-4,9.9,0.8,21.1,10.7,25.1c9.9,4,21.1-0.8,25.1-10.7c4-9.9-0.8-21.1-10.7-25.1C633.4,86.3,622.2,91.1,618.2,101
			C618.2,101,618.2,101,618.2,101L618.2,101z"/>
		<path class="st1" d="M531.7,114.6c1.1-1.5,2.5-2.9,4-4.1l-1-5.3l8.2-3.5l3.2,4.3c1.9-0.3,3.9-0.3,5.8-0.1l3-4.4l8.2,3.3l-0.8,5.3
			c1.5,1.1,2.9,2.5,4.1,4l5.3-1l3.5,8.2l-4.3,3.1c0.3,1.9,0.3,3.9,0.1,5.8l4.4,3l-3.3,8.2l-5.3-0.9c-1.1,1.5-2.5,2.9-4,4.1l1,5.3
			l-8.2,3.5l-3.1-4.3c-1.9,0.3-3.9,0.3-5.8,0.1l-3,4.4l-8.2-3.3l0.8-5.3c-1.5-1.1-2.9-2.5-4.1-4l-5.3,1l-3.5-8.1l4.3-3.1
			c-0.3-1.9-0.3-3.9-0.1-5.8l-4.4-3l3.3-8.2L531.7,114.6L531.7,114.6z M540.5,123.8c-2,4.9,0.4,10.4,5.3,12.4
			c4.9,2,10.4-0.4,12.4-5.3c2-4.9-0.4-10.4-5.3-12.4C548,116.6,542.4,118.9,540.5,123.8z"/>
		<path class="st1" d="M540.5,123.8c0.2-0.8,0.6-1.5,1.1-2.1c1.3-1.8,3.1-3.1,5.2-3.7c1.5-0.4,3-0.5,4.5-0.2
			c1.7,0.3,3.3,1.1,4.6,2.3c0.7,0.6,1.3,1.3,1.8,2.1c0.5,0.8,0.9,1.7,1.2,2.7c1.1,4.1-0.7,8.5-4.3,10.7c-0.8,0.5-1.7,0.9-2.7,1.1
			c-0.9,0.2-1.8,0.3-2.8,0.3c-1.7-0.1-3.4-0.6-4.9-1.5c-3.2-2-4.8-5.8-4.3-9.5C539.9,125.2,540.1,124.5,540.5,123.8
			c0.1,0-0.3,0.8-0.5,2.3c-0.2,2.1,0.2,4.2,1.3,6c0.8,1.2,1.8,2.2,3,3c1.4,0.9,3,1.4,4.7,1.4c1.8,0.1,3.6-0.4,5.2-1.4
			c3.4-2.1,5.1-6.2,4.1-10.1c-0.2-0.9-0.6-1.8-1.1-2.6c-0.5-0.7-1-1.4-1.7-2c-2.3-2.1-5.6-2.9-8.6-2.1c-2,0.5-3.8,1.8-5.1,3.4
			C540.8,123,540.5,123.8,540.5,123.8z"/>
		<path class="st1" d="M531.7,114.6c-0.1,0-0.2,0-0.3,0l-1-0.1l-4-0.6l0.1-0.1c-0.8,2.1-1.9,4.9-3.3,8.2l0-0.2l4.4,3l0.1,0.1v0.1
			c-0.2,1.9-0.2,3.8,0.1,5.7v0.1l-0.1,0.1l-4.3,3.1l0.1-0.2l3.5,8.1l-0.2-0.1l5.3-1h0.1l0.1,0.1c1.2,1.5,2.6,2.9,4.1,4l0.1,0.1v0.1
			c-0.3,1.6-0.5,3.4-0.8,5.3l-0.2-0.3l8.2,3.3l-0.3,0.1l3-4.4l0.1-0.1h0.2c1.9,0.2,3.8,0.2,5.7-0.1h0.2l0.1,0.1l3.1,4.3l-0.3-0.1
			l8.1-3.5l-0.2,0.3c-0.3-1.7-0.6-3.5-1-5.3v-0.2l0.1-0.1c1.5-1.2,2.9-2.5,4-4.1l0,0l0.1-0.1h0.2l5.3,0.9l-0.3,0.2
			c1.1-2.8,2.2-5.5,3.3-8.2l0.1,0.3l-4.4-3l-0.1-0.1v-0.2c0.3-1.9,0.3-3.8,0-5.7v-0.2l0.1-0.1l4.3-3.1l-0.1,0.3l-3.5-8.2l0.3,0.2
			l-5.3,1h-0.2l-0.1-0.1c-1.2-1.5-2.5-2.9-4.1-4l-0.1-0.1v-0.2c0.3-1.8,0.6-3.6,0.9-5.3l0.1,0.2l-8.2-3.3l0.2-0.1l-3,4.4l-0.1,0.1
			h-0.1c-1.9-0.3-3.8-0.3-5.7,0H546l-0.1-0.1l-3.1-4.3h0.2l-8.2,3.4l0.1-0.1c0.4,2.1,0.7,3.8,0.9,5.3v0.1l0,0
			c-1.1,0.9-2.2,1.9-3.2,3l-0.7,0.8C531.9,114.4,531.8,114.5,531.7,114.6l0.3-0.3c0.1-0.2,0.3-0.5,0.7-0.8c0.9-1.1,2-2.1,3.1-3v0.1
			c-0.3-1.4-0.6-3.2-1-5.3v-0.1h0.1l8.1-3.5l0.1-0.1l0.1,0.1c1,1.3,2,2.8,3.2,4.3l-0.2-0.1c1.9-0.3,3.9-0.3,5.8-0.1l-0.2,0.1l3-4.4
			l0.1-0.1l0.2,0.1l8.2,3.3l0.2,0.1v0.2l-0.8,5.3l-0.1-0.2c1.6,1.2,3,2.5,4.2,4.1l-0.2-0.1l5.3-1h0.2l0.1,0.2l3.5,8.2l0.1,0.2
			l-0.2,0.1l-4.3,3.1l0.1-0.2c0.3,1.9,0.3,3.9,0.1,5.8l-0.1-0.2l4.4,3l0.2,0.1l-0.1,0.2l-3.3,8.2l-0.1,0.2H572l-5.3-0.9l0.3-0.1l0,0
			c-1.2,1.6-2.5,3-4.1,4.2l0.1-0.3c0.3,1.8,0.7,3.6,1,5.3v0.2l-0.2,0.1l-8.1,3.5l-0.2,0.1l-0.1-0.2l-3.3-4.4l0.2,0.1
			c-1.9,0.3-3.9,0.3-5.8,0.1l0.2-0.1l-3,4.4l-0.1,0.2l-0.2-0.1l-8.2-3.3l-0.2-0.1v-0.2c0.3-1.8,0.6-3.6,0.9-5.3l0.1,0.2
			c-1.6-1.2-3-2.5-4.2-4.1l0.2,0.1l-5.3,0.9h-0.2l-0.1-0.2L523,134l-0.1-0.1l0.1-0.1l4.3-3.1l-0.1,0.2c-0.3-1.9-0.3-3.9,0-5.8
			l0.1,0.2l-4.4-3l-0.1-0.1V122c1.4-3.3,2.5-6.1,3.3-8.2v-0.1h0.1l3.9,0.7l1,0.2L531.7,114.6z"/>
		<rect x="62.1" y="111.1" class="st4" width="33.3" height="66"/>
		<rect x="96.7" y="111.1" class="st4" width="36" height="66"/>
		<rect x="96.7" y="181.7" class="st4" width="36" height="63.8"/>
		<polygon class="st4" points="137.2,109.9 175.1,109.9 175.1,51.4 176.4,51.4 176.4,109.9 207.2,109.9 207.2,50.1 137.2,50.1 		"/>
		<rect x="176.4" y="111.1" class="st4" width="30.8" height="66"/>
		<rect x="176.4" y="181.7" class="st4" width="30.8" height="63.8"/>
		<rect x="62.1" y="181.7" class="st4" width="33.3" height="63.8"/>
		<rect x="137.2" y="181.7" class="st4" width="37.9" height="63.8"/>
		<rect x="62.1" y="246.6" class="st4" width="33.3" height="57.5"/>
		<rect x="176.4" y="246.6" class="st4" width="30.8" height="57.5"/>
		<polygon class="st4" points="95.4,109.9 95.4,51.4 96.7,51.4 96.7,109.9 132.6,109.9 132.6,50.1 62.1,50.1 62.1,109.9 		"/>
		<rect x="137.2" y="246.6" class="st4" width="37.9" height="57.5"/>
		<rect x="96.7" y="246.6" class="st4" width="36" height="57.5"/>
		<rect x="137.2" y="111.1" class="st4" width="37.9" height="66"/>
		<path class="st3" d="M222.2,355.6c0,0-4.2-0.3-3.8,9.1c0.1,4.8,0.6,9.7,1.4,14.5c0,0-0.1,2.1-1.8,1.7s-4.7-2.5-6.2-0.9
			s-1,4,1.1,6.9s6.4,9.3,6.8,9.8s0.5,1.6-0.6,1.5s-8.9-2.7-9.9,1s6.1,10.7,6.8,11.5s0.8,1.3,0.5,1.8s-2.8-0.7-5.1-1.3
			s-4.9-1-5.4,1.2s2.7,8.7,14.4,15.5l5.6,2.8l5.3-3.4c10.9-7.9,13.4-14.7,12.7-16.9s-3.3-1.5-5.4-0.6s-4.6,2.2-4.9,1.8
			s-0.4-0.9,0.3-1.8s7-8.5,5.6-12.1s-8.9-0.2-10,0s-1.1-0.9-0.8-1.5s4-7.4,5.7-10.5s2.1-5.5,0.4-6.9s-4.5,1-6,1.5s-1.9-1.5-1.9-1.5
			c0.3-4.8,0.3-9.7-0.1-14.5C226.4,354.8,222.2,355.6,222.2,355.6"/>
		<path class="st1" d="M222.6,364c0,0,0,0.1,0,0.2s0,0.3,0,0.6c0,0.5,0.1,1.3,0.2,2.2c0.1,1.9,0.3,4.7,0.5,8.2
			c0.4,6.9,0.8,16.5,1.3,27s0.9,20.1,1.2,27.1c0.2,3.5,0.3,6.2,0.4,8.2c0,1,0.1,1.7,0.1,2.2c0,0.2,0,0.4,0,0.6v0.2c0,0,0-0.1,0-0.2
			v-0.6c0-0.5-0.1-1.3-0.1-2.2c-0.1-1.9-0.3-4.7-0.5-8.2c-0.4-6.9-0.8-16.5-1.3-27s-0.9-20.1-1.2-27c-0.2-3.5-0.3-6.3-0.4-8.2
			c-0.1-1-0.1-1.7-0.1-2.2c0-0.2,0-0.4,0-0.6C222.6,364.2,222.6,364.1,222.6,364z"/>
		<path class="st1" d="M216,383c0.1,0.1,0.2,0.2,0.4,0.3c0.2,0.2,0.5,0.5,0.9,0.9c0.7,0.7,1.7,1.8,2.8,2.9l2.8,3l0.8,0.9
			c0.1,0.1,0.2,0.2,0.3,0.3c0,0-0.1-0.1-0.4-0.3s-0.5-0.5-0.9-0.9c-0.7-0.7-1.7-1.8-2.8-3s-2-2.2-2.8-3l-0.8-0.9
			C216.2,383.2,216.1,383.1,216,383z"/>
		<path class="st1" d="M224.5,391.1c0,0,2-2.2,4.6-4.8s4.7-4.7,4.7-4.6s-2,2.2-4.6,4.8S224.5,391.2,224.5,391.1z"/>
		<path class="st1" d="M224.4,407.4c0,0,0.1-0.1,0.4-0.2l1.1-0.6c0.9-0.5,2.2-1.2,3.6-2.1s2.6-1.6,3.5-2.2l1.1-0.7
			c0.1-0.1,0.3-0.2,0.4-0.2c-0.1,0.1-0.2,0.2-0.4,0.3c-0.2,0.2-0.6,0.4-1,0.8c-0.9,0.6-2.1,1.5-3.5,2.3s-2.7,1.6-3.6,2
			c-0.5,0.2-0.9,0.4-1.1,0.5C224.7,407.2,224.6,407.3,224.4,407.4z"/>
		<path class="st1" d="M215.1,401.7c0,0,0.1,0,0.4,0.2l1,0.6c0.9,0.5,2,1.2,3.3,1.9s2.4,1.5,3.3,2l1,0.6c0.2,0.1,0.4,0.2,0.3,0.3
			l-0.4-0.2l-1-0.6c-0.9-0.5-2-1.2-3.3-1.9s-2.4-1.5-3.3-2c-0.4-0.2-0.8-0.5-1-0.6C215.4,401.9,215.3,401.8,215.1,401.7z"/>
		<path class="st1" d="M213.3,416c0.2,0.1,0.3,0.1,0.5,0.2l1.3,0.7c1.1,0.6,2.6,1.5,4.3,2.4s3.1,1.9,4.2,2.5l1.3,0.8
			c0.2,0.1,0.3,0.2,0.5,0.3c-0.2-0.1-0.3-0.1-0.5-0.2l-1.3-0.7c-1.1-0.6-2.6-1.5-4.3-2.5s-3.2-1.9-4.2-2.5l-1.3-0.8
			C213.6,416.2,213.4,416.1,213.3,416z"/>
		<path class="st1" d="M225.1,422.8c0.1-0.1,0.3-0.2,0.5-0.3l1.4-0.8c1.1-0.7,2.7-1.7,4.5-2.8s3.2-2.2,4.4-3l1.3-0.9
			c0.2-0.1,0.3-0.2,0.5-0.3c-0.1,0.1-0.3,0.3-0.4,0.4c-0.3,0.2-0.7,0.6-1.3,1c-1.1,0.8-2.6,1.9-4.3,3s-3.3,2.1-4.5,2.8
			c-0.6,0.3-1.1,0.6-1.4,0.8C225.5,422.6,225.3,422.7,225.1,422.8z"/>
		<polygon class="st1" points="233.5,432.5 218,432.5 223.1,470.8 228.5,470.8 		"/>
		<path class="st4" d="M218.8,437.2c0,0.1,0,0.1,0.1,0.1c0.1,0.1,0.2,0.2,0.4,0.3c0.5,0.2,1.2,0.1,1.6-0.2c0.6-0.5,1.3-1,2-1.3
			c0.9-0.3,1.9-0.3,2.9,0.1c0.9,0.3,1.8,0.8,2.7,1.3c0.7,0.4,1.4,0.8,2.2,1.2c0.5,0.2,1,0.4,1.6,0.5h0.4c0.1,0,0.2,0,0.2,0
			c-0.7-0.1-1.5-0.3-2.1-0.6c-0.7-0.4-1.4-0.8-2.1-1.2c-0.8-0.6-1.7-1-2.7-1.3c-1-0.3-2-0.3-3,0c-0.4,0.2-0.8,0.4-1.1,0.7
			c-0.3,0.2-0.6,0.5-0.9,0.7c-0.4,0.3-1,0.4-1.5,0.3C219.1,437.4,219,437.3,218.8,437.2z"/>
		<path class="st4" d="M219.4,444.2c0,0,0.1-0.2,0.4-0.4c0.4-0.3,0.8-0.6,1.2-0.8c0.7-0.2,1.4-0.4,2.2-0.3c0.9,0.1,1.8,0.2,2.7,0.4
			c0.9,0.2,1.8,0.2,2.8,0.1c0.7-0.1,1.5-0.3,2.2-0.6c0.5-0.2,0.9-0.5,1.3-0.8c0.2-0.1,0.3-0.2,0.4-0.4c-0.6,0.4-1.2,0.7-1.8,1
			c-0.7,0.3-1.4,0.5-2.1,0.6c-0.9,0.1-1.8,0-2.7-0.1c-0.9-0.2-1.8-0.3-2.7-0.4c-0.8,0-1.5,0.1-2.2,0.4c-0.5,0.2-0.9,0.5-1.2,0.9
			c-0.1,0.1-0.2,0.2-0.2,0.3C219.4,444.2,219.4,444.2,219.4,444.2z"/>
		<path class="st4" d="M231.8,448c-0.1-0.1-0.3-0.2-0.4-0.2c-0.4-0.2-0.8-0.2-1.3-0.3c-0.7,0-1.3,0-1.9,0.1
			c-0.7,0.1-1.5,0.3-2.3,0.5c-0.8,0.2-1.5,0.3-2.3,0.3c-0.6,0-1.2-0.1-1.8-0.4c-0.5-0.2-1-0.6-1.4-1c0.1,0.2,0.1,0.3,0.3,0.4
			c0.3,0.3,0.6,0.6,1,0.8c0.6,0.3,1.2,0.4,1.9,0.5c0.8,0,1.6-0.1,2.4-0.2c0.8-0.2,1.6-0.4,2.3-0.5c0.6-0.1,1.3-0.2,1.9-0.2
			C230.6,447.7,231.2,447.8,231.8,448z"/>
		<path class="st4" d="M220.8,453.4c0.5-0.2,1-0.3,1.5-0.1c0.5,0.1,1.1,0.3,1.6,0.6c0.6,0.3,1.3,0.5,2,0.6c1.3,0.1,2.6-0.2,3.7-0.9
			c0.3-0.2,0.6-0.4,0.9-0.7c0.1-0.1,0.2-0.2,0.3-0.3c-0.4,0.3-0.8,0.6-1.3,0.9c-1.1,0.6-2.4,0.9-3.6,0.8c-1.5-0.1-2.6-1-3.6-1.1
			c-0.4-0.1-0.8,0-1.2,0.1C220.9,453.2,220.7,453.3,220.8,453.4z"/>
		<path class="st4" d="M221.6,460.7c0.4,0,0.9-0.1,1.3-0.3c0.8-0.3,1.7-0.9,2.9-1.3c0.5-0.2,1.1-0.3,1.6-0.3c0.5,0,0.9,0.1,1.3,0.3
			c0.4,0.2,0.7,0.5,1,0.8c0,0,0-0.1-0.1-0.3c-0.2-0.3-0.4-0.5-0.7-0.7c-0.4-0.2-0.9-0.4-1.4-0.4c-0.6,0-1.2,0.1-1.7,0.3
			c-1.2,0.5-2.1,1.1-2.9,1.4S221.6,460.7,221.6,460.7z"/>
		<path class="st4" d="M222.4,464.1c0.3,0.2,0.7,0.3,1,0.3c0.8,0.2,1.6,0.3,2.4,0.4c0.8,0.1,1.7,0.1,2.5,0.1c0.3,0,0.7,0,1-0.1
			c0-0.1-1.6,0-3.5-0.2S222.4,464.1,222.4,464.1z"/>
	</g>
	<g id="freepik--Floor--inject-51" style="clip-path:url(#SVGID_00000054232983451031390890000006385267226448506017_);">
		<path class="st7" d="M683.9,472.2c0,0.1-138.3,0.3-308.9,0.3s-308.9-0.1-308.9-0.3s138.3-0.3,308.9-0.3S683.9,472,683.9,472.2z"/>
	</g>
	<g id="freepik--Whiteboard--inject-51" style="clip-path:url(#SVGID_00000054232983451031390890000006385267226448506017_);">
		<rect x="370.9" y="326.1" class="st7" width="8" height="146.1"/>
		<polygon class="st7" points="317.1,472.2 372.7,418.7 376.7,422.2 324.9,472.2 		"/>
		<polygon class="st7" points="432.3,472 376.8,418.7 372.8,422.2 424.6,472.2 		"/>
		<rect x="196.4" y="89.2" class="st8" width="359.1" height="261.7"/>
		<path class="st7" d="M555.4,350.9c0-1.8-0.1-103-0.2-261.7l0.2,0.2h-359l0,0l0.3-0.3c0,93.9,0,182.9,0,261.7l-0.2-0.2L555.4,350.9
			l-359,0.2h-0.2v-0.2c0-78.8,0-167.8,0-261.7v-0.3h0.3h359h0.2v0.2C555.5,247.9,555.4,349.2,555.4,350.9z"/>
		<path class="st7" d="M242.2,116.5h-3v-0.8h7v0.8h-3v7.9h-0.9L242.2,116.5z"/>
		<path class="st7" d="M246.8,120c-0.1-2.5,1.9-4.6,4.4-4.7c2.5-0.1,4.6,1.9,4.7,4.4s-1.9,4.6-4.4,4.7c0,0-0.1,0-0.1,0
			c-2.4,0.1-4.4-1.8-4.5-4.2C246.8,120.2,246.8,120.1,246.8,120z M254.9,120c0-2-1.6-3.7-3.6-3.7c-2,0-3.7,1.6-3.7,3.6
			c0,2,1.6,3.7,3.6,3.7c0,0,0,0,0.1,0c1.9,0.1,3.6-1.5,3.6-3.4C254.9,120.1,254.9,120.1,254.9,120L254.9,120z"/>
		<path class="st7" d="M261.1,115.7h3.5c2.8,0,4.6,1.8,4.6,4.3s-1.9,4.3-4.6,4.3h-3.5V115.7z M264.6,123.6c2,0.1,3.6-1.4,3.7-3.3
			c0.1-2-1.4-3.6-3.3-3.7c-0.1,0-0.3,0-0.4,0H262v7.1H264.6z"/>
		<path class="st7" d="M270.6,120c-0.1-2.5,1.9-4.6,4.4-4.7c2.5-0.1,4.6,1.9,4.7,4.4s-1.9,4.6-4.4,4.7c0,0-0.1,0-0.1,0
			c-2.4,0.1-4.4-1.8-4.5-4.2C270.6,120.2,270.6,120.1,270.6,120z M278.7,120c0-2-1.6-3.7-3.6-3.7c-2,0-3.7,1.6-3.7,3.6
			c0,2,1.6,3.7,3.6,3.7c0,0,0,0,0.1,0c1.9,0.1,3.6-1.5,3.6-3.4C278.7,120.1,278.7,120.1,278.7,120z"/>
		<path class="st7" d="M369,115.7l-2.9,8.7h-1l-2.5-7.4l-2.6,7.4h-1l-2.9-8.7h0.9l2.5,7.4l2.6-7.4h0.9l2.5,7.5l2.5-7.5H369z"/>
		<path class="st7" d="M369.8,120c-0.1-2.5,1.9-4.6,4.4-4.7c2.5-0.1,4.6,1.9,4.7,4.4s-1.9,4.6-4.4,4.7c0,0-0.1,0-0.1,0
			c-2.4,0.1-4.4-1.8-4.5-4.2C369.8,120.2,369.8,120.1,369.8,120z M378,120c0-2-1.6-3.7-3.6-3.7c-2,0-3.7,1.6-3.7,3.6
			c0,2,1.6,3.7,3.6,3.7c0,0,0,0,0.1,0c1.9,0.1,3.6-1.4,3.7-3.3C378,120.2,378,120.1,378,120L378,120z"/>
		<path class="st7" d="M386.8,124.4l-2-2.8c-0.2,0-0.4,0-0.7,0h-2.3v2.8h-0.9v-8.7h3.2c2.2,0,3.5,1.1,3.5,3c0.1,1.3-0.8,2.4-2,2.7
			l2.1,3L386.8,124.4z M386.8,118.7c0-1.4-0.9-2.2-2.6-2.2h-2.3v4.3h2.3C385.9,120.8,386.8,120,386.8,118.7z"/>
		<path class="st7" d="M392.5,120.3l-1.8,1.8v2.3h-0.9v-8.7h0.9v5.3l5.1-5.2h1l-3.7,3.9l4,4.7h-1.1L392.5,120.3z"/>
		<path class="st7" d="M465.1,115.7h3.5c2.8,0,4.6,1.8,4.6,4.3s-1.9,4.3-4.6,4.3h-3.5V115.7z M468.6,123.6c2,0.1,3.6-1.4,3.7-3.3
			c0.1-2-1.4-3.6-3.3-3.7c-0.1,0-0.3,0-0.4,0H466v7.1H468.6z"/>
		<path class="st7" d="M474.5,120c-0.1-2.5,1.9-4.6,4.4-4.7c2.5-0.1,4.6,1.9,4.7,4.4s-1.9,4.6-4.4,4.7c0,0-0.1,0-0.1,0
			c-2.4,0.1-4.4-1.8-4.5-4.2C474.6,120.2,474.5,120.1,474.5,120z M482.7,120c0-2-1.6-3.7-3.6-3.7c-2,0-3.7,1.6-3.7,3.6
			c0,2,1.6,3.7,3.6,3.7c0,0,0,0,0.1,0c1.9,0.1,3.6-1.4,3.6-3.4C482.7,120.1,482.7,120.1,482.7,120z"/>
		<path class="st7" d="M492.9,115.7v8.7h-0.8l-5.6-7v7h-0.9v-8.7h0.8l5.6,7v-7H492.9z"/>
		<path class="st7" d="M501.8,123.6v0.8h-6.1v-8.7h5.9v0.8h-5v3.1h4.5v0.8h-4.5v3.2H501.8z"/>
		<path class="st7" d="M542,148.5c0,0.1-72.7,0.3-162.3,0.3s-162.3-0.1-162.3-0.3s72.7-0.3,162.3-0.3S542,148.4,542,148.5z"/>
		<path class="st7" d="M318,350.9c-0.1,0-0.3-56.2-0.3-125.5s0.1-125.5,0.3-125.5s0.3,56.2,0.3,125.5S318.1,350.9,318,350.9z"/>
		<path class="st7" d="M437.1,350.9c-0.1,0-0.3-56.2-0.3-125.5s0.1-125.5,0.3-125.5s0.3,56.2,0.3,125.5S437.2,350.9,437.1,350.9z"/>
		<path class="st1" d="M258.9,158.4c0,0-2.5,22.9,0.7,35.4l30.6-1.3c0,0-6.5-22.6-2.5-32.6L258.9,158.4z"/>
		<path class="st1" d="M218.5,171c0,0-2.5,22.9,0.7,35.4l30.6-1.3c0,0-6.6-22.6-2.5-32.6L218.5,171z"/>
		<path class="st9" d="M258.9,158.4c0,0,0.2,24.7,1.5,32.2l31-1.5c0,0-2.7-24.3-1.7-30.8H258.9z"/>
		<path class="st8" d="M274.2,161.9h0.1h0.3c0.4,0,0.9,0,1.3,0.1c0.7,0.1,1.4,0.3,2,0.6c0.8,0.4,1.6,1,2.1,1.7
			c0.7,0.9,1.2,1.9,1.5,3c0.2,1.3,0.1,2.6-0.3,3.8c-0.2,0.7-0.5,1.3-0.9,1.9c-0.4,0.6-0.7,1.3-1,1.9c-0.6,1.4-1,2.9-1.2,4.4v0.1H278
			h-3.1l-3.2,0.1h-0.1v-0.1c-0.1-1.5-0.6-3-1.5-4.2c-0.4-0.6-0.8-1.2-1.2-1.8c-0.4-0.6-0.8-1.2-1.1-1.8c-0.6-1.2-0.7-2.5-0.5-3.8
			c0.2-1.1,0.6-2.2,1.2-3.1c0.5-0.8,1.2-1.4,2-1.8c0.6-0.3,1.2-0.6,1.9-0.7c0.4-0.1,0.8-0.2,1.3-0.2h0.3h-0.3
			c-0.4,0-0.8,0.1-1.2,0.2c-0.6,0.2-1.3,0.4-1.9,0.8c-0.8,0.4-1.4,1.1-2,1.8c-0.6,0.9-1,1.9-1.1,3c-0.2,1.2-0.1,2.5,0.5,3.6
			c0.3,0.6,0.7,1.2,1.1,1.8c0.4,0.6,0.8,1.2,1.2,1.8c0.9,1.3,1.4,2.8,1.5,4.3l-0.1-0.1l3.2-0.1l3.1-0.1l-0.1,0.1
			c0.2-1.5,0.6-3,1.3-4.5c0.3-0.7,0.6-1.3,1-1.9c0.3-0.6,0.6-1.2,0.9-1.8c0.5-1.2,0.6-2.5,0.3-3.7c-0.2-1.1-0.7-2.1-1.4-2.9
			c-0.6-0.7-1.3-1.3-2.1-1.7c-0.6-0.3-1.3-0.5-1.9-0.6c-0.4-0.1-0.9-0.1-1.3-0.1L274.2,161.9L274.2,161.9z"/>
		<path class="st8" d="M275.8,179.1c0,0,0-0.1,0-0.1v-0.3c0-0.3-0.1-0.6-0.2-1.1c-0.1-1-0.4-2.4-0.5-4.1c0-0.4-0.1-0.9-0.1-1.4
			s0-1,0-1.5c0-0.5,0.1-1.1,0.4-1.6c0.2-0.5,0.7-0.9,1.2-1.2c0.6-0.2,1.2-0.1,1.7,0.3c0.2,0.2,0.4,0.5,0.4,0.8
			c0,0.3-0.1,0.6-0.3,0.9c-0.2,0.3-0.5,0.5-0.8,0.6c-0.3,0.1-0.6,0.2-0.9,0.3c-0.7,0.1-1.3,0.2-2,0.2c-0.7,0-1.3,0-2-0.1
			c-0.3,0-0.6-0.1-0.9-0.3c-0.3-0.1-0.6-0.3-0.8-0.6c-0.2-0.2-0.4-0.5-0.5-0.8c-0.1-0.3,0-0.6,0.1-0.9c0.1-0.3,0.4-0.5,0.6-0.6
			c0.3-0.1,0.6-0.1,0.9,0c0.3,0.1,0.5,0.3,0.7,0.6c0.2,0.2,0.3,0.5,0.3,0.8c0.1,0.5,0.1,1,0.2,1.6c0,1,0.1,2,0.1,2.8
			c0.1,1.7,0.1,3.1,0.2,4.1c0,0.5,0,0.9,0,1.1s0,0.2,0,0.3v0.1c0,0,0-0.1,0-0.1v-0.3c0-0.3,0-0.6-0.1-1.1c-0.1-1-0.1-2.4-0.2-4.1
			c0-0.9-0.1-1.8-0.2-2.8c0-0.5-0.1-1.1-0.2-1.6c-0.1-0.3-0.2-0.5-0.3-0.7c-0.2-0.2-0.4-0.4-0.6-0.5c-0.3-0.1-0.6-0.1-0.8,0
			c-0.3,0.1-0.5,0.3-0.6,0.6c-0.1,0.3-0.2,0.6-0.1,0.9c0.1,0.3,0.2,0.6,0.4,0.8c0.4,0.4,1,0.7,1.7,0.8c0.6,0.1,1.3,0.1,2,0.1
			c0.7,0,1.3-0.1,1.9-0.2c0.3-0.1,0.6-0.2,0.9-0.3c0.3-0.1,0.5-0.3,0.7-0.6c0.2-0.2,0.3-0.5,0.3-0.8c0-0.3-0.1-0.6-0.3-0.8
			c-0.4-0.4-1-0.5-1.6-0.3c-0.5,0.2-0.9,0.6-1.1,1.1c-0.2,0.5-0.3,1-0.4,1.5c0,0.5,0,1,0,1.5s0,0.9,0.1,1.4c0.1,1.7,0.3,3.1,0.5,4.1
			c0.1,0.5,0.1,0.9,0.2,1.1v0.3C275.8,179.1,275.8,179.1,275.8,179.1z"/>
		<path class="st8" d="M271.7,179.3c0,0.3,0.1,0.7,0.1,1c0,0.8,0.1,1.6,0.1,2.7v-0.1l2.1,2.4h-0.1l2.4-0.1l-0.1,0.1
			c0.4-0.5,0.8-1,1.2-1.5l0.6-0.7v0.1c0-1.4-0.1-2.8-0.1-4l0.1,0.1l-4.5,0.1h-1.3C272.1,179.3,271.9,179.3,271.7,179.3
			c0.2,0,0.3,0,0.5,0l1.3-0.1l4.5-0.2h0.1v0.1c0,1.2,0.1,2.6,0.1,4v0.1l0,0l-0.6,0.7l-1.2,1.5l0,0h-0.1l-2.4,0.1h-0.1l0,0l-2-2.4
			l0,0l0,0c0-1.1,0-2,0-2.8C271.7,179.6,271.7,179.3,271.7,179.3z"/>
		<path class="st8" d="M277.9,182.8l-0.2-0.1c-0.2-0.1-0.4-0.2-0.6-0.2c-0.7-0.2-1.4-0.4-2.2-0.3c-0.7,0-1.5,0.2-2.1,0.5
			c-0.2,0.1-0.4,0.2-0.6,0.3l-0.2,0.1c0,0,0.1-0.1,0.2-0.1c0.2-0.1,0.4-0.2,0.6-0.3c0.7-0.3,1.4-0.5,2.2-0.5c0.8,0,1.5,0.1,2.2,0.4
			c0.3,0.1,0.5,0.2,0.6,0.3C277.8,182.7,277.9,182.7,277.9,182.8z"/>
		<path class="st8" d="M277.9,181.8c0,0-0.1,0-0.2-0.1s-0.4-0.1-0.6-0.2c-1.4-0.5-3-0.5-4.3,0.1l-0.6,0.3l-0.2,0.1l0.2-0.1
			c0.2-0.1,0.4-0.2,0.6-0.3c0.7-0.3,1.4-0.5,2.2-0.5c0.7,0,1.5,0.1,2.2,0.4c0.2,0.1,0.4,0.2,0.6,0.3L277.9,181.8z"/>
		<path class="st8" d="M277.9,180.9l-0.2-0.1c-0.2-0.1-0.4-0.2-0.6-0.2c-1.6-0.6-3.4-0.4-5,0.4l-0.2,0.1l0.2-0.1
			c0.2-0.1,0.4-0.2,0.6-0.3c0.7-0.3,1.4-0.5,2.2-0.5c0.8,0,1.5,0.1,2.2,0.4c0.3,0.1,0.5,0.2,0.6,0.3L277.9,180.9z"/>
		<path class="st10" d="M218.3,171c0,0,0.2,24.7,1.5,32.2l31-1.5c0,0-2.8-24.2-1.7-30.8H218.3z"/>
		<path class="st8" d="M244.4,181.4c0,0.1-4.6,0.5-10.4,0.9s-10.4,0.5-10.4,0.4s4.6-0.5,10.4-0.9S244.4,181.3,244.4,181.4z"/>
		<path class="st8" d="M244.4,186.6c-3.4,0.5-6.9,0.8-10.4,0.9c-3.5,0.3-6.9,0.4-10.4,0.4c0-0.1,4.6-0.5,10.4-0.9
			S244.4,186.5,244.4,186.6z"/>
		<path class="st8" d="M239.2,191.8c-1.9,0.4-3.9,0.6-5.9,0.6c-2,0.2-4,0.2-5.9,0.1c1.9-0.4,3.9-0.6,5.9-0.6
			C235.2,191.7,237.2,191.7,239.2,191.8z"/>
		<path class="st3" d="M275.9,197.8c0,0-2.5,22.9,0.7,35.4l30.6-1.3c0,0-6.6-22.6-2.5-32.6L275.9,197.8z"/>
		<path class="st10" d="M276.1,197c0,0,0.2,24.7,1.5,32.2l31-1.5c0,0-2.7-24.3-1.7-30.8H276.1z"/>
		<path class="st8" d="M302.2,207.4c-3.4,0.5-6.9,0.8-10.4,0.9c-3.5,0.3-6.9,0.4-10.4,0.4c0-0.1,4.6-0.5,10.4-0.9
			S302.2,207.2,302.2,207.4z"/>
		<path class="st8" d="M302.2,212.6c0,0.1-4.6,0.5-10.4,0.9s-10.4,0.5-10.4,0.4c3.4-0.5,6.9-0.8,10.4-0.9
			C295.2,212.7,298.7,212.6,302.2,212.6z"/>
		<path class="st8" d="M296.9,217.8c-1.9,0.4-3.9,0.6-5.9,0.6c-2,0.2-4,0.2-5.9,0.1c1.9-0.4,3.9-0.6,5.9-0.6
			C293,217.6,294.9,217.6,296.9,217.8z"/>
		<path class="st3" d="M269.6,293.7c0,0-2.5,22.9,0.7,35.4l30.6-1.3c0,0-6.5-22.6-2.5-32.6L269.6,293.7z"/>
		<path class="st10" d="M269.7,292.9c0,0,0.2,24.7,1.5,32.2l31-1.5c0,0-2.7-24.3-1.7-30.8H269.7z"/>
		<path class="st8" d="M295.8,303.3c0,0.1-4.6,0.5-10.4,0.9s-10.4,0.5-10.4,0.4c3.4-0.5,6.9-0.8,10.4-0.9
			C288.9,303.4,292.4,303.3,295.8,303.3z"/>
		<path class="st8" d="M295.8,308.5c0,0.1-4.6,0.5-10.4,0.9s-10.4,0.5-10.4,0.4s4.6-0.5,10.4-0.9S295.8,308.4,295.8,308.5z"/>
		<path class="st8" d="M290.6,313.7c-1.9,0.4-3.9,0.6-5.9,0.6c-2,0.2-4,0.2-5.9,0.1c1.9-0.4,3.9-0.6,5.9-0.6
			C286.6,313.6,288.6,313.5,290.6,313.7z"/>
		<path class="st3" d="M226.6,275.1c0,0-2.5,22.9,0.7,35.4l30.6-1.3c0,0-6.6-22.6-2.5-32.6L226.6,275.1z"/>
		<path class="st10" d="M226.7,274.4c0,0,0.2,24.7,1.5,32.2l31-1.5c0,0-2.7-24.3-1.7-30.8H226.7z"/>
		<path class="st8" d="M252.9,284.8c0,0.1-4.6,0.5-10.4,0.9s-10.4,0.5-10.4,0.4c3.4-0.5,6.9-0.8,10.4-0.9
			C245.9,284.9,249.4,284.7,252.9,284.8z"/>
		<path class="st8" d="M252.9,290c0,0.1-4.6,0.5-10.4,0.9c-3.5,0.3-6.9,0.4-10.4,0.4c0-0.1,4.6-0.5,10.4-0.9S252.9,289.9,252.9,290z
			"/>
		<path class="st8" d="M247.6,295.2c-1.9,0.4-3.9,0.6-5.9,0.6c-2,0.2-4,0.2-5.9,0.1c1.9-0.4,3.9-0.6,5.9-0.6
			C243.6,295.1,245.6,295,247.6,295.2z"/>
		<path class="st3" d="M386.1,278.6c0,0-2.5,22.9,0.7,35.4l30.6-1.3c0,0-6.5-22.6-2.5-32.6L386.1,278.6z"/>
		<path class="st10" d="M386.2,277.8c0,0,0.2,24.7,1.5,32.2l31-1.5c0,0-2.7-24.3-1.7-30.8H386.2z"/>
		<path class="st8" d="M412.3,288.2c-3.4,0.5-6.9,0.8-10.4,0.9c-5.7,0.4-10.4,0.5-10.4,0.4c3.4-0.5,6.9-0.8,10.4-0.9
			C407.6,288.2,412.3,288.1,412.3,288.2z"/>
		<path class="st8" d="M412.3,293.4c0,0.1-4.6,0.5-10.4,0.9s-10.4,0.5-10.4,0.4s4.6-0.5,10.4-0.9
			C405.4,293.5,408.8,293.4,412.3,293.4z"/>
		<path class="st8" d="M407,298.6c-1.9,0.4-3.9,0.6-5.9,0.6c-2,0.2-4,0.2-5.9,0.1c1.9-0.4,3.9-0.6,5.9-0.6
			C403,298.5,405,298.4,407,298.6z"/>
		<path class="st3" d="M270.2,221.9c0,0-3.1,22.8-9.3,34.2l-29.4-8.7c0,0,11.8-20.3,10.3-31L270.2,221.9z"/>
		<path class="st9" d="M270.3,221.2c0,0-6.2,23.9-9.2,30.9l-29.7-8.9c0,0,8.5-22.9,9.1-29.5L270.3,221.2z"/>
		<path class="st8" d="M242.4,224.9c3.4,0.8,6.7,1.7,10,2.9c3.3,1,6.6,2.1,9.9,3.4c0,0.1-4.5-1.1-10-2.9
			C249,227.3,245.7,226.2,242.4,224.9z"/>
		<path class="st8" d="M241.2,230c0.1-0.1,4.5,1.1,10,2.9s9.9,3.2,9.9,3.4s-4.5-1.1-10-2.9S241.1,230.1,241.2,230z"/>
		<path class="st8" d="M245,236.3c2,0.3,3.9,0.8,5.7,1.5c1.9,0.5,3.8,1.2,5.6,2c-2-0.3-3.9-0.9-5.7-1.5
			C248.7,237.7,246.8,237.1,245,236.3z"/>
		<path class="st3" d="M302.3,246c0,0,2.5,22.9-0.7,35.4L271,280c0,0,6.5-22.6,2.5-32.6L302.3,246z"/>
		<path class="st9" d="M271,240.6c0,0-2.1,27.4-3.8,32.7l27.9,2.9l4.2-4c0,0,2.7-20.1,2.3-26.6L271,240.6z"/>
		<polygon class="st7" points="295.7,272 295.1,276.2 299.3,272.2 		"/>
		<path class="st8" d="M296,255.2c-1,0-2.1-0.2-3.1-0.4l-7.5-1.1l-7.5-0.9c-1-0.1-2.1-0.2-3.1-0.5c1.1-0.1,2.1,0,3.1,0.1
			c1.9,0.1,4.6,0.4,7.5,0.8s5.6,0.8,7.5,1.2C294,254.6,295,254.8,296,255.2z"/>
		<path class="st8" d="M294.8,260.9c-1,0.1-2,0-3-0.1c-1.9-0.1-4.4-0.4-7.2-0.7s-5.4-0.8-7.2-1.1c-1-0.1-2-0.4-2.9-0.6
			c1,0,2,0.1,3,0.3l7.2,0.9l7.2,0.9C292.9,260.5,293.9,260.7,294.8,260.9z"/>
		<path class="st8" d="M293.1,266.2c-3.1-0.2-6.3-0.5-9.4-1c-3.1-0.3-6.2-0.8-9.3-1.5c3.1,0.2,6.3,0.5,9.4,1
			C286.9,265,290,265.5,293.1,266.2z"/>
		<path class="st3" d="M528.1,275c0,0,2.5,22.9-0.7,35.4l-30.6-1.3c0,0,6.5-22.6,2.5-32.6L528.1,275z"/>
		<path class="st9" d="M496.8,269.6c0,0-2.1,27.4-3.8,32.6l27.9,2.9l4.2-4c0,0,2.7-20.1,2.3-26.6L496.8,269.6z"/>
		<polygon class="st7" points="521.5,301 520.9,305.2 525.1,301.3 		"/>
		<path class="st8" d="M521.8,284.2c-1,0-2.1-0.2-3.1-0.4l-7.5-1l-7.5-0.9c-1-0.1-2.1-0.2-3.1-0.5c1-0.1,2.1,0,3.1,0.1
			c1.9,0.1,4.6,0.4,7.5,0.8s5.6,0.8,7.5,1.2C519.8,283.6,520.8,283.9,521.8,284.2z"/>
		<path class="st8" d="M520.6,290c-1,0.1-2,0-3-0.1c-1.9-0.1-4.4-0.4-7.2-0.7s-5.4-0.8-7.2-1.1c-1-0.1-2-0.3-2.9-0.7
			c1,0,2,0.1,3,0.3l7.2,0.9l7.2,0.9C518.6,289.6,519.6,289.8,520.6,290z"/>
		<path class="st8" d="M518.9,295.2c-6.3-0.5-12.5-1.3-18.7-2.5c3.1,0.2,6.3,0.5,9.4,1C512.7,294,515.8,294.5,518.9,295.2z"/>
		<path class="st3" d="M491.5,158.4c0,0,2.5,22.9-0.7,35.4l-30.6-1.3c0,0,6.5-22.6,2.5-32.6L491.5,158.4z"/>
		<path class="st9" d="M460.2,153c0,0-2.1,27.4-3.8,32.7l27.8,2.9l4.2-4c0,0,2.7-20.1,2.3-26.6L460.2,153z"/>
		<polygon class="st7" points="484.9,184.4 484.3,188.6 488.5,184.6 		"/>
		<path class="st8" d="M485.2,167.6c-1.1,0-2.1-0.2-3.1-0.4l-7.5-1l-7.5-0.9c-1-0.1-2.1-0.2-3.1-0.5c1-0.1,2.1,0,3.1,0.1
			c1.9,0.1,4.6,0.4,7.5,0.8s5.6,0.8,7.5,1.2C483.2,167.1,484.2,167.3,485.2,167.6z"/>
		<path class="st8" d="M484,173.3c-1,0.1-2,0-3-0.1c-1.9-0.1-4.4-0.4-7.2-0.7s-5.4-0.8-7.2-1.1c-1-0.1-2-0.3-2.9-0.7
			c1,0,2,0.1,3,0.3l7.2,0.9l7.2,0.9C482,172.9,483,173.1,484,173.3z"/>
		<path class="st8" d="M482.3,178.6c-3.1-0.2-6.3-0.5-9.4-1c-3.1-0.3-6.2-0.8-9.3-1.5c3.1,0.2,6.3,0.5,9.4,1
			C476.1,177.4,479.2,177.9,482.3,178.6z"/>
		<path class="st3" d="M373.8,168.3c0,0,2.5,22.9-0.7,35.4l-30.6-1.3c0,0,6.5-22.6,2.5-32.6L373.8,168.3z"/>
		<path class="st9" d="M342.5,163c0,0-2.1,27.4-3.8,32.6l27.8,2.9l4.2-4c0,0,2.7-20.1,2.3-26.6L342.5,163z"/>
		<polygon class="st7" points="367.2,194.4 366.6,198.6 370.8,194.6 		"/>
		<path class="st8" d="M367.6,177.6c-1.1,0-2.1-0.2-3.1-0.4l-7.5-1.1l-7.5-0.9c-1-0.1-2.1-0.2-3.1-0.5c1-0.1,2.1,0,3.1,0.1
			c1.9,0.1,4.6,0.4,7.5,0.8s5.6,0.8,7.5,1.2C365.5,177,366.6,177.2,367.6,177.6z"/>
		<path class="st8" d="M366.3,183.3c-1,0.1-2,0-3-0.1c-1.9-0.1-4.4-0.4-7.2-0.7s-5.4-0.8-7.2-1.1c-1-0.1-2-0.3-2.9-0.7
			c1,0,2,0.1,3,0.3l7.2,0.9l7.2,0.9C364.4,182.9,365.4,183,366.3,183.3z"/>
		<path class="st8" d="M364.6,188.6c-3.1-0.2-6.3-0.5-9.4-1c-3.1-0.3-6.2-0.8-9.3-1.5c3.1,0.2,6.3,0.5,9.4,1
			C358.4,187.4,361.5,187.9,364.6,188.6z"/>
		<polygon class="st3" points="332.8,213.5 335.2,269.5 405,270.3 401.9,214.3 		"/>
		<rect x="332" y="213.1" class="st8" width="69.4" height="52.4"/>
		<path class="st7" d="M401.4,265.5c0,0,0-0.3,0-1s0-1.6,0-2.8c0-2.5,0-6,0-10.6c0-9.1-0.1-22.2-0.1-38l0.2,0.2l-69.4,0.1l0,0
			l0.3-0.3c0,18.8,0,36.7,0,52.4l-0.2-0.2l50,0.1l14.2,0.1h3.8L401.4,265.5c-0.1,0-0.2,0-0.3-0.1h-1h-3.7l-14.2,0.1l-50.2,0.1h-0.2
			v-0.2c0-15.7,0-33.6,0-52.4v-0.3h0.3h69.4h0.2v0.2c0,15.9-0.1,29-0.1,38.1c0,4.6,0,8.1,0,10.6c0,1.2,0,2.1,0,2.8
			C401.4,265.2,401.4,265.5,401.4,265.5z"/>
		<rect x="340.4" y="224.2" class="st8" width="28.1" height="35.4"/>
		<path class="st7" d="M368.5,259.6c0-0.1,0-0.1,0-0.2c0-0.1,0-0.3,0-0.5c0-0.5,0-1.1,0-1.9c0-1.7,0-4.2-0.1-7.3
			c0-6.2-0.1-15.1-0.1-25.5l0.2,0.2h-28.1l0.3-0.3l0,0v9.6c0,3.1,0,6.2,0,9.2c0,5.9,0,11.5,0,16.6l-0.2-0.2l20.4,0.1h5.7h1.5
			c0.2,0,0.4,0,0.5,0c-0.2,0-0.3,0-0.5,0h-1.5l-5.7,0l-20.5,0.1h-0.2v-0.2c0-5.1,0-10.6,0-16.6c0-3,0-6,0-9.2v-9.6l0,0l0.3-0.3h28.1
			h0.2v0.2c0,10.5-0.1,19.4-0.1,25.7c0,3.1,0,5.5-0.1,7.2c0,0.8,0,1.4,0,1.9C368.6,259.1,368.6,259.4,368.5,259.6z"/>
		<rect x="341.4" y="216.1" class="st8" width="53.9" height="5.1"/>
		<path class="st7" d="M395.3,221.2c0-0.1,0-0.2,0-0.4c0-0.2,0-0.6,0-1c0-0.9,0-2.1-0.1-3.8l0.1,0.1c-9.1,0.1-29.8,0.2-53.9,0.2l0,0
			l0.3-0.3l0,0v5.1l-0.3-0.3l38.2,0.1l11.5,0.1h3.1h0.8L395.3,221.2l-0.2-0.1h-0.8h-3.1l-11.4,0.1l-38.4,0.1h-0.3V216l0,0
			c0.1-0.1-0.3,0.3,0.3-0.3l0,0c24.1,0,44.8,0.1,53.9,0.1h0.1v0.1c0,1.6,0,2.9-0.1,3.8v1C395.4,221.1,395.3,221.2,395.3,221.2z"/>
		<rect x="371.9" y="224.2" class="st8" width="23.4" height="21.3"/>
		<path class="st7" d="M395.3,245.6c0-0.1,0-0.3,0-0.4c0-0.3,0-0.7,0-1.2c0-1.1,0-2.5-0.1-4.4c0-3.8-0.1-9.1-0.1-15.4l0.2,0.2H372
			c-0.1,0.1,0.5-0.5,0.2-0.3l0,0v11.2c0,3.6,0,7,0,10.1l-0.2-0.2l16.9,0.1l4.8,0.1h1.3h0.5c-0.1,0-0.3,0-0.4,0h-1.2l-4.7,0.1
			l-17,0.1h-0.2v-0.2c0-3.1,0-6.5,0-10.1V230c0-0.9,0-1.9,0-2.8v-2.9l0,0c-0.2,0.2,0.3-0.3,0.3-0.3h23.4h0.2v0.2
			c0,6.4-0.1,11.8-0.1,15.6c0,1.8,0,3.3,0,4.3c0,0.5,0,0.8,0,1.1S395.3,245.6,395.3,245.6z"/>
		<rect x="371.9" y="248.9" class="st8" width="23.4" height="10.7"/>
		<path class="st7" d="M395.3,259.6c0-0.3,0-0.5,0-0.8c0-0.5,0-1.3,0-2.2c0-1.9-0.1-4.5-0.1-7.8l0.2,0.2l-23.4,0.1
			c-0.2,0.2,0.3-0.3,0.2-0.3l0,0v5.5c0,1.8,0,3.5,0,5.2l-0.2-0.2l16.7,0.1l4.9,0.1h1.3L395.3,259.6c-0.1-0.1-0.2-0.1-0.4-0.1h-1.3
			l-4.8,0.1l-16.9,0.1h-0.2v-0.2c0-1.7,0-3.4,0-5.2c0-0.9,0-1.8,0-2.7v-2.8l0,0c0,0.1,0.5-0.5,0.3-0.3l23.4,0.1h0.2v0.2
			c0,3.3-0.1,6-0.1,7.9c0,0.9,0,1.6,0,2.1C395.5,259.1,395.4,259.4,395.3,259.6z"/>
		<path class="st8" d="M367.8,224.3c-8.7,12-18.7,23.3-27.4,35.3"/>
		<path class="st7" d="M340.4,259.6c0.3-0.5,0.6-1,1-1.5c0.6-0.9,1.6-2.3,2.8-3.9c2.4-3.2,5.9-7.6,9.7-12.5s7.4-9.2,9.9-12.4
			l2.9-3.8c0.3-0.5,0.7-0.9,1.1-1.4c-0.3,0.5-0.6,1-1,1.5c-0.6,0.9-1.6,2.3-2.8,3.9c-2.4,3.2-5.9,7.6-9.8,12.5s-7.4,9.2-9.9,12.4
			l-2.9,3.8C341.2,258.8,340.8,259.2,340.4,259.6z"/>
		<line class="st11" x1="340.4" y1="224.2" x2="368.5" y2="259.6"/>
		<path class="st7" d="M368.5,259.6c-0.1,0.1-6.5-7.8-14.3-17.5s-14-17.8-13.9-17.9s6.5,7.8,14.3,17.5S368.6,259.5,368.5,259.6z"/>
		<circle class="st10" cx="330.8" cy="224.3" r="4.4"/>
		<path class="st7" d="M330.8,228.7c-2.4,0-4.4-2-4.4-4.4c0-2.4,2-4.4,4.4-4.4c2.4,0,4.4,2,4.4,4.4c0,0,0,0,0,0
			C335.2,226.8,333.2,228.7,330.8,228.7z M330.8,219.9c-2.4,0-4.4,2-4.4,4.4s2,4.4,4.4,4.4s4.4-2,4.4-4.4c0,0,0,0,0,0
			C335.2,221.9,333.2,219.9,330.8,219.9z"/>
		<circle class="st10" cx="402.8" cy="213.6" r="4.4"/>
		<path class="st7" d="M402.8,218.1c-2.4,0-4.4-2-4.4-4.4c0-2.4,2-4.4,4.4-4.4c2.4,0,4.4,2,4.4,4.4v0
			C407.2,216.1,405.2,218.1,402.8,218.1z M402.8,209.3c-2.4,0-4.4,2-4.4,4.4c0,2.4,2,4.4,4.4,4.4c2.4,0,4.4-2,4.4-4.4c0,0,0,0,0,0
			C407.1,211.2,405.2,209.3,402.8,209.3C402.8,209.3,402.8,209.3,402.8,209.3z"/>
		<polygon class="st3" points="427.3,193.1 406.5,203.8 396.5,202.3 401.9,192.8 423.7,185.1 		"/>
		<polygon class="st9" points="395.7,200.4 400.7,192.2 423.2,184.1 427.7,192.9 405.9,201.6 		"/>
		<path class="st8" d="M420.7,189.3c-0.7,0.4-1.4,0.7-2.2,1c-1.4,0.6-3.3,1.3-5.4,2.1l-5.4,2c-1.4,0.5-2.3,0.8-2.2,0.8
			c-0.2-0.2,3.2-1.7,7.4-3.3S420.6,189.2,420.7,189.3z"/>
		<path class="st8" d="M417.2,193.4c-1.5,1-3.1,1.7-4.8,2.3c-1.6,0.7-3.4,1.2-5.2,1.4C410.5,195.7,413.8,194.5,417.2,193.4
			L417.2,193.4z"/>
		<polygon class="st3" points="457.7,201.2 465.3,241.3 541,226.9 527.8,188 		"/>
		
			<rect x="458.8" y="194.4" transform="matrix(0.9825 -0.186 0.186 0.9825 -30.8808 95.841)" class="st8" width="73" height="36.1"/>
		<path class="st7" d="M534.5,223.4l-0.1-0.6c-0.1-0.4-0.2-1.1-0.4-1.9c-0.3-1.6-0.8-4-1.4-7.1c-1.2-6.1-2.9-15-5-25.9l0.2,0.1
			l-71.7,13.6l0,0l0.2-0.3c2.4,12.5,4.6,24.5,6.7,35.5l-0.3-0.2l51.5-9.6l14.9-2.8l4-0.7l1-0.2L534.5,223.4l-0.3,0.1l-1,0.2
			l-3.9,0.8l-14.8,2.9l-51.6,9.9l-0.2,0.1v-0.2l-6.7-35.5l0-0.2l0.3-0.1l0,0l71.7-13.5h0.2v0.2c2,10.9,3.7,19.8,4.8,26
			c0.5,3.1,1,5.4,1.3,7.1c0.1,0.8,0.2,1.4,0.3,1.8S534.5,223.4,534.5,223.4z"/>
		
			<rect x="466.4" y="206" transform="matrix(0.9825 -0.186 0.186 0.9825 -31.8709 92.4069)" class="st8" width="20.2" height="20.2"/>
		<path class="st7" d="M488.3,224.1c0-0.1-0.1-0.3-0.1-0.4c-0.1-0.3-0.1-0.6-0.2-1.1c-0.2-1-0.5-2.3-0.8-4l-2.8-14.3l0.3,0.2
			l-19.8,3.8c0,0.1,0.4-0.6,0.2-0.3l0,0v0.1v0.1v0.2l0.1,0.3l0.1,0.7c0.1,0.4,0.2,0.9,0.3,1.4c0.2,0.9,0.3,1.8,0.5,2.6
			c0.3,1.7,0.6,3.5,1,5.1c0.6,3.3,1.2,6.5,1.7,9.4l-0.3-0.2l14.3-2.6l4.1-0.7l1.1-0.2L488.3,224.1c-0.1,0.1-0.2,0.1-0.4,0.2l-1,0.2
			l-4,0.8l-14.4,2.9h-0.2v-0.2c-0.5-2.9-1.2-6-1.8-9.4c-0.3-1.7-0.7-3.4-1-5.1c-0.2-0.9-0.3-1.8-0.5-2.6c-0.1-0.4-0.2-0.9-0.3-1.3
			l-0.1-0.7l-0.1-0.3v-0.2v-0.1v-0.1l0,0l0.2-0.3l19.7-3.8h0.2v0.2c1.1,5.9,2,10.9,2.6,14.5c0.3,1.7,0.5,3,0.7,4
			c0.1,0.4,0.1,0.8,0.2,1C488.3,223.8,488.3,223.9,488.3,224.1z"/>
		<path class="st7" d="M488.3,224.1c0,0-0.1-0.5-0.4-1.4c-0.4-1.3-1.1-2.4-2.1-3.3l0,0c-0.7-0.7-1.5-1.2-2.5-1.5
			c-1.1-0.4-2.2-0.5-3.3-0.4h-0.5l0.2-0.4c0.9-1.4,0.9-3.2,0.2-4.7c-0.4-0.8-1-1.5-1.8-2c-0.8-0.5-1.7-0.7-2.7-0.6
			c-1.1,0-2.1,0.4-2.9,1.1c-0.8,0.6-1.3,1.5-1.5,2.5c-0.4,1.8,0.2,3.7,1.6,4.9l0.2,0.2l-0.3,0.2c-1.2,0.7-2.3,1.8-3,3
			c-0.6,1-1,2-1.1,3.1c-0.1,1-0.2,1.9-0.1,2.9c-0.1-0.2-0.1-0.5-0.2-0.8c-0.1-0.7-0.1-1.5,0-2.2c0.2-1.1,0.5-2.3,1.1-3.3
			c0.7-1.3,1.8-2.4,3.1-3.2v0.4c-1.6-1.3-2.3-3.4-1.8-5.4c0.2-1.1,0.8-2.1,1.7-2.8c0.9-0.7,2-1.1,3.2-1.2c1-0.1,2.1,0.2,3,0.7
			c0.9,0.5,1.5,1.3,2,2.2c0.8,1.7,0.7,3.6-0.2,5.2L480,217c1.2-0.1,2.4,0,3.5,0.4c0.9,0.4,1.8,0.9,2.5,1.6l0,0
			c1,0.9,1.8,2.2,2.1,3.6c0.1,0.4,0.2,0.7,0.2,1.1C488.3,224,488.3,224.1,488.3,224.1z"/>
		<path class="st8" d="M492.1,203.6l17.2-3.3"/>
		<path class="st7" d="M509.3,200.3c-2.8,0.8-5.7,1.4-8.5,1.9c-2.9,0.6-5.7,1.1-8.6,1.4c2.8-0.8,5.7-1.4,8.5-1.9
			C503.5,201.1,506.4,200.6,509.3,200.3z"/>
		<path class="st8" d="M492.9,207.6l3.5-0.7"/>
		<path class="st7" d="M496.3,206.9c0,0.1-0.7,0.4-1.7,0.6s-1.8,0.2-1.8,0.1s0.7-0.4,1.7-0.6S496.3,206.8,496.3,206.9z"/>
		<path class="st7" d="M524.9,208.7c0,0.1-6.8,1.6-15.3,3.2s-15.4,2.8-15.4,2.6s6.8-1.5,15.3-3.2S524.9,208.6,524.9,208.7z"/>
		<path class="st7" d="M525.7,212.1c0,0.1-6.9,1.6-15.4,3.2s-15.5,2.8-15.5,2.7s6.9-1.6,15.4-3.2C518.8,213.2,525.7,212,525.7,212.1
			z"/>
		<path class="st7" d="M526,216.2c-0.4,0.1-0.8,0.3-1.2,0.3l-3.2,0.7c-2.7,0.6-6.5,1.3-10.7,2.1s-8,1.5-10.8,2l-3.3,0.5
			c-0.4,0.1-0.8,0.1-1.2,0.1c0.4-0.2,0.8-0.3,1.2-0.3l3.2-0.7c2.7-0.6,6.5-1.3,10.7-2.1c4.2-0.8,8-1.5,10.7-2l3.3-0.5
			C525.2,216.3,525.6,216.2,526,216.2z"/>
		<path class="st10" d="M494.7,199.7c0.2-0.2,0.5-0.3,0.8-0.4c0.8-0.4,1.5-0.7,2.3-0.9c2.9-0.9,6-1.2,9.1-0.9
			c2.1,0.2,4.2,0.8,6.1,1.8c1.1,0.5,2,1.3,2.8,2.2c0.8,1,1.2,2.4,0.9,3.7c-0.4,1.3-1.2,2.4-2.4,3.2c-1.1,0.8-2.3,1.5-3.6,2.1
			c-2.6,1.3-5.3,2.2-8.2,2.8c-2.9,0.6-5.8,0.6-8.6-0.1c-1.4-0.3-2.7-0.8-3.8-1.6c-1.2-0.7-2.1-1.7-2.6-3c-0.4-1.3-0.3-2.7,0.4-3.8
			c0.6-1,1.5-1.9,2.4-2.6c1.7-1.2,3.6-2.2,5.6-3c2.9-1.1,5.9-1.6,9-1.6c0.8,0,1.7,0.1,2.5,0.2c0.3,0,0.6,0.1,0.9,0.2
			c-0.3,0-0.6,0-0.9-0.1c-0.6,0-1.4-0.1-2.5-0.1c-3,0-6.1,0.6-8.9,1.7c-1.9,0.8-3.8,1.8-5.5,3c-0.9,0.7-1.7,1.5-2.3,2.5
			c-0.6,1-0.8,2.3-0.4,3.4c0.5,1.2,1.3,2.1,2.4,2.8c1.1,0.7,2.4,1.2,3.7,1.5c2.8,0.6,5.6,0.7,8.4,0.1c2.8-0.6,5.5-1.5,8-2.8
			c1.2-0.5,2.4-1.2,3.5-2c1-0.7,1.8-1.8,2.2-3c0.3-1.2,0-2.4-0.8-3.3c-0.7-0.9-1.6-1.6-2.7-2.1c-1.9-0.9-3.9-1.5-6-1.8
			c-3-0.4-6.1-0.2-9,0.7c-1,0.3-1.8,0.6-2.3,0.8C495.2,199.5,495,199.6,494.7,199.7z"/>
		<path class="st10" d="M515.3,199.1c1.6-1.6,3.3-3.1,5.1-4.5c1.7-1.5,3.5-2.9,5.4-4.1c-1.6,1.6-3.3,3.1-5.1,4.5
			C519,196.6,517.2,197.9,515.3,199.1z"/>
		<path class="st10" d="M521.7,198.3c-2,0.7-4,1.2-6,1.5l-0.7,0.1l-0.4,0.1l0.1-0.4c0.3-1.8,1.1-3.5,2.2-5c0.1,0.1-1,2.1-1.7,5.1
			l-0.3-0.3l0.7-0.1C517.6,198.7,519.7,198.4,521.7,198.3z"/>
		<path class="st10" d="M511,202.6c-3.1,0.7-6.3,1.3-9.4,1.7c-3.1,0.6-6.3,1-9.5,1.2c3.1-0.7,6.3-1.3,9.4-1.7
			C504.6,203.2,507.8,202.8,511,202.6z"/>
		<path class="st10" d="M489.5,195c0.5,2.4-1.1,4.7-3.5,5.1c-2.4,0.5-4.7-1.1-5.1-3.5c-0.5-2.4,1.1-4.7,3.5-5.1c0,0,0,0,0,0
			C486.8,191,489.1,192.6,489.5,195z"/>
		<path class="st7" d="M485.2,200.2c-2.4,0-4.4-2-4.4-4.4c0-2.4,2-4.4,4.4-4.4c2.4,0,4.4,2,4.4,4.4c0,2.1-1.5,4-3.6,4.4
			C485.8,200.2,485.5,200.2,485.2,200.2z M485.2,191.4c-0.3,0-0.5,0-0.8,0.1c-2.4,0.4-3.9,2.7-3.5,5.1c0.4,2.4,2.7,3.9,5.1,3.5
			c2.4-0.4,3.9-2.7,3.5-5.1c0,0,0,0,0,0C489.1,192.9,487.3,191.5,485.2,191.4L485.2,191.4z"/>
		<polygon class="st1" points="196.8,90.1 554.8,99.9 555,89.2 		"/>
		<rect x="193.1" y="82.2" class="st9" width="369.5" height="8"/>
	</g>
	<g id="freepik--character-2--inject-51" style="clip-path:url(#SVGID_00000054232983451031390890000006385267226448506017_);">
		<path class="st7" d="M574.6,186c4.8-3.3,11.3-2.1,14.6,2.7c1.5,2.1,2.1,4.7,1.8,7.2c-0.3,2.1-1.1,4.2-0.6,6.2c1,3.8,6.3,5.3,7,9.1
			c0.1,1.5-0.1,3.1-0.7,4.5c-0.4,1.5-0.7,3.2,0.1,4.5c0.7,0.9,1.5,1.7,2.4,2.4c2.6,2.6,2.6,7.2,0.4,10.1c-2.4,2.9-6,4.5-9.7,4.3
			c-3.7-0.3-7.3-1.5-10.3-3.5"/>
		<path class="st7" d="M577.2,188.4c-1.2-3.5-4.2-6.2-7.9-7c-3.6-0.9-8-2-11.3-0.4c-2.1,0.9-3.9,2.6-4.8,4.7c-1,2.6,0.5,7.4,1.2,10
			s1.3,5.6-0.2,8s-4.3,3.1-6.1,5.1c-2.5,3-2.1,7.3,0.7,9.9c-3.2-0.2-5.9,3.1-5.8,6.2s2.4,6,5.3,7.4c2.9,1.3,6.1,1.9,9.3,1.8
			c4,0,7.9-0.4,11.8-1.2c3.2-0.7,6.5-1.7,8.6-4.2c1.9-2.3,2.4-5.5,2.4-8.4c0-10.6-5.5-21.1-3.1-31.4"/>
		<path class="st12" d="M561.2,301.4c0,0-20.7,67.1-19.4,88.8s17.1,75.6,17.1,75.6L561.2,301.4z"/>
		<path class="st13" d="M590.4,289.9c0.5-0.1,9.5,13.2,9.8,24.7c0,1.1,0,2.3-0.1,3.4c-0.4,4-1.3,7.9-2.8,11.7
			c-7.7,19.4-15.6,42.4-15.7,47.6c-0.4,16.1-7.4,88.5-7.4,88.5l-15.3,0.4l-4.6-88.5l7.6-88.5L590.4,289.9z"/>
		<path class="st13" d="M472.6,243.1c1.6-1.6,8.7,4.5,9.3,5s1.4-0.4,0.8-0.8c-0.9-0.6-9.8-6.9-8.3-8.5c0.8-0.9,2.3,0.8,2.3,0.8
			s7.9,6.5,8.6,5.7s-3.8-4.8-5.5-6s-1.7-2.5-0.5-2.7c0.8-0.2,5.8,3.5,7.4,4.7s5.8,4.8,5.1,1.3s0.1-6.3,0.8-7s1.9,0.2,1.7,1.2
			c-0.2,1.2-0.2,2.4,0,3.5c0.1,0.9,0.4,1.9,0.8,2.7c0.5,1,0.9,1.8,1.3,2.5c4.8,2.9,18.5,10.5,32.4,12.1c2.5,0.3,12.3-15,12.3-15
			l15.2,12.4c0,0,0.1,1-10.8,14.5c-14.9,18.4-58.2-13-58.2-13v0c-3.5-1.5-6.9-3.2-10.1-5c-4.5-2.7-4.2-3.1-3.8-3.6
			c1.1-1.2,8,4.5,7.2,2.4S471.4,244.3,472.6,243.1z"/>
		<path class="st3" d="M460.5,232.1c0,0-2.5,22.9,0.7,35.4l30.6-1.3c0,0-6.5-22.6-2.5-32.6L460.5,232.1z"/>
		<path class="st10" d="M460.6,231.3c0,0,0.2,24.7,1.5,32.3l31-1.5c0,0-2.7-24.3-1.7-30.8L460.6,231.3z"/>
		<path class="st8" d="M486.7,241.7c-3.4,0.5-6.9,0.8-10.4,0.9c-3.5,0.3-6.9,0.4-10.4,0.4c0-0.1,4.6-0.5,10.4-0.9
			S486.7,241.6,486.7,241.7z"/>
		<path class="st8" d="M486.8,247c0,0.1-4.6,0.5-10.4,0.9s-10.4,0.5-10.4,0.4c3.4-0.5,6.9-0.8,10.4-0.9
			C479.8,247.1,483.3,246.9,486.8,247z"/>
		<path class="st8" d="M481.5,252.1c-1.9,0.4-3.9,0.6-5.9,0.6c-2,0.2-4,0.2-5.9,0.1c1.9-0.4,3.9-0.6,5.9-0.6
			C477.5,252,479.5,251.9,481.5,252.1z"/>
		<path class="st9" d="M605.9,365.3c0,0,3-64.2-6.2-69.8s-51.9,3.4-51.9,3.4S534.4,359.5,535,360
			C539.4,363.8,605.9,365.3,605.9,365.3z"/>
		<path class="st7" d="M606.2,359.7c-2.6,0.1-5.1,0.1-7.7-0.1c-2.6,0-5.1-0.3-7.7-0.7c2.6-0.1,5.1-0.1,7.7,0.1
			C601,359.1,603.6,359.3,606.2,359.7z"/>
		<path class="st7" d="M601.4,365.2c-0.2-0.9-0.2-1.8-0.1-2.6c0-0.9,0.1-1.8,0.4-2.6c0.2,0.9,0.3,1.8,0.1,2.6
			C601.9,363.5,601.7,364.4,601.4,365.2z"/>
		<path class="st7" d="M593.6,365.3c-0.3-1-0.5-2-0.5-3c-0.2-1-0.2-2,0-3c0.3,1,0.5,2,0.5,3C593.8,363.3,593.8,364.3,593.6,365.3z"
			/>
		<path class="st10" d="M558.6,467.6v-2l15.8-0.3v6.2l-1,0.1c-4.3,0.2-22.1,0.9-25,0.1C545.2,470.6,558.6,467.6,558.6,467.6z"/>
		<g class="st14">
			<path class="st8" d="M568.7,471.5c0.2-1.3,0.9-2.5,2-3.4c1-0.8,2.4-1.2,3.7-1.1v4.4L568.7,471.5z"/>
		</g>
		<g class="st14">
			<path class="st8" d="M552,469.3c0,0-4.7,1.4-4.1,2.1s18.5,0.8,26.5,0V471l-21,0.2C553.5,471.3,553,469.3,552,469.3z"/>
		</g>
		<path class="st7" d="M574.5,471h-0.3l-0.8,0l-2.9,0.1c-2.4,0.1-5.8,0.2-9.4,0.2s-7-0.1-9.4-0.1l-2.9-0.1l-0.8,0
			c-0.1,0-0.2,0-0.3,0h1l2.9,0.1c2.4,0,5.8,0.1,9.4,0.1s7-0.1,9.4-0.1l2.9-0.1h0.8C574.3,471,574.4,471,574.5,471z"/>
		<path class="st7" d="M553.4,471.6c-0.1-0.5-0.3-0.9-0.5-1.4c-0.3-0.4-0.6-0.8-1-1.1c0.5,0.2,0.9,0.5,1.1,1
			C553.4,470.6,553.5,471.1,553.4,471.6z"/>
		<path class="st7" d="M558.4,468.9c0,0-0.3-0.2-0.5-0.6c-0.2-0.2-0.3-0.5-0.3-0.7c0,0,0.3,0.2,0.5,0.6S558.4,468.8,558.4,468.9z"/>
		<path class="st7" d="M559.7,468.2c0,0-0.3-0.1-0.6-0.4s-0.5-0.5-0.4-0.5s0.3,0.1,0.6,0.4S559.7,468.2,559.7,468.2z"/>
		<path class="st7" d="M560.5,466.7c-0.3,0.1-0.5,0.1-0.8,0.1c-0.3,0-0.6,0-0.8-0.1c0.3-0.1,0.5-0.1,0.8-0.1
			C559.9,466.6,560.2,466.6,560.5,466.7z"/>
		<path class="st7" d="M560.7,465.7c-0.3,0.2-0.6,0.3-0.9,0.3c-0.3,0.1-0.7,0-1-0.1c0.3-0.1,0.6-0.1,0.9-0.1
			C560.1,465.7,560.4,465.7,560.7,465.7z"/>
		<path class="st7" d="M557.8,467.5c-0.3,0.1-0.7,0.1-1,0c-0.4,0-0.7-0.1-1.1-0.2c-0.2-0.1-0.4-0.1-0.6-0.2
			c-0.1-0.1-0.2-0.2-0.2-0.3c0-0.2,0-0.3,0.2-0.4c0.8-0.4,1.8-0.2,2.3,0.5c0.2,0.2,0.3,0.4,0.3,0.7c0,0.1,0,0.2,0,0.3
			c-0.1-0.3-0.3-0.6-0.5-0.9c-0.2-0.3-0.5-0.5-0.9-0.6c-0.4-0.1-0.8-0.1-1.2,0.1c-0.2,0.1-0.1,0.3,0.1,0.4c0.2,0.1,0.4,0.2,0.6,0.2
			c0.3,0.1,0.7,0.2,1,0.3C557.5,467.5,557.8,467.5,557.8,467.5z"/>
		<path class="st7" d="M557.6,467.5c-0.1-0.2-0.2-0.5-0.1-0.7c0-0.3,0.1-0.5,0.3-0.7c0.2-0.3,0.5-0.5,0.8-0.5c0.2,0,0.4,0.3,0.3,0.5
			c0,0.2-0.1,0.3-0.2,0.5c-0.1,0.2-0.3,0.4-0.5,0.6C558.1,467.3,557.9,467.4,557.6,467.5c0.1,0,0.3-0.2,0.6-0.5
			c0.2-0.2,0.3-0.4,0.4-0.6c0.1-0.2,0.2-0.6,0-0.6s-0.5,0.2-0.7,0.4c-0.1,0.2-0.2,0.4-0.3,0.7C557.6,467.1,557.6,467.3,557.6,467.5z
			"/>
		<path class="st7" d="M574.6,467c0,0-0.5,0-1.2,0c-0.9,0.1-1.8,0.4-2.5,1c-0.7,0.6-1.3,1.4-1.6,2.2c-0.1,0.4-0.2,0.7-0.3,1.1
			c0,0,0-0.1,0-0.3c0-0.3,0.1-0.6,0.2-0.9c0.6-1.9,2.3-3.2,4.2-3.4c0.3,0,0.6,0,0.9,0C574.4,466.9,574.5,466.9,574.6,467z"/>
		<path class="st7" d="M567,469.5c-0.8,0.2-1.5,0.3-2.3,0.2c-0.8,0-1.5,0-2.3-0.2c0,0,1,0,2.3,0S567,469.4,567,469.5z"/>
		<path class="st7" d="M570.1,469.5c0,0-0.1,0.2-0.2,0.5s-0.2,0.4-0.2,0.4s-0.1-0.2,0-0.5S570.1,469.4,570.1,469.5z"/>
		<path class="st7" d="M571.3,468c0,0-0.1,0.2-0.2,0.4s-0.3,0.3-0.4,0.2s0.1-0.2,0.2-0.4S571.2,468,571.3,468z"/>
		<path class="st7" d="M572.9,467.4c0,0.1-0.2,0.1-0.5,0.1s-0.4,0.2-0.4,0.2s0.1-0.3,0.4-0.4S573,467.3,572.9,467.4z"/>
		<path class="st7" d="M574.1,467c0,0-0.1,0.1-0.2,0.2s-0.3,0-0.3,0s0.1-0.1,0.2-0.2S574.1,467,574.1,467z"/>
		<path class="st10" d="M531.7,255.8l17.6,9.9l1.2-1.2l1.3,2.4l-1.2,32.8l47.8-9l-3.9-5.6c-3.8-5.2-2.9-12.5-1.4-18.7l0.5-2.1
			l10.1,0.2c0,0,1-5.7,0-18.3c0-0.2,0-0.4,0-0.6c-1.1-11.7-11.4-20.5-23.1-19.6l-17.4,1.2c0,0-13.8-2.9-23.3,13.4L531.7,255.8z"/>
		<path class="st7" d="M552.9,250.5c-0.1,0.8-0.3,1.7-0.6,2.5c-0.5,1.7-1.1,3.6-1.8,5.8c-0.7,1.9-0.6,4,0.3,5.8
			c0.4,0.8,0.7,1.5,1,2.3c-0.6-0.6-1-1.4-1.4-2.2c-0.4-0.8-0.7-1.7-0.8-2.7c-0.1-1.2,0-2.3,0.4-3.4c0.7-2.3,1.5-4.3,2-5.8
			C552.1,252,552.5,251.2,552.9,250.5z"/>
		<path class="st7" d="M603.7,264.1c-0.5,0-0.9,0-1.4,0l-3.7-0.2c-3.1-0.2-7.4-0.6-12.2-1l-2.3-0.2h-0.2v-0.2
			c0.3-4.2,0.3-8,0.4-10.7c0.1-1.4,0.2-2.4,0.2-3.2c0-0.4,0.1-0.8,0.2-1.1c0,0.4,0,0.8,0,1.2c0,0.8-0.1,1.9-0.1,3.2
			c-0.1,2.7,0,6.5-0.2,10.7l-0.2-0.3l2.3,0.2c4.8,0.4,9.1,0.8,12.2,1.1l3.7,0.4C602.8,263.9,603.2,264,603.7,264.1z"/>
		<path class="st2" d="M603.4,245.3c-0.2,0-0.5-0.1-0.7-0.1l-1.9-0.4c-2.3-0.6-4.7-1-7.1-1.2c-1.7-0.2-3.3-0.2-5,0
			c-1.9,0.2-3.7,0.6-5.5,1.2c-3.8,1.2-7.8,3.3-12.4,4.4c-1.1,0.3-2.3,0.5-3.5,0.5c-1.1,0-2.3,0-3.4-0.2c-2.1-0.4-4.1-1.1-6-2.2
			c-3.6-1.9-6.6-3.9-9.5-4.9c-2.2-0.9-4.6-1.1-7-0.8c-0.9,0.2-1.7,0.5-2.5,0.8c0.7-0.5,1.6-0.8,2.5-1c2.4-0.4,4.9-0.2,7.2,0.6
			c3,0.9,6.1,2.9,9.6,4.8c1.8,1,3.8,1.7,5.9,2.1c2.2,0.3,4.5,0.2,6.7-0.3c4.5-1.1,8.5-3.2,12.4-4.4c1.8-0.6,3.7-1,5.7-1.2
			c1.7-0.1,3.3-0.1,5,0.1c2.4,0.3,4.8,0.8,7.1,1.4l1.9,0.5C603,245.1,603.2,245.2,603.4,245.3z"/>
		<path class="st2" d="M583.1,272.4c-0.4,0.1-0.9,0.1-1.3,0.1c-1.2,0.1-2.4,0.3-3.5,0.5c-1.7,0.4-3.4,0.9-5.1,1.5
			c-1.9,0.7-4,1.4-6.2,2c-2.1,0.6-4.4,0.8-6.5,0.6c-1.8-0.2-3.5-0.8-5.1-1.8c-1-0.7-1.9-1.6-2.5-2.6c-0.2-0.3-0.3-0.6-0.4-0.9
			c-0.1-0.2-0.1-0.3-0.1-0.3s0.2,0.4,0.7,1.1c0.7,1,1.6,1.8,2.6,2.4c1.5,0.9,3.2,1.5,4.9,1.6c2.1,0.2,4.3,0,6.4-0.6
			c2.2-0.5,4.3-1.3,6.2-1.9c1.7-0.6,3.4-1.1,5.2-1.4c1.2-0.2,2.4-0.4,3.6-0.4C582.2,272.2,582.7,272.3,583.1,272.4z"/>
		<g class="st15">
			<path d="M584.5,248c-2.2,5.3-2.4,11.2-3.2,16.9s-2.2,11.6-6,15.8s-10,6.2-15.7,7.8l24.9-2.2L584.5,248z"/>
		</g>
		<path class="st10" d="M583.2,389.3c0,0,8.9-38,16.9-61.1c8-23.4-3.5-38.2-3.5-38.2l-45.2,5.3l-8.7,33.4c0,0-6.9,35.7-4.1,62
			L583.2,389.3z"/>
		<path class="st2" d="M596.2,336.9c-0.4-0.6-0.8-1.3-1.2-1.9c-1.2-1.6-2.9-2.8-4.7-3.6c-2.7-1.2-5.7-1.6-8.7-1.3
			c-3.6,0.4-7.3,1.1-10.8,2c-3.6,0.9-7.3,1.2-11,0.8c-3-0.6-5.8-1.7-8.4-3.4c-1.7-1.1-3.5-2-5.3-2.9c-1.3-0.6-2.1-0.8-2.1-0.8
			c0.2,0,0.4,0.1,0.6,0.1c0.5,0.1,1.1,0.3,1.6,0.5c1.9,0.8,3.7,1.7,5.4,2.7c2.5,1.6,5.3,2.7,8.3,3.2c3.6,0.4,7.3,0.1,10.9-0.8
			c3.6-0.9,7.2-1.6,10.9-2c3-0.3,6.1,0.2,8.9,1.5c1.9,0.8,3.5,2.2,4.7,3.8c0.2,0.3,0.4,0.5,0.5,0.8c0.1,0.2,0.2,0.4,0.3,0.6
			C596.1,336.6,596.2,336.7,596.2,336.9z"/>
		<path class="st2" d="M585.6,375c-0.4-0.5-0.9-1-1.4-1.5c-1.4-1.2-3.2-1.9-5-2.2c-2.7-0.3-5.5,0-8,1c-2.9,1-6,2.6-9.4,3.8
			c-3.2,1.2-6.7,1.7-10.1,1.2c-2.8-0.4-5.4-1.3-7.9-2.6c-1.6-0.9-3.1-2.1-4.4-3.4c-0.4-0.4-0.7-0.7-1-1.1c-0.1-0.1-0.2-0.3-0.3-0.4
			c0,0,0.5,0.5,1.5,1.4c1.3,1.3,2.8,2.4,4.5,3.3c2.4,1.3,5,2.2,7.8,2.5c3.3,0.4,6.7,0,9.8-1.2c3.3-1.2,6.4-2.8,9.4-3.8
			c2.6-1,5.5-1.3,8.2-0.9c1.9,0.3,3.6,1.2,5,2.4c0.4,0.4,0.7,0.7,1,1.2C585.5,374.9,585.6,375,585.6,375z"/>
		<g class="st16">
			<path d="M546,348.7c-0.5,1.8-0.6,3.7-0.3,5.5c0.4,1.8,2,3.5,3.8,3.4c1,0,2-0.5,2.9,0c0.6,0.5,1,1.3,1.1,2.1
				c1.6,5.6,7.4,8.9,13,7.3c2.1-0.6,4-1.9,5.4-3.6c2.5-3.1,3-7.3,2.5-11.2s-2.1-7.6-3.4-11.3c-2.6-7.7-4.5-15.6-5.8-23.6
				c-0.4-1.6-0.4-3.2,0.2-4.8c1.1-2.5,4.2-3.2,6.8-3.6c10.1-1.8,20.1-4.1,29.9-7.1c-5.6-1.2-11.4-0.4-17,0.6
				c-6.2,1.1-12.4,2.5-18.6,4.1c-1.6,0.3-3.1,1-4.3,2c-1,1.3-1.7,2.8-2,4.4c-3.4,12.9-8.4,25.3-15.1,36.8"/>
		</g>
		<path class="st9" d="M559.7,308.1l43.3-7c-0.5-2.1-1.2-4.1-2-6.1c-0.9-2.2-3.3-3.9-4.4-5c-2.6-2.6-38.7,13.3-38.7,13.3
			L559.7,308.1z"/>
		<polygon class="st9" points="559.7,308.1 547.7,304.2 549.5,294.3 561.2,303.4 		"/>
		<path class="st9" d="M559.8,308.1c0,0-3.3,11.9-3.2,19.8s0.4,24.3,1.5,30.1s16.8-0.8,13.8-6.2s-8.4-24.7-8.6-29.3
			s0.3-15.9,0.3-15.9L559.8,308.1z"/>
		<path class="st7" d="M571,350.1c-0.3,0.7-0.7,1.3-1.2,1.9c-2.3,2.8-5.6,4.6-9.3,5c-0.7,0.1-1.5,0.1-2.2-0.1
			c0.7-0.1,1.4-0.2,2.2-0.3c1.7-0.3,3.4-0.8,4.9-1.7c1.5-0.8,2.9-1.9,4.1-3.2C570.4,350.8,570.9,350.1,571,350.1z"/>
		<path class="st7" d="M562.6,360.3c-0.1,0-0.5-0.7-0.9-1.6s-0.5-1.8-0.4-1.8s0.5,0.7,0.9,1.6S562.7,360.2,562.6,360.3z"/>
		<path class="st7" d="M567.5,358.4c-0.1,0.1-0.6-0.6-1.1-1.5s-0.7-1.7-0.6-1.8s0.6,0.6,1.1,1.5S567.6,358.4,567.5,358.4z"/>
		<path class="st7" d="M571.6,355.4c-0.1,0.1-0.6-0.6-1.2-1.5s-0.8-1.7-0.7-1.8s0.6,0.6,1.2,1.5S571.7,355.3,571.6,355.4z"/>
		<path class="st9" d="M557,305.9c-4.2,7.6-2.4,17.6-7.2,24.7c-1.9,2.9-4.9,5.1-6,8.4c-0.9,2.6-0.4,5.6,1.4,7.8
			c1.9,2.1,4.8,2.9,7.5,1.9c1.9-0.9,3.3-2.4,4.1-4.4c0.8-1.9,1.3-3.9,1.5-5.9c1.5-9,3.1-17.9,4.6-26.9c0.3-1.8,0.6-3.7-0.3-5.3
			s-3.5-2.3-4.5-0.8"/>
		<path class="st7" d="M557,348.2c-0.1-0.5-0.2-1.1-0.2-1.6c-0.1-1-0.2-2.5-0.3-4.4c-0.2-3.7-0.4-8.9-0.2-14.5s0.5-10.8,0.9-14.5
			c0.2-1.9,0.4-3.3,0.5-4.4c0.1-0.5,0.1-1.1,0.3-1.6c0,0.5,0,1.1-0.1,1.6c-0.1,1.1-0.2,2.6-0.4,4.4c-0.3,3.7-0.6,8.8-0.7,14.5
			s0,10.8,0.1,14.5c0.1,1.8,0.1,3.3,0.2,4.4C557.1,347.1,557.1,347.7,557,348.2z"/>
		<path class="st7" d="M554.2,347.4c-0.7,0.1-1.4,0-2-0.2c-3.2-0.8-5.9-2.8-7.7-5.5c-0.4-0.5-0.7-1.1-0.8-1.8
			C546,343.7,549.8,346.4,554.2,347.4L554.2,347.4z"/>
		<path class="st7" d="M549.1,345.6c0.1,0.1-0.5,0.7-1.2,1.3s-1.5,1-1.5,0.9s0.5-0.7,1.2-1.3S549,345.5,549.1,345.6z"/>
		<path class="st7" d="M545.2,342.5c0.1,0.1-0.3,0.5-0.7,0.9s-0.7,0.8-0.8,0.8s0-0.6,0.4-1.1S545.1,342.4,545.2,342.5z"/>
		<path class="st7" d="M564,302.3c0,0,0.2,0.2,0.3,0.6c0.2,0.6,0.2,1.3,0.1,1.9c-0.1,1-0.6,1.9-1.2,2.6c-1.8,1.7-4.7,1.7-6.5,0
			c-0.7-0.7-1.1-1.6-1.2-2.6c-0.1-0.6,0-1.3,0.2-1.9c0.1-0.2,0.2-0.4,0.3-0.6c-0.2,0.8-0.3,1.6-0.1,2.5c0.2,0.9,0.6,1.7,1.2,2.3
			c1.6,1.5,4.2,1.5,5.8,0c0.6-0.6,1.1-1.4,1.2-2.3C564.2,304,564.2,303.1,564,302.3z"/>
		<path class="st7" d="M561.7,308c-0.3-1-0.6-2-1-3c-0.6-0.9-1.2-1.7-1.8-2.5C560.9,303.5,562,305.7,561.7,308L561.7,308z"/>
		<path class="st13" d="M526.2,298.6c0.5-2.2,9.8-0.8,10.6-0.7s0.9-1.1,0.2-1.1c-1,0-12-0.6-11.5-2.8c0.2-1.2,2.4-0.6,2.4-0.6
			s10.2,1.3,10.3,0.2s-5.8-2-7.8-2.2s-2.7-1.2-1.9-2c0.6-0.6,6.8-0.1,8.8,0.1s7.5,0.9,5.1-1.6s-3.3-5.4-3-6.4
			c0.2-0.6,0.9-0.8,1.4-0.6c0.3,0.1,0.5,0.4,0.6,0.7c0.5,1.1,1.1,2.1,1.9,3c0.6,0.8,1.3,1.4,2.1,1.9c0.9,0.6,1.8,1,2.5,1.4
			c5.6-0.1,21.2-0.9,33.9-7c2.3-1.1,2.5-18.5,2.5-18.5l19.5,1.7c0,0,0,5-1.5,18c-2.7,23.5-56.3,19.9-56.3,19.9l0,0
			c-3.7,0.6-7.5,1-11.2,1.2c-5.2,0-5.2-0.4-5.1-1c0.3-1.6,9.2-0.4,7.4-1.8S525.9,300.3,526.2,298.6z"/>
		<g class="st15">
			<path d="M544,263.1c3.7-3.6,6.6-7.8,8.8-12.4c-1.4,3.8-2.9,7.7-2.8,11.7c0,1.2,0.1,2.6-0.8,3.4c-1.6-1.1-3.4-2-5.2-2.7"/>
		</g>
		<path class="st13" d="M582.3,190.2l0,2.5l-0.5,37.7c-0.2,4.5-4,7.9-8.4,7.7c0,0-0.1,0-0.1,0l0,0c-4.7-0.1-8.6-3.8-8.6-8.2
			c0-4.6-0.1-9.5-0.1-9.5s-6-1-7.2-8.8c-0.6-3.9-0.4-10.2-0.1-15.4c0.3-4.5,4.2-8,8.7-7.7c0.1,0,0.2,0,0.3,0L582.3,190.2z"/>
		<path class="st7" d="M559,201c0,0.6,0.4,1,1,1c0.5,0,0.9-0.4,1-0.9c0-0.6-0.4-1-1-1C559.5,200.1,559.1,200.5,559,201z"/>
		<path class="st7" d="M558.6,199.5c0.1,0.1,0.9-0.4,2-0.4s1.9,0.5,2,0.4s-0.1-0.3-0.4-0.6c-0.5-0.3-1-0.5-1.6-0.5
			c-0.6,0-1.1,0.2-1.6,0.5C558.7,199.2,558.5,199.4,558.6,199.5z"/>
		<path class="st7" d="M569.2,201c0,0.6,0.4,1,1,1c0.5,0,0.9-0.4,1-0.9c0-0.6-0.4-1-1-1C569.6,200.1,569.2,200.5,569.2,201z"/>
		<path class="st7" d="M569.2,199.7c0.1,0.1,0.9-0.4,2-0.4s1.9,0.5,2,0.4s-0.1-0.3-0.4-0.6c-0.9-0.7-2.2-0.7-3.1,0
			C569.2,199.4,569.1,199.6,569.2,199.7z"/>
		<path class="st7" d="M565.3,207.7c-0.6-0.2-1.1-0.3-1.7-0.3c-0.3,0-0.5-0.1-0.6-0.3c0-0.3,0-0.6,0.2-0.8c0.3-0.7,0.5-1.4,0.8-2.1
			c0.8-1.8,1.4-3.6,1.8-5.5c-0.9,1.7-1.7,3.5-2.3,5.3c-0.3,0.7-0.5,1.4-0.8,2.1c-0.2,0.3-0.2,0.7-0.2,1.1c0.1,0.2,0.3,0.3,0.5,0.4
			c0.2,0,0.3,0.1,0.5,0.1C564.1,207.7,564.7,207.7,565.3,207.7z"/>
		<path class="st12" d="M564.5,220.4c3.7,0.1,7.3-0.9,10.5-2.8c0,0-2.5,5.4-10.3,4.6L564.5,220.4z"/>
		<path class="st10" d="M565.7,210.3c0.4-0.5,1.1-0.8,1.7-0.7c0.5,0,0.9,0.3,1.2,0.6c0.3,0.4,0.3,0.9,0.1,1.3
			c-0.4,0.4-0.9,0.5-1.4,0.4c-0.5-0.2-1-0.5-1.4-0.8c-0.1-0.1-0.2-0.2-0.3-0.3C565.6,210.6,565.6,210.4,565.7,210.3"/>
		<path class="st7" d="M568.4,208.4c-0.2,0-0.2,1.2-1.2,2s-2.2,0.7-2.2,0.9s0.3,0.2,0.8,0.2c0.7,0,1.3-0.2,1.9-0.6
			c0.5-0.4,0.8-1,0.9-1.7C568.7,208.7,568.5,208.4,568.4,208.4z"/>
		<path class="st7" d="M583.7,225.9c-2.3-0.8-5-1.6-5.9-3.9c-0.8-2.3-0.9-4.8-0.2-7.2c0.3-1.1,0.8-2.3,0.3-3.3
			c-0.4-0.7-1-1.3-1.7-1.8c-1.3-1.3-2.1-3-2.2-4.9c-0.1-1.8,0.3-3.7,1-5.4c0.5-0.9,0.7-1.9,0.5-2.9c-0.3-0.6-0.8-1.2-1.3-1.6
			c-1.1-1-2-2.3-2.7-3.6c-0.6-0.9-0.7-2.1-0.4-3.1c0.6-1.2,2-1.5,3.3-1.6c3.1-0.2,6.5,0.4,8.5,2.8c1.8,2.1,2,5.1,2.1,7.9
			c0.4,8.7,0.8,17.6-0.7,26.2"/>
		<path class="st7" d="M554.3,189.3c0.4,0.3,0.9,0.5,1.3,0.7c0.4,0.3,0.8,0.6,1.1,1c0.2,0.2,0.4,0.4,0.6,0.6c0,0.1,0.1,0.1,0.1,0.2
			l0.2,0.2l0.5,0.5c0.5,0.5,1.1,0.9,1.7,1.3c2.6,1.8,6,2,8.8,0.5c1.3-0.6,2.4-1.5,3.2-2.6c1.3-1.8,1.5-3.2,0.9-4s-2.2-0.7-3.9-0.2
			c-0.8,0.2-1.7,0.4-2.5,0.5c-0.7,0.1-1.3,0.1-2-0.1c-0.3-0.1-0.6-0.2-0.9-0.3c-0.4-0.2-1-0.5-1.6-0.8c-0.3-0.1-0.7-0.3-1-0.4
			l-0.5-0.2l-0.6-0.2c-0.8-0.2-1.6-0.3-2.3-0.2c-1.3,0-2.4,0.7-3.2,1.7C553.8,188.1,553.8,188.9,554.3,189.3z"/>
		<path class="st7" d="M568.9,195.5c0.1,0.3,1.2,0.1,2.4,0.3s2.3,0.5,2.5,0.2s-0.1-0.4-0.5-0.7c-0.5-0.4-1.2-0.6-1.8-0.6
			c-0.6-0.1-1.3,0-1.9,0.2C569.1,195.1,568.8,195.3,568.9,195.5z"/>
		<path class="st7" d="M559,196.4c0.2,0.2,0.9,0,1.8,0s1.7,0.2,1.8-0.1s0-0.4-0.4-0.6c-0.9-0.6-2.1-0.5-2.9,0.1
			C559,196,558.9,196.2,559,196.4z"/>
	</g>
	<g id="freepik--character-1--inject-51" style="clip-path:url(#SVGID_00000054232983451031390890000006385267226448506017_);">
		<polygon class="st9" points="111.4,461.3 109.2,470.4 124.7,472.2 125.3,463.1 		"/>
		<path class="st7" d="M118.4,461.7c-0.2,2.8-0.7,5.6-1.5,8.3C117.1,467.2,117.6,464.4,118.4,461.7z"/>
		<path class="st7" d="M124.8,471.2c-0.8,0-1.5-0.1-2.2-0.2l-5.4-0.8c-2.1-0.3-4-0.6-5.4-0.9c-0.7-0.1-1.5-0.3-2.2-0.6
			c0.8,0,1.5,0.1,2.2,0.3l5.4,0.8c2.1,0.3,4,0.6,5.4,0.9C123.3,470.7,124.1,470.9,124.8,471.2z"/>
		<path class="st9" d="M182.6,467.4l-0.2-5.7h-16.9l0.1,10.2h1c4.7,0.2,23.8,0.5,26.9-0.6C197,470.3,182.6,467.4,182.6,467.4z"/>
		<path class="st7" d="M165.4,471.6h0.3h0.8l3.1,0.1c2.6,0,6.2,0,10.1,0s7.6-0.2,10.1-0.4l3.1-0.2l0.8-0.1h0.3c-0.1,0-0.2,0-0.3,0
			H193l-3.1,0.1c-2.6,0.1-6.2,0.2-10.1,0.3s-7.6,0.1-10.1,0.1h-3.9C165.6,471.5,165.5,471.5,165.4,471.6z"/>
		<path class="st7" d="M188.2,471.5c0.1-0.5,0.3-1,0.5-1.5c0.3-0.4,0.6-0.8,1-1.2c-0.5,0.2-0.9,0.6-1.2,1.1
			C188.3,470.4,188.1,471,188.2,471.5z"/>
		<path class="st7" d="M183.2,469.1c0.1,0,0.3-0.3,0.5-0.7s0.4-0.7,0.3-0.8s-0.3,0.3-0.5,0.7S183.1,469.1,183.2,469.1z"/>
		<path class="st7" d="M181.8,468.4c0,0,0.3-0.1,0.6-0.4s0.5-0.5,0.4-0.6s-0.3,0.1-0.6,0.4S181.8,468.4,181.8,468.4z"/>
		<path class="st7" d="M180.9,466.9c0.6,0.1,1.2,0.1,1.8,0C182.1,466.7,181.5,466.7,180.9,466.9z"/>
		<path class="st7" d="M180.6,465.7c0.3,0.2,0.6,0.3,1,0.3c0.3,0,0.7,0,1-0.2c-0.3,0-0.7,0-1,0C181.2,465.8,180.9,465.7,180.6,465.7
			z"/>
		<path class="st7" d="M183.7,467.6c0.4,0.1,0.7,0.1,1.1,0c0.4-0.1,0.8-0.2,1.1-0.3c0.2-0.1,0.4-0.2,0.6-0.3
			c0.1-0.1,0.2-0.2,0.3-0.4c0-0.2,0-0.3-0.2-0.4c-0.9-0.4-1.9-0.1-2.4,0.6c-0.2,0.2-0.3,0.5-0.3,0.7c0,0.1,0,0.2,0,0.3
			c0.1-0.3,0.3-0.7,0.5-0.9c0.2-0.3,0.6-0.5,0.9-0.6c0.4-0.2,0.9-0.1,1.3,0.1c0.2,0.1,0.1,0.3-0.1,0.4c-0.2,0.1-0.4,0.2-0.6,0.3
			c-0.4,0.1-0.7,0.2-1.1,0.3C184.1,467.6,183.7,467.6,183.7,467.6z"/>
		<path class="st7" d="M184,467.7c0.1-0.2,0.2-0.5,0.1-0.8c0-0.3-0.1-0.6-0.3-0.8c-0.2-0.3-0.5-0.5-0.9-0.5c-0.2,0-0.4,0.3-0.3,0.5
			c0,0,0,0,0,0c0,0.2,0.1,0.3,0.2,0.5c0.2,0.2,0.3,0.4,0.5,0.6C183.5,467.4,183.7,467.6,184,467.7c-0.1,0-0.3-0.2-0.6-0.5
			c-0.2-0.2-0.3-0.4-0.5-0.6c-0.2-0.2-0.3-0.6,0-0.7s0.6,0.2,0.7,0.4c0.2,0.2,0.3,0.4,0.3,0.7C184,467.2,184,467.4,184,467.7z"/>
		<path class="st7" d="M165.7,467c0.4,0,0.8,0,1.2,0c1,0.1,1.9,0.5,2.8,1.1c0.8,0.6,1.4,1.4,1.8,2.4c0.3,0.7,0.3,1.2,0.4,1.2
			c0-0.1,0-0.2,0-0.3c0-0.3-0.1-0.6-0.2-0.9c-0.3-1-0.9-1.8-1.8-2.5c-0.8-0.6-1.8-1-2.9-1c-0.3,0-0.6,0-0.9,0
			C165.8,466.9,165.7,466.9,165.7,467z"/>
		<path class="st7" d="M173.9,470c0.8,0.2,1.6,0.2,2.5,0.2c0.8,0,1.7-0.1,2.5-0.3c0-0.1-1.1,0-2.5,0S173.9,469.9,173.9,470z"/>
		<path class="st7" d="M170.6,470.1c0,0,0.1,0.2,0.2,0.5s0.2,0.5,0.2,0.5s0.1-0.3-0.1-0.5S170.6,470,170.6,470.1z"/>
		<path class="st7" d="M169.3,468.5c0,0,0.1,0.2,0.3,0.4s0.4,0.3,0.4,0.2s-0.1-0.2-0.2-0.4S169.3,468.5,169.3,468.5z"/>
		<path class="st7" d="M167.5,467.9c0,0,0.2,0,0.5,0.1s0.4,0.2,0.5,0.2s-0.1-0.3-0.4-0.4S167.5,467.8,167.5,467.9z"/>
		<path class="st7" d="M166.2,467.6c0,0,0.1,0.1,0.2,0.2s0.3,0,0.3,0s-0.1-0.1-0.2-0.2S166.2,467.5,166.2,467.6z"/>
		<path class="st17" d="M244.4,247.5l-4.8,2.3l-4.4-6.9l2.6-5.4c0.2-0.5,0.5-1.1,0.8-1.7c0.3-0.7,0.5-1.5,0.6-2.4c0.1-1,0.1-2-0.1-3
			c-0.2-0.9,0.7-1.6,1.4-1.1s1.4,3,0.9,5.9s3-0.2,4.2-1.3s5.4-4.4,6-4.3c1,0.2,0.9,1.3-0.4,2.4s-4.9,4.6-4.3,5.3l0,0
			c1.5,0.2,2.8,1.3,3.1,2.8c0.3,1.4,0.6,3.4-0.2,4.1C248,245.4,246.2,246.5,244.4,247.5z"/>
		<path class="st17" d="M151.3,182.8l-0.1,41.7l17.9,0.9l0.5-10.1c0,0,6.4,1.3,8-4.6c1-3.8,0.8-32.9,0.8-32.9L151.3,182.8z"/>
		<path class="st7" d="M182.4,181.8c-1.2,2.5-6.9,7-6.9,7l-2.6,6.9c-2.2-1.8-5.3-1.7-5.8,2.3c-0.4,2.9,3.1,3.4,3.1,3.4
			c-2.1,3.5-3.5,6.4-6.5,9.7c-3.3,3.6-5.1,4-8.6,4h-3.9c0,0-8-6.7-6.4-24.2s17.4-12.4,21.1-16.8C172,167.1,186.4,173.5,182.4,181.8z
			"/>
		<path class="st9" d="M145.7,205.7c0,0,0.2,0,0.5,0c0.5,0,0.9-0.1,1.4-0.2c1.7-0.4,3.3-1.2,4.6-2.4c1.9-1.8,3.4-3.9,4.6-6.2
			c1.5-2.5,3.2-5.4,6-7.4c1.4-0.9,2.9-1.6,4.6-2c1.6-0.4,3.1-0.6,4.5-0.9c2.6-0.3,5-1.3,7.2-2.7c1.4-1,2.4-2.5,2.9-4.2
			c0.1-0.6,0.2-1.3,0.2-1.9c0,0,0,0.2,0.1,0.5c0,0.5,0,1-0.1,1.4c-0.4,1.7-1.5,3.2-2.9,4.3c-2.2,1.5-4.7,2.4-7.3,2.8
			c-2.9,0.6-6.2,1-9,2.9s-4.4,4.8-6,7.3c-1.2,2.3-2.8,4.4-4.7,6.2c-1.3,1.2-2.9,2-4.6,2.4C146.9,205.8,146.3,205.8,145.7,205.7z"/>
		<path class="st9" d="M144.7,191.5c0,0,0.3-0.1,0.8-0.3c0.8-0.3,1.6-0.5,2.4-0.6c1.3-0.2,2.7,0.1,3.8,0.8c0.7,0.5,1.2,1.2,1.4,2.1
			c0.2,1-0.1,1.9-0.8,2.6c-0.4,0.3-0.9,0.5-1.4,0.6c-0.5,0-1.1-0.1-1.5-0.4c-1-0.6-1.7-1.5-2.1-2.6c-0.8-2.4-0.1-5.1,1.8-6.8
			c1-0.9,2.3-1.5,3.6-1.6c1.4-0.1,2.8,0.1,4.1,0.5c1.4,0.4,2.7,0.8,4.1,1c1.5,0.2,2.9,0.2,4.4,0c1.5-0.2,2.9-0.6,4.2-1.2
			c1.3-0.5,2.3-1.6,2.8-2.9c0.4-1.3,0-2.7-0.9-3.7c-1-0.9-2.4-1.1-3.6-0.5c-0.6,0.2-1,0.7-1.3,1.2c-0.3,0.5-0.4,1.2-0.3,1.8
			c0.2,1.2,0.8,2.2,1.8,2.9c0.9,0.6,2,0.9,3.1,0.9c1,0,2-0.1,3-0.4c1.7-0.5,3.2-1.5,4.4-2.7c1.5-1.5,2.6-3.5,3.1-5.6
			c0.1-0.6,0.2-0.9,0.2-0.9s0,0.3-0.1,0.9c-0.5,2.1-1.5,4.1-3.1,5.6c-1.2,1.3-2.8,2.2-4.5,2.8c-1,0.3-2,0.5-3,0.5
			c-1.1,0-2.2-0.3-3.2-0.9c-1-0.7-1.7-1.8-1.9-3c-0.1-0.6,0-1.3,0.3-1.9c0.3-0.6,0.8-1.1,1.4-1.3c1.3-0.6,2.8-0.4,3.8,0.6
			c1,1,1.4,2.5,1,3.9c-0.5,1.4-1.5,2.5-2.9,3.1c-1.4,0.6-2.8,1-4.3,1.2c-1.5,0.2-3,0.2-4.4,0c-1.4-0.2-2.8-0.6-4.2-1
			c-1.3-0.4-2.6-0.6-4-0.5c-3.4,0.4-5.9,3.4-5.5,6.8c0,0.5,0.1,0.9,0.3,1.3c0.3,1.1,1,1.9,2,2.5c0.4,0.3,0.9,0.4,1.4,0.4
			c0.5,0,1-0.2,1.3-0.5c0.7-0.7,0.9-1.6,0.8-2.5c-0.2-0.8-0.6-1.5-1.3-2c-1.1-0.7-2.5-1-3.8-0.8c-0.8,0.1-1.7,0.3-2.4,0.6
			L144.7,191.5z"/>
		<polygon class="st7" points="132.9,304.9 109.2,461.3 128.9,463.8 156.8,332.6 163.8,464.7 185.3,464.3 181.6,300.9 		"/>
		<path class="st7" d="M163.4,465.2v-0.5l-6.8-128.2l-27.2,127.9l-20.7-2.6l23.9-157.2h0.4l49.2-4.1v0.5l3.7,163.9L163.4,465.2z
			 M157.1,328.8l7.2,135.3l20.4-0.4l-3.6-162.4l-47.7,4l-23.7,155.4l18.8,2.4L157.1,328.8z"/>
		<path class="st9" d="M178.9,464c-0.1,0-0.3-31.3-0.3-70s0.1-70,0.3-70s0.3,31.3,0.3,70S179,464,178.9,464z"/>
		<path class="st9" d="M124.6,463.5c0-0.1,0-0.2,0-0.4c0-0.2,0.1-0.6,0.2-1l0.7-3.8c0.7-3.3,1.6-8.1,2.8-14c2.4-11.8,5.8-28,9.7-46
			s7.6-34.1,10.3-45.8c1.4-5.8,2.5-10.5,3.3-13.9c0.4-1.6,0.7-2.9,0.9-3.8c0.1-0.4,0.2-0.7,0.3-1c0-0.1,0.1-0.2,0.1-0.3
			c0,0.1,0,0.2,0,0.3c-0.1,0.2-0.1,0.6-0.2,1c-0.2,0.9-0.5,2.2-0.8,3.8c-0.7,3.3-1.8,8-3.1,13.9c-2.6,11.7-6.2,27.9-10.2,45.9
			s-7.4,34.2-9.8,45.9c-1.2,5.9-2.2,10.6-3,13.9c-0.3,1.6-0.6,2.9-0.8,3.8l-0.2,1C124.6,463.2,124.6,463.3,124.6,463.5z"/>
		<path class="st9" d="M163.8,332.5c-1.1,0.2-2.2,0.3-3.4,0.3c-2.1,0.1-5,0.3-8.1,0.6s-6,0.7-8.1,1c-1.1,0.2-2.2,0.3-3.4,0.3
			c1.1-0.3,2.2-0.5,3.3-0.7c2.1-0.4,4.9-0.8,8.1-1.1s6.1-0.4,8.2-0.5C161.6,332.4,162.7,332.4,163.8,332.5z"/>
		<path class="st9" d="M182.1,322.4c-0.7,0.3-1.5,0.4-2.3,0.3c-4-0.2-7.4-2.7-8.9-6.4c-0.3-0.7-0.5-1.5-0.5-2.3
			c0.1,0,0.2,0.9,0.8,2.2c0.8,1.7,2,3.1,3.4,4.2c1.5,1.1,3.3,1.7,5.1,1.9C181.2,322.4,182.1,322.3,182.1,322.4z"/>
		<path class="st10" d="M130.6,313.8h52.1l-2-42.1c-0.3-8.3-0.3-9.3-0.5-16.9c0,0,7.8,9.4,13.9,16c3.7,4,9.6,5.1,14.5,2.8l32-22.3
			l-6-15.3l-29.1,17.8c-1.3-0.8-12.7-17-20.5-24.9c-5-5-11.8-8-18.9-8.2c-5.9-0.1-11.8,0.1-17.7,0.7c-8.8,1-15.7,8-16.4,16.8
			c-0.6,6.8-0.1,14.6-0.1,27.9L130.6,313.8z"/>
		<path class="st10" d="M139,225.2c-4.9,2.2-25.4,28.5-26.9,45.5c-1.1,12.7,23.7,11.3,23.7,11.3s1.7-52.2,0.9-51.5"/>
		<path class="st7" d="M134,229.7c0,0,0,0.2,0,0.6s-0.1,0.9-0.1,1.6c-0.1,1.4-0.2,3.3-0.4,5.8c-0.3,4.9-0.5,11.6-0.7,19
			s-0.4,14.1-0.7,19c-0.1,2.4-0.2,4.4-0.4,5.8c-0.1,0.6-0.1,1.1-0.1,1.6s-0.1,0.5-0.1,0.5s0-0.2,0-0.5s0.1-0.9,0.1-1.6
			c0.1-1.4,0.2-3.4,0.3-5.8c0.2-4.9,0.4-11.6,0.6-19s0.5-14.1,0.8-19c0.1-2.4,0.3-4.4,0.4-5.8c0.1-0.6,0.1-1.1,0.2-1.6
			S134,229.7,134,229.7z"/>
		<path class="st7" d="M131.9,263.2c-0.2,0.4-0.4,0.7-0.7,1c-0.5,0.6-1.1,1.4-1.9,2.2s-1.5,1.6-2,2.1c-0.3,0.3-0.6,0.6-0.9,0.8
			c0.2-0.3,0.5-0.6,0.8-0.9c0.5-0.5,1.2-1.3,2-2.1s1.4-1.6,1.9-2.2C131.4,263.8,131.7,263.5,131.9,263.2z"/>
		<path class="st7" d="M204.2,258.9c0.1-0.9,0.3-1.7,0.5-2.6c0.2-0.9,0.4-1.7,0.7-2.5c-0.1,0.9-0.3,1.7-0.5,2.6
			C204.8,257.2,204.5,258.1,204.2,258.9z"/>
		<path class="st7" d="M207.2,259.3c-0.3-0.9-0.6-1.9-0.8-2.9c-0.2-1-0.4-1.9-0.6-2.9c0.3,0.9,0.6,1.9,0.8,2.9
			C206.9,257.4,207,258.3,207.2,259.3z"/>
		<path class="st7" d="M181.5,256.1c0,0-0.1-0.1-0.3-0.3s-0.5-0.5-0.8-0.8c-0.7-0.7-1.8-1.7-3-3.1c-2.4-2.6-5.9-6.5-7.8-11.7
			c-0.9-2.4-1.3-5.1-1.2-7.7c0-2.1,0.5-4.2,1.4-6.2c0.6-1.3,1.5-2.4,2.7-3.3c0.3-0.2,0.7-0.4,1-0.6l0.4-0.2c0,0-0.5,0.3-1.3,0.9
			c-1.1,0.9-2,2-2.6,3.3c-0.8,1.9-1.3,4-1.3,6.1c-0.1,2.6,0.3,5.2,1.2,7.6c1.9,5.2,5.3,9,7.7,11.7c1.2,1.3,2.2,2.4,3,3.1l0.8,0.8
			L181.5,256.1z"/>
		<path class="st2" d="M145.9,241.3c-0.1,0.1-1-0.8-1.9-2c-0.6-0.7-1.2-1.5-1.5-2.3c0.8,0.5,1.4,1.2,1.9,2
			C145.1,239.6,145.6,240.4,145.9,241.3z"/>
		<path class="st2" d="M158.4,255.4c-1.6,2.1-3.4,3.9-5.5,5.5c0.7-1.1,1.6-2.1,2.6-2.9C156.3,257,157.3,256.1,158.4,255.4z"/>
		<path class="st2" d="M170.4,275.7c-0.5-0.8-1-1.7-1.4-2.5c-0.6-0.8-1.1-1.6-1.5-2.5c0.9,0.5,1.6,1.3,2,2.2
			C170,273.7,170.4,274.7,170.4,275.7z"/>
		<path class="st2" d="M139.2,273.4c-1.3-2.5-1.8-5.4-1.4-8.2c0.2,0,0.2,1.9,0.6,4.1S139.3,273.3,139.2,273.4z"/>
		<path class="st2" d="M155.8,282.3c-0.6-1-1-2.2-1-3.4c-0.2-1.2-0.1-2.4,0.3-3.5c0.2,0,0,1.6,0.2,3.5S155.9,282.2,155.8,282.3z"/>
		<path class="st2" d="M149.2,295.3c-1.3-0.5-2.6-1.2-3.8-2.1c-1.3-0.7-2.4-1.5-3.5-2.5c1.3,0.5,2.6,1.2,3.8,2.1
			C147,293.5,148.1,294.3,149.2,295.3z"/>
		<path class="st2" d="M175,291.4c-1.3,0.9-2.6,1.7-3.9,2.4c-1.3,0.9-2.6,1.7-3.9,2.5c1-1.2,2.3-2.2,3.6-2.9
			C172.1,292.5,173.5,291.8,175,291.4z"/>
		<path class="st2" d="M142.6,306.1c-1.4,0-2.7-0.2-4-0.5c-1.4-0.2-2.7-0.5-4-1.1c1.4,0,2.7,0.2,4.1,0.5
			C140,305.2,141.3,305.6,142.6,306.1z"/>
		<path class="st2" d="M161.5,308.8c-1.6-1.4-2.6-3.4-3-5.5c0.6,0.9,1.1,1.8,1.5,2.7C160.6,306.9,161.1,307.8,161.5,308.8z"/>
		<path class="st2" d="M179.3,304.6c0.1,0.1-0.4,0.9-1.2,1.9s-1.5,1.6-1.6,1.5s0.4-0.9,1.2-1.9S179.2,304.5,179.3,304.6z"/>
		<path class="st2" d="M143.7,249.6c0.1,0.1-0.6,0.7-1.6,1.4s-1.8,1-1.9,0.9s0.6-0.7,1.6-1.4S143.6,249.5,143.7,249.6z"/>
		<path class="st2" d="M157.2,234.6c-0.7-1.3-1.2-2.7-1.5-4.1c-0.5-1.4-0.7-2.8-0.8-4.3c0.5,1.3,1,2.7,1.3,4.2
			C156.7,231.7,157,233.1,157.2,234.6z"/>
		<path class="st2" d="M170.2,248.3c-0.9-0.1-1.8-0.3-2.7-0.6c-0.9-0.1-1.8-0.3-2.8-0.5C166.6,246.8,168.6,247.2,170.2,248.3z"/>
		<path class="st2" d="M179.1,236.6c-2,0.5-4.2,0.2-5.9-0.9c1,0.1,2,0.3,3,0.6C177.7,236.5,179.1,236.5,179.1,236.6z"/>
		<path class="st2" d="M188.2,249.6c-0.2-1.5-0.2-3,0.2-4.4c0.2-1.5,0.6-2.9,1.2-4.2c-0.2,1.5-0.4,2.9-0.7,4.3
			C188.7,246.8,188.5,248.2,188.2,249.6z"/>
		<path class="st2" d="M198.9,265c-2-1.6-3.8-3.5-5.4-5.6C195.6,261,197.4,262.9,198.9,265z"/>
		<path class="st2" d="M207.8,263.8c-0.3,1-0.8,1.9-1.4,2.6c-0.5,0.9-1.1,1.7-1.8,2.4c0.3-1,0.8-1.9,1.4-2.6
			C206.5,265.3,207.1,264.5,207.8,263.8z"/>
		<path class="st2" d="M218.2,258.8c-0.7-0.9-1.3-2-1.8-3.1c-0.6-1-1-2.1-1.3-3.3C216.4,254.4,217.5,256.5,218.2,258.8z"/>
		<path class="st2" d="M232.2,252.9c-1.2,0-2.5-0.1-3.7-0.4c-1.2-0.1-2.4-0.4-3.6-0.9c1.2,0,2.5,0.1,3.7,0.4
			C229.9,252.1,231.1,252.5,232.2,252.9z"/>
		<path class="st2" d="M120.4,267.9c0.8-2.5,1.9-4.9,3.3-7.1C123,263.3,121.9,265.7,120.4,267.9z"/>
		<path class="st2" d="M127.9,254.7c-0.9-0.7-1.8-1.4-2.5-2.4c-0.8-0.8-1.5-1.7-2.1-2.7c0.9,0.6,1.8,1.4,2.5,2.3
			C126.6,252.8,127.3,253.7,127.9,254.7z"/>
		<path class="st2" d="M127.3,275.9c0.1,0.1-0.4,0.7-1.2,1.3s-1.4,1-1.5,0.9s0.4-0.7,1.2-1.3S127.2,275.8,127.3,275.9z"/>
		<path class="st2" d="M129.8,240.7c0.1,0.1-0.2,0.7-0.7,1.3s-1,1.1-1.1,1s0.2-0.7,0.7-1.3S129.7,240.6,129.8,240.7z"/>
		<g class="st15">
			<path d="M171.6,244.4c3.4,10.6,6,21.8,9.4,32.4l-0.8-22C176.9,251.7,174,248.2,171.6,244.4z"/>
		</g>
		<g class="st15">
			<path d="M131.3,282.1c-2.5-11.8-2.2-24,2-35.3L131.3,282.1z"/>
		</g>
	</g>
</g>
</svg>
