<svg id="visual" viewBox="0 0 900 600" width="900" height="600" xmlns="http://www.w3.org/2000/svg" xmlns:xlink="http://www.w3.org/1999/xlink" version="1.1"><rect x="0" y="0" width="900" height="600" fill="#ffffff"></rect><path d="M0 426L13.7 431.5C27.3 437 54.7 448 82 460.3C109.3 472.7 136.7 486.3 163.8 486.3C191 486.3 218 472.7 245.2 463C272.3 453.3 299.7 447.7 327 444C354.3 440.3 381.7 438.7 409 451.3C436.3 464 463.7 491 491 490.5C518.3 490 545.7 462 573 446.7C600.3 431.3 627.7 428.7 654.8 439C682 449.3 709 472.7 736.2 477.5C763.3 482.3 790.7 468.7 818 457.5C845.3 446.3 872.7 437.7 886.3 433.3L900 429L900 601L886.3 601C872.7 601 845.3 601 818 601C790.7 601 763.3 601 736.2 601C709 601 682 601 654.8 601C627.7 601 600.3 601 573 601C545.7 601 518.3 601 491 601C463.7 601 436.3 601 409 601C381.7 601 354.3 601 327 601C299.7 601 272.3 601 245.2 601C218 601 191 601 163.8 601C136.7 601 109.3 601 82 601C54.7 601 27.3 601 13.7 601L0 601Z" fill="#568D90" stroke-linecap="round" stroke-linejoin="miter"></path></svg>